<svg width="1228" height="504" xmlns="http://www.w3.org/2000/svg" xmlns:xlink="http://www.w3.org/1999/xlink" overflow="hidden"><defs><clipPath id="clip0"><rect x="1682" y="1521" width="1228" height="504"/></clipPath></defs><g clip-path="url(#clip0)" transform="translate(-1682 -1521)"><path d="M1684.5 1888.5 2765.5 1888.5" stroke="#000000" stroke-width="3.4375" stroke-linejoin="round" stroke-miterlimit="10" fill="none" fill-rule="evenodd"/><path d="M0 0 0.000360892 300" stroke="#000000" stroke-width="3.4375" stroke-linejoin="round" stroke-miterlimit="10" fill="none" fill-rule="evenodd" transform="matrix(1 0 0 -1 2225.5 1925.5)"/><path d="M1683 1874C1706.32 1870.89 1777.89 1874 1822.92 1851.46 1867.96 1828.93 1908.16 1738 1952.39 1738 1996.62 1738 2043.26 1830.48 2088.29 1851.46 2134.13 1873.22 2196.85 1863.9 2225 1867.01" stroke="#3333FF" stroke-width="10.3125" stroke-linejoin="round" stroke-miterlimit="10" fill="none" fill-rule="evenodd"/><path d="M2225 1867.01C2248.3 1864.67 2319.02 1873.22 2363.22 1851.46 2408.22 1829.7 2448.4 1738 2492.6 1738 2536.8 1738 2583.4 1828.93 2628.41 1851.46 2673.41 1874 2733.68 1869.34 2761 1874" stroke="#3333FF" stroke-width="10.3125" stroke-linejoin="round" stroke-miterlimit="10" fill="none" fill-rule="evenodd"/><path d="M0 0 0.000360892 74.9999" stroke="#000000" stroke-width="3.4375" stroke-linejoin="round" stroke-miterlimit="10" fill="none" fill-rule="evenodd" transform="matrix(-1 0 0 1 1955.5 1850.5)"/><path d="M0 0 0.000360892 74.9999" stroke="#000000" stroke-width="3.4375" stroke-linejoin="round" stroke-miterlimit="10" fill="none" fill-rule="evenodd" transform="matrix(-1 0 0 1 2495.5 1850.5)"/><path d="M2187.47 1550.89C2189.23 1550.89 2190.74 1551.04 2192.01 1551.32L2190.96 1555.89 2188.6 1555.89C2188.35 1554.87 2188.02 1554.14 2187.62 1553.69 2187.22 1553.24 2186.62 1553.02 2185.84 1553.02 2184.81 1553.02 2183.95 1553.3 2183.24 1553.86 2182.54 1554.43 2181.93 1555.26 2181.43 1556.37 2180.93 1557.48 2180.46 1558.98 2180.03 1560.86L2179.36 1563.79 2186.27 1563.79 2185.67 1566.5 2178.75 1566.5 2173.75 1589.92C2172.93 1593.8 2171.66 1596.7 2169.96 1598.6 2168.26 1600.51 2166.12 1601.46 2163.55 1601.46 2162.79 1601.46 2162.2 1601.42 2161.77 1601.33L2162.23 1598.97C2162.41 1599.02 2162.83 1599.05 2163.49 1599.05 2164.3 1599.05 2164.99 1598.84 2165.56 1598.43 2166.13 1598.02 2166.67 1597.3 2167.16 1596.28 2167.65 1595.26 2168.1 1593.85 2168.51 1592.04L2174.29 1566.5 2169.75 1566.5 2170.15 1564.64C2171.35 1564.57 2172.22 1564.47 2172.74 1564.35 2173.27 1564.22 2173.68 1564.04 2173.98 1563.79 2174.27 1563.53 2174.52 1563.21 2174.73 1562.81 2174.94 1562.4 2175.2 1561.66 2175.52 1560.59 2176.47 1557.37 2177.94 1554.95 2179.91 1553.33 2181.89 1551.71 2184.41 1550.89 2187.47 1550.89Z" fill-rule="evenodd"/><text fill="#000000" fill-opacity="0" font-family="Arial,Arial_MSFontService,sans-serif" font-size="50.5688" x="2161.77" y="1595.14">𝑓</text><path d="M2198.3 1577.43C2197.99 1577.43 2197.63 1577.43 2197.23 1577.45 2196.82 1577.46 2196.43 1577.47 2196.06 1577.47L2193.73 1587.68 2196.06 1587.68C2198.63 1587.68 2200.61 1587.16 2201.99 1586.11 2203.37 1585.06 2204.06 1583.47 2204.06 1581.33 2204.06 1580.62 2203.96 1580.01 2203.74 1579.51 2203.53 1579.01 2203.19 1578.6 2202.72 1578.3 2202.25 1577.99 2201.65 1577.77 2200.93 1577.63 2200.21 1577.5 2199.33 1577.43 2198.3 1577.43ZM2190.06 1575.36 2199.02 1575.36C2200.74 1575.36 2202.18 1575.51 2203.32 1575.81 2204.47 1576.11 2205.39 1576.52 2206.08 1577.05 2206.77 1577.57 2207.25 1578.19 2207.54 1578.91 2207.83 1579.63 2207.97 1580.4 2207.97 1581.24 2207.97 1583.16 2207.38 1584.77 2206.2 1586.06 2205.02 1587.35 2203.24 1588.33 2200.84 1589.01 2200.82 1589.06 2200.8 1589.11 2200.8 1589.15 2200.8 1589.18 2200.8 1589.23 2200.8 1589.28 2201.41 1589.7 2201.91 1590.22 2202.28 1590.84 2202.65 1591.47 2202.97 1592.3 2203.24 1593.33 2203.56 1594.55 2203.81 1595.54 2204.02 1596.29 2204.22 1597.05 2204.45 1597.64 2204.72 1598.08 2204.99 1598.52 2205.32 1598.84 2205.73 1599.04 2206.14 1599.24 2206.7 1599.39 2207.4 1599.5L2207.13 1600.69 2201.45 1600.69C2201.21 1600.18 2200.98 1599.56 2200.76 1598.82 2200.54 1598.09 2200.35 1597.37 2200.18 1596.67 2199.92 1595.64 2199.7 1594.75 2199.52 1594 2199.35 1593.25 2199.17 1592.62 2199.01 1592.1 2198.84 1591.59 2198.66 1591.18 2198.48 1590.87 2198.3 1590.57 2198.08 1590.32 2197.83 1590.14 2197.59 1589.96 2197.29 1589.84 2196.94 1589.78 2196.58 1589.72 2196.15 1589.68 2195.65 1589.65L2193.32 1589.65C2193.17 1590.34 2193 1591.09 2192.81 1591.88 2192.63 1592.67 2192.45 1593.45 2192.28 1594.2 2192.1 1594.96 2191.95 1595.67 2191.84 1596.32 2191.72 1596.98 2191.66 1597.51 2191.66 1597.92 2191.66 1598.19 2191.69 1598.42 2191.76 1598.61 2191.82 1598.8 2191.94 1598.95 2192.1 1599.07 2192.26 1599.18 2192.49 1599.28 2192.77 1599.34 2193.05 1599.41 2193.4 1599.46 2193.83 1599.5L2193.58 1600.69 2185.24 1600.69 2185.45 1599.5C2185.85 1599.43 2186.18 1599.35 2186.44 1599.25 2186.69 1599.16 2186.92 1598.97 2187.12 1598.69 2187.32 1598.41 2187.51 1597.99 2187.68 1597.43 2187.85 1596.87 2188.04 1596.09 2188.26 1595.08L2191.47 1580.84C2191.6 1580.27 2191.69 1579.76 2191.76 1579.32 2191.82 1578.88 2191.86 1578.51 2191.86 1578.23 2191.86 1577.64 2191.71 1577.22 2191.42 1576.98 2191.12 1576.73 2190.57 1576.6 2189.77 1576.59Z" fill-rule="evenodd"/><text fill="#000000" fill-opacity="0" font-family="Arial,Arial_MSFontService,sans-serif" font-size="25.332" x="2185.24" y="1597.52">𝑅</text><path d="M2234.89 1550.65 2235.61 1552.72C2231.42 1554.1 2228.32 1556.79 2226.31 1560.79 2224.29 1564.79 2223.29 1569.82 2223.29 1575.87 2223.29 1582.14 2224.29 1587.3 2226.31 1591.37 2228.32 1595.43 2231.4 1598.15 2235.53 1599.53L2234.89 1601.6C2229.64 1600.22 2225.62 1597.25 2222.83 1592.7 2220.04 1588.14 2218.64 1582.62 2218.64 1576.14 2218.64 1569.68 2220.04 1564.16 2222.84 1559.58 2225.65 1555.01 2229.66 1552.03 2234.89 1550.65Z" fill-rule="evenodd"/><text fill="#000000" fill-opacity="0" font-family="Arial,Arial_MSFontService,sans-serif" font-size="50.9448" x="2218.64" y="1595.23">(</text><path d="M2245.16 1563.33C2246.28 1563.33 2247.17 1563.7 2247.83 1564.44 2248.48 1565.19 2248.81 1566.16 2248.81 1567.36 2248.81 1568.25 2248.64 1569.17 2248.3 1570.12L2248.65 1570.26C2250.4 1567.88 2252.09 1566.13 2253.71 1565.02 2255.33 1563.91 2256.97 1563.36 2258.64 1563.36 2259.94 1563.36 2261.04 1563.45 2261.91 1563.65L2260.62 1569.67 2257.86 1569.67C2257.75 1568.91 2257.6 1568.33 2257.4 1567.92 2257.21 1567.51 2256.97 1567.22 2256.7 1567.06 2256.44 1566.9 2256.1 1566.82 2255.68 1566.82 2255.04 1566.82 2254.34 1567.1 2253.58 1567.65 2252.81 1568.21 2251.96 1569.08 2251.01 1570.26 2250.06 1571.44 2249.31 1572.58 2248.74 1573.67 2248.18 1574.76 2247.71 1576.15 2247.33 1577.83L2244.78 1589.46 2240.13 1589.46 2244.03 1572.43C2244.28 1571.36 2244.44 1570.53 2244.51 1569.94 2244.58 1569.34 2244.62 1568.85 2244.62 1568.46 2244.62 1567.74 2244.5 1567.22 2244.27 1566.9 2244.04 1566.58 2243.67 1566.42 2243.17 1566.42 2242.61 1566.42 2242.03 1566.65 2241.41 1567.1 2240.79 1567.56 2239.95 1568.39 2238.87 1569.59L2237.34 1568.08C2238.99 1566.36 2240.37 1565.14 2241.48 1564.42 2242.59 1563.69 2243.81 1563.33 2245.16 1563.33Z" fill-rule="evenodd"/><text fill="#000000" fill-opacity="0" font-family="Arial,Arial_MSFontService,sans-serif" font-size="26.1304" x="2237.34" y="1586.19">𝑟</text><path d="M2266.04 1550.65C2271.27 1552.03 2275.28 1555.01 2278.08 1559.58 2280.88 1564.16 2282.29 1569.68 2282.29 1576.14 2282.29 1582.62 2280.89 1588.14 2278.1 1592.7 2275.3 1597.25 2271.28 1600.22 2266.04 1601.6L2265.39 1599.53C2269.53 1598.15 2272.6 1595.43 2274.62 1591.37 2276.63 1587.3 2277.64 1582.14 2277.64 1575.87 2277.64 1569.82 2276.64 1564.79 2274.63 1560.79 2272.63 1556.79 2269.52 1554.1 2265.31 1552.72Z" fill-rule="evenodd"/><text fill="#000000" fill-opacity="0" font-family="Arial,Arial_MSFontService,sans-serif" font-size="50.9448" x="2265.31" y="1595.23">)</text><path d="M2221.58 1951.68C2220.34 1951.68 2219.31 1952.05 2218.47 1952.78 2217.64 1953.51 2216.97 1954.57 2216.46 1955.95 2215.95 1957.33 2215.59 1959.01 2215.37 1960.98 2215.16 1962.96 2215.05 1965.2 2215.05 1967.68 2215.05 1973.52 2215.59 1977.8 2216.67 1980.53 2217.76 1983.26 2219.44 1984.63 2221.71 1984.63 2223.88 1984.63 2225.48 1983.35 2226.53 1980.78 2227.58 1978.21 2228.1 1974.23 2228.1 1968.84 2228.1 1964.72 2227.83 1961.39 2227.3 1958.84 2226.76 1956.28 2226.01 1954.45 2225.05 1953.34 2224.1 1952.23 2222.94 1951.68 2221.58 1951.68ZM2221.71 1949.4C2225.63 1949.4 2228.55 1950.91 2230.46 1953.93 2232.38 1956.96 2233.34 1961.53 2233.34 1967.66 2233.34 1973.99 2232.31 1978.79 2230.26 1982.04 2228.21 1985.29 2225.22 1986.91 2221.28 1986.91 2217.41 1986.91 2214.54 1985.39 2212.65 1982.35 2210.76 1979.3 2209.81 1974.68 2209.81 1968.49 2209.81 1965.2 2210.1 1962.35 2210.69 1959.95 2211.27 1957.55 2212.08 1955.57 2213.13 1954 2214.18 1952.43 2215.43 1951.28 2216.9 1950.52 2218.37 1949.77 2219.97 1949.4 2221.71 1949.4Z" fill-rule="evenodd"/><text fill="#000000" fill-opacity="0" font-family="Arial,Arial_MSFontService,sans-serif" font-size="37.5171" x="2209.81" y="1982.22">0</text><path d="M1907.59 1975.85 1940.68 1975.85 1940.68 1979.42 1907.59 1979.42Z" fill-rule="evenodd"/><text fill="#000000" fill-opacity="0" font-family="Arial,Arial_MSFontService,sans-serif" font-size="3.57178" x="1907.59" y="1978.97">−</text><path d="M1967.32 1961.94 1957.76 1978.86 1968.26 1978.86 1967.8 1970.21C1967.75 1969.03 1967.7 1967.55 1967.67 1965.78 1967.63 1964 1967.61 1962.72 1967.61 1961.94ZM1967.48 1956.27 1971.54 1956.27 1973.47 1986.21C1973.56 1987.63 1973.72 1988.73 1973.95 1989.53 1974.18 1990.33 1974.5 1990.92 1974.91 1991.3 1975.31 1991.69 1975.89 1991.93 1976.66 1992.04L1976.37 1993.36 1965.2 1993.36 1965.49 1992.04C1966.55 1991.95 1967.34 1991.54 1967.86 1990.81 1968.38 1990.07 1968.63 1988.78 1968.63 1986.94 1968.63 1986.24 1968.61 1985.48 1968.55 1984.66L1968.37 1981.19 1956.55 1981.19 1955.07 1983.82C1954.37 1985.06 1953.86 1986.12 1953.54 1987.01 1953.22 1987.89 1953.06 1988.68 1953.06 1989.36 1953.06 1990.86 1953.96 1991.76 1955.77 1992.04L1955.48 1993.36 1944.49 1993.36 1944.79 1992.04C1945.34 1991.97 1945.87 1991.75 1946.36 1991.38 1946.85 1991.02 1947.37 1990.46 1947.93 1989.72 1948.48 1988.98 1949.26 1987.74 1950.27 1986.03Z" fill-rule="evenodd"/><text fill="#000000" fill-opacity="0" font-family="Arial,Arial_MSFontService,sans-serif" font-size="37.0874" x="1944.49" y="1988.72">𝐴</text><path d="M2500.14 1961.94 2490.58 1978.86 2501.08 1978.86 2500.62 1970.21C2500.57 1969.03 2500.52 1967.55 2500.49 1965.78 2500.45 1964 2500.43 1962.72 2500.43 1961.94ZM2500.3 1956.27 2504.35 1956.27 2506.29 1986.21C2506.38 1987.63 2506.54 1988.73 2506.77 1989.53 2507 1990.33 2507.32 1990.92 2507.72 1991.3 2508.13 1991.69 2508.71 1991.93 2509.48 1992.04L2509.19 1993.36 2498.01 1993.36 2498.31 1992.04C2499.37 1991.95 2500.15 1991.54 2500.67 1990.81 2501.19 1990.07 2501.45 1988.78 2501.45 1986.94 2501.45 1986.24 2501.43 1985.48 2501.37 1984.66L2501.18 1981.19 2489.37 1981.19 2487.89 1983.82C2487.19 1985.06 2486.68 1986.12 2486.36 1987.01 2486.04 1987.89 2485.88 1988.68 2485.88 1989.36 2485.88 1990.86 2486.78 1991.76 2488.59 1992.04L2488.29 1993.36 2477.31 1993.36 2477.6 1992.04C2478.16 1991.97 2478.68 1991.75 2479.18 1991.38 2479.67 1991.02 2480.19 1990.46 2480.75 1989.72 2481.3 1988.98 2482.08 1987.74 2483.08 1986.03Z" fill-rule="evenodd"/><text fill="#000000" fill-opacity="0" font-family="Arial,Arial_MSFontService,sans-serif" font-size="37.0874" x="2477.31" y="1988.72">𝐴</text><path d="M2802.27 1879.86C2803.4 1879.86 2804.29 1880.23 2804.95 1880.97 2805.6 1881.72 2805.93 1882.69 2805.93 1883.89 2805.93 1884.78 2805.76 1885.7 2805.42 1886.65L2805.76 1886.79C2807.52 1884.41 2809.21 1882.66 2810.83 1881.55 2812.45 1880.44 2814.09 1879.88 2815.75 1879.88 2817.06 1879.88 2818.15 1879.98 2819.03 1880.18L2817.74 1886.2 2814.98 1886.2C2814.87 1885.44 2814.72 1884.86 2814.52 1884.45 2814.32 1884.04 2814.09 1883.75 2813.82 1883.59 2813.55 1883.43 2813.21 1883.35 2812.8 1883.35 2812.16 1883.35 2811.45 1883.63 2810.69 1884.18 2809.93 1884.74 2809.08 1885.6 2808.13 1886.79 2807.18 1887.97 2806.42 1889.11 2805.86 1890.2 2805.29 1891.29 2804.82 1892.68 2804.45 1894.36L2801.9 1905.99 2797.25 1905.99 2801.15 1888.96C2801.4 1887.89 2801.56 1887.06 2801.63 1886.46 2801.7 1885.87 2801.74 1885.38 2801.74 1884.99 2801.74 1884.27 2801.62 1883.75 2801.39 1883.43 2801.15 1883.11 2800.79 1882.95 2800.29 1882.95 2799.73 1882.95 2799.14 1883.17 2798.53 1883.63 2797.91 1884.09 2797.06 1884.92 2795.99 1886.12L2794.46 1884.61C2796.11 1882.89 2797.48 1881.67 2798.59 1880.95 2799.7 1880.22 2800.93 1879.86 2802.27 1879.86Z" fill-rule="evenodd"/><text fill="#000000" fill-opacity="0" font-family="Arial,Arial_MSFontService,sans-serif" font-size="26.1304" x="2794.46" y="1902.72">𝑟</text><path d="M1922.92 1801.85 1978.49 1801.85 1978.49 1804.15 1922.92 1804.15ZM1927.5 1816.75 1900 1803 1927.5 1789.25ZM1973.91 1789.25 2001.41 1803 1973.91 1816.75Z"/><path d="M1958.07 1769.21C1955.67 1769.28 1953.53 1769.98 1951.63 1771.29 1949.73 1772.61 1948.26 1774.38 1947.21 1776.6 1946.16 1778.82 1945.64 1781.28 1945.64 1783.98 1945.64 1785.38 1945.87 1786.5 1946.32 1787.35 1946.78 1788.2 1947.35 1788.79 1948.03 1789.11 1948.71 1789.43 1949.44 1789.59 1950.23 1789.59 1952.04 1789.59 1953.61 1789 1954.93 1787.82 1956.26 1786.64 1957.33 1784.84 1958.14 1782.42 1958.95 1780.01 1959.36 1777.66 1959.36 1775.39 1959.36 1772.93 1958.93 1770.88 1958.07 1769.21ZM1962.21 1765.58 1970.75 1765.58 1969.94 1769.13 1961.16 1769.13 1961.11 1769.34C1962.13 1770.56 1962.86 1771.79 1963.31 1773.02 1963.76 1774.26 1963.98 1775.61 1963.98 1777.08 1963.98 1779.75 1963.41 1782.22 1962.26 1784.5 1961.12 1786.79 1959.51 1788.56 1957.45 1789.81 1955.4 1791.06 1953.07 1791.69 1950.47 1791.69 1947.52 1791.69 1945.27 1790.9 1943.72 1789.31 1942.17 1787.73 1941.4 1785.48 1941.4 1782.58 1941.4 1780.6 1941.7 1778.71 1942.3 1776.93 1942.89 1775.15 1943.78 1773.51 1944.95 1772.02 1946.13 1770.52 1947.46 1769.31 1948.94 1768.38 1950.43 1767.45 1952.2 1766.75 1954.26 1766.28 1956.32 1765.82 1958.97 1765.58 1962.21 1765.58Z" fill-rule="evenodd"/><text fill="#000000" fill-opacity="0" font-family="Arial,Arial_MSFontService,sans-serif" font-size="26.1035" x="1941.4" y="1788.43">𝜎</text><path d="M2462.92 1801.85 2518.49 1801.85 2518.49 1804.15 2462.92 1804.15ZM2467.5 1816.75 2440 1803 2467.5 1789.25ZM2513.91 1789.25 2541.41 1803 2513.91 1816.75Z"/><path d="M2497.76 1769.21C2495.36 1769.28 2493.21 1769.98 2491.32 1771.29 2489.42 1772.61 2487.95 1774.38 2486.9 1776.6 2485.85 1778.82 2485.33 1781.28 2485.33 1783.98 2485.33 1785.38 2485.55 1786.5 2486.01 1787.35 2486.47 1788.2 2487.04 1788.79 2487.72 1789.11 2488.4 1789.43 2489.13 1789.59 2489.92 1789.59 2491.73 1789.59 2493.29 1789 2494.62 1787.82 2495.94 1786.64 2497.01 1784.84 2497.83 1782.42 2498.64 1780.01 2499.05 1777.66 2499.05 1775.39 2499.05 1772.93 2498.62 1770.88 2497.76 1769.21ZM2501.9 1765.58 2510.44 1765.58 2509.63 1769.13 2500.85 1769.13 2500.8 1769.34C2501.82 1770.56 2502.55 1771.79 2503 1773.02 2503.45 1774.26 2503.67 1775.61 2503.67 1777.08 2503.67 1779.75 2503.1 1782.22 2501.95 1784.5 2500.8 1786.79 2499.2 1788.56 2497.14 1789.81 2495.08 1791.06 2492.76 1791.69 2490.16 1791.69 2487.21 1791.69 2484.96 1790.9 2483.41 1789.31 2481.86 1787.73 2481.08 1785.48 2481.08 1782.58 2481.08 1780.6 2481.38 1778.71 2481.98 1776.93 2482.58 1775.15 2483.47 1773.51 2484.64 1772.02 2485.81 1770.52 2487.14 1769.31 2488.63 1768.38 2490.12 1767.45 2491.89 1766.75 2493.95 1766.28 2496.01 1765.82 2498.66 1765.58 2501.9 1765.58Z" fill-rule="evenodd"/><text fill="#000000" fill-opacity="0" font-family="Arial,Arial_MSFontService,sans-serif" font-size="26.1035" x="2481.08" y="1788.43">𝜎</text></g></svg>