<svg width="1079" height="550" xmlns="http://www.w3.org/2000/svg" xmlns:xlink="http://www.w3.org/1999/xlink" xml:space="preserve" overflow="hidden"><defs><clipPath id="clip0"><rect x="1564" y="1405" width="1079" height="550"/></clipPath></defs><g clip-path="url(#clip0)" transform="translate(-1564 -1405)"><path d="M1698 1811 2638 1811" stroke="#262626" stroke-width="2.29167" stroke-linejoin="round" stroke-miterlimit="10" fill="none" fill-rule="evenodd"/><path d="M1698 1406 2638 1406" stroke="#262626" stroke-width="2.29167" stroke-linejoin="round" stroke-miterlimit="10" fill="none" fill-rule="evenodd"/><path d="M0 0 0.000360892 8.99993" stroke="#262626" stroke-width="2.29167" stroke-linejoin="round" stroke-miterlimit="10" fill="none" fill-rule="evenodd" transform="matrix(1 0 0 -1 1872 1811)"/><path d="M0 0 0.000360892 8.99993" stroke="#262626" stroke-width="2.29167" stroke-linejoin="round" stroke-miterlimit="10" fill="none" fill-rule="evenodd" transform="matrix(1 0 0 -1 2168 1811)"/><path d="M0 0 0.000360892 8.99993" stroke="#262626" stroke-width="2.29167" stroke-linejoin="round" stroke-miterlimit="10" fill="none" fill-rule="evenodd" transform="matrix(1 0 0 -1 2464 1811)"/><path d="M1872 1406 1872 1415" stroke="#262626" stroke-width="2.29167" stroke-linejoin="round" stroke-miterlimit="10" fill="none" fill-rule="evenodd"/><path d="M2168 1406 2168 1415" stroke="#262626" stroke-width="2.29167" stroke-linejoin="round" stroke-miterlimit="10" fill="none" fill-rule="evenodd"/><path d="M2464 1406 2464 1415" stroke="#262626" stroke-width="2.29167" stroke-linejoin="round" stroke-miterlimit="10" fill="none" fill-rule="evenodd"/><text fill="#262626" font-family="Arial,Arial_MSFontService,sans-serif" font-weight="400" font-size="37" transform="matrix(1 0 0 1 1852.92 1864)">-</text><path d="M1871.36 1862.22C1871.36 1862.22 1871.36 1862.01 1871.36 1861.59 1872.17 1860.1 1872.79 1858.82 1873.4 1857.34 1874.01 1855.85 1874.42 1854.58 1875.03 1853.09 1875.44 1851.81 1875.85 1850.33 1876.26 1848.84L1873.81 1848.84C1872.99 1848.84 1872.17 1849.05 1871.36 1849.69 1870.54 1850.33 1869.93 1850.96 1869.52 1852.03 1869.32 1852.03 1869.32 1852.03 1869.32 1852.03L1868.7 1852.03C1868.5 1852.03 1868.5 1852.03 1868.5 1851.81 1868.5 1851.6 1868.5 1851.6 1868.5 1851.39 1869.32 1850.11 1870.13 1848.84 1871.15 1847.99 1871.97 1846.93 1872.99 1846.5 1874.21 1846.5L1887.48 1846.5C1887.68 1846.5 1887.89 1846.5 1888.09 1846.71 1888.3 1846.93 1888.5 1847.14 1888.5 1847.35 1888.5 1847.78 1888.3 1848.2 1888.09 1848.41 1887.89 1848.63 1887.48 1848.84 1887.07 1848.84L1882.38 1848.84C1881.97 1850.75 1881.77 1852.88 1881.77 1854.79 1881.77 1857.12 1882.17 1859.46 1882.99 1861.38 1883.19 1861.59 1883.19 1861.59 1883.19 1861.8 1883.19 1862.01 1882.99 1862.44 1882.99 1862.65 1882.79 1862.86 1882.58 1863.07 1882.38 1863.29 1881.97 1863.29 1881.77 1863.5 1881.56 1863.5 1880.95 1863.5 1880.34 1862.86 1880.13 1861.8 1879.93 1860.74 1879.93 1859.68 1879.93 1858.61 1879.93 1857.12 1879.93 1855.64 1880.13 1854.36 1880.34 1853.09 1880.74 1851.18 1881.36 1848.84L1877.28 1848.84C1875.44 1856.91 1874.21 1861.59 1873.81 1862.44 1873.4 1863.07 1872.99 1863.5 1872.38 1863.5 1872.17 1863.5 1871.77 1863.29 1871.56 1863.07 1871.36 1862.86 1871.36 1862.65 1871.36 1862.22Z" stroke="#000000" stroke-width="0" stroke-linejoin="round" stroke-miterlimit="10" fill="#262626" fill-rule="evenodd"/><text fill="#262626" font-family="Arial,Arial_MSFontService,sans-serif" font-weight="400" font-size="37" transform="matrix(1 0 0 1 2159.43 1864)">0</text><path d="M2453.5 1862.22C2453.5 1862.22 2453.5 1862.01 2453.5 1861.59 2454.36 1860.1 2455 1858.82 2455.64 1857.34 2456.29 1855.85 2456.71 1854.58 2457.36 1853.09 2457.79 1851.81 2458.21 1850.33 2458.64 1848.84L2456.07 1848.84C2455.21 1848.84 2454.36 1849.05 2453.5 1849.69 2452.64 1850.33 2452 1850.96 2451.57 1852.03 2451.36 1852.03 2451.36 1852.03 2451.36 1852.03L2450.71 1852.03C2450.5 1852.03 2450.5 1852.03 2450.5 1851.81 2450.5 1851.6 2450.5 1851.6 2450.5 1851.39 2451.36 1850.11 2452.21 1848.84 2453.29 1847.99 2454.14 1846.93 2455.21 1846.5 2456.5 1846.5L2470.43 1846.5C2470.64 1846.5 2470.86 1846.5 2471.07 1846.71 2471.29 1846.93 2471.5 1847.14 2471.5 1847.35 2471.5 1847.78 2471.29 1848.2 2471.07 1848.41 2470.86 1848.63 2470.43 1848.84 2470 1848.84L2465.07 1848.84C2464.64 1850.75 2464.43 1852.88 2464.43 1854.79 2464.43 1857.12 2464.86 1859.46 2465.71 1861.38 2465.93 1861.59 2465.93 1861.59 2465.93 1861.8 2465.93 1862.01 2465.71 1862.44 2465.71 1862.65 2465.5 1862.86 2465.29 1863.07 2465.07 1863.29 2464.64 1863.29 2464.43 1863.5 2464.21 1863.5 2463.57 1863.5 2462.93 1862.86 2462.71 1861.8 2462.5 1860.74 2462.5 1859.68 2462.5 1858.61 2462.5 1857.12 2462.5 1855.64 2462.71 1854.36 2462.93 1853.09 2463.36 1851.18 2464 1848.84L2459.71 1848.84C2457.79 1856.91 2456.5 1861.59 2456.07 1862.44 2455.64 1863.07 2455.21 1863.5 2454.57 1863.5 2454.36 1863.5 2453.93 1863.29 2453.71 1863.07 2453.5 1862.86 2453.5 1862.65 2453.5 1862.22Z" stroke="#000000" stroke-width="0" stroke-linejoin="round" stroke-miterlimit="10" fill="#262626" fill-rule="evenodd"/><text fill="#262626" font-family="Arial,Arial_MSFontService,sans-serif" font-weight="400" font-size="41" transform="matrix(1 0 0 1 2024.8 1920)">Frequency [Hz]</text><path d="M0 0 0.000360892 405" stroke="#262626" stroke-width="2.29167" stroke-linejoin="round" stroke-miterlimit="10" fill="none" fill-rule="evenodd" transform="matrix(1 0 0 -1 1698 1811)"/><path d="M0 0 0.000360892 405" stroke="#262626" stroke-width="2.29167" stroke-linejoin="round" stroke-miterlimit="10" fill="none" fill-rule="evenodd" transform="matrix(1 0 0 -1 2638 1811)"/><path d="M1698 1753 1707 1753" stroke="#262626" stroke-width="2.29167" stroke-linejoin="round" stroke-miterlimit="10" fill="none" fill-rule="evenodd"/><path d="M1698 1608 1707 1608" stroke="#262626" stroke-width="2.29167" stroke-linejoin="round" stroke-miterlimit="10" fill="none" fill-rule="evenodd"/><path d="M1698 1464 1707 1464" stroke="#262626" stroke-width="2.29167" stroke-linejoin="round" stroke-miterlimit="10" fill="none" fill-rule="evenodd"/><path d="M0 0 8.99993 0.000360892" stroke="#262626" stroke-width="2.29167" stroke-linejoin="round" stroke-miterlimit="10" fill="none" fill-rule="evenodd" transform="matrix(-1 0 0 1 2638 1753)"/><path d="M0 0 8.99993 0.000360892" stroke="#262626" stroke-width="2.29167" stroke-linejoin="round" stroke-miterlimit="10" fill="none" fill-rule="evenodd" transform="matrix(-1 0 0 1 2638 1608)"/><path d="M0 0 8.99993 0.000360892" stroke="#262626" stroke-width="2.29167" stroke-linejoin="round" stroke-miterlimit="10" fill="none" fill-rule="evenodd" transform="matrix(-1 0 0 1 2638 1464)"/><text fill="#262626" font-family="Arial,Arial_MSFontService,sans-serif" font-weight="400" font-size="37" transform="matrix(1 0 0 1 1663.29 1767)">0<tspan font-size="37" x="-31.5105" y="-141">0.5</tspan><tspan font-size="37" x="0" y="-287">1</tspan></text><text fill="#262626" font-family="Arial,Arial_MSFontService,sans-serif" font-weight="400" font-size="41" transform="matrix(-1.83697e-16 -1 1 -1.83697e-16 1617.05 1644)">X<tspan font-size="41" x="24" y="4.40873e-15">(</tspan><tspan font-size="41" x="38" y="-0.000244141">f</tspan><tspan font-size="41" x="52" y="9.55225e-15">)</tspan></text><path d="M1698.5 1744.47 1699.64 1744.47 1700.22 1744.47 1701.36 1744.47 1702.51 1744.47 1703.08 1744.47 1704.22 1744.47 1704.8 1744.47 1705.94 1744.47 1707.09 1744.47 1707.66 1744.47 1708.8 1744.47 1709.95 1744.47 1710.52 1745.05 1711.67 1745.05 1712.81 1745.05 1713.38 1745.05 1714.53 1745.05 1715.67 1745.05 1716.25 1745.05 1717.39 1745.05 1717.96 1745.05 1719.11 1745.05 1720.25 1745.05 1720.83 1745.05 1721.97 1745.05 1723.12 1745.05 1724.26 1745.05 1724.83 1745.05 1725.98 1745.05 1726.55 1745.62 1727.7 1745.62 1728.27 1745.62 1729.41 1745.62 1730.56 1745.62 1731.7 1745.62 1732.28 1745.62 1733.42 1745.62 1734.57 1745.62 1735.14 1745.62 1736.28 1745.62 1737.43 1745.62 1738 1745.62 1739.15 1745.62 1739.72 1745.62 1740.86 1745.62 1742.01 1745.62 1742.58 1745.62 1743.73 1745.62 1744.87 1745.62 1745.44 1745.62 1746.59 1745.62 1747.73 1745.62 1748.31 1745.62 1749.45 1745.62 1750.02 1745.62 1751.17 1745.62 1752.31 1745.62 1752.88 1745.62 1754.03 1745.62 1755.17 1745.62 1755.75 1745.62 1756.89 1745.62 1758.04 1745.62 1758.61 1745.62 1759.75 1745.62 1760.33 1745.62 1761.47 1745.62 1762.62 1745.62 1763.19 1745.62 1764.33 1745.62 1765.48 1745.62 1766.05 1745.62 1767.2 1745.62 1768.34 1745.62 1768.91 1745.62 1770.06 1745.62 1771.2 1745.62 1771.78 1745.62 1772.92 1745.62 1773.49 1745.62 1774.64 1745.05 1775.78 1745.05 1776.36 1745.05 1777.5 1745.05 1778.65 1745.05 1779.22 1745.05 1780.36 1745.05 1781.51 1745.05 1782.08 1745.05 1783.23 1745.05 1783.8 1745.05 1784.94 1745.05 1786.09 1744.47 1786.66 1744.47 1787.81 1744.47 1788.95 1744.47 1790.1 1744.47 1790.67 1744.47 1791.81 1744.47 1792.96 1744.47 1793.53 1744.47 1794.68 1744.47 1795.25 1744.47 1796.39 1744.47 1797.54 1744.47 1798.11 1744.47 1799.26 1743.9 1800.4 1743.9 1800.97 1743.9 1802.12 1743.9 1803.26 1743.9 1803.83 1743.9 1804.98 1743.9 1805.55 1743.9 1806.7 1743.9 1807.84 1743.9 1808.41 1743.9 1809.56 1743.9 1810.7 1743.33 1811.28 1743.33 1812.42 1743.33 1813.57 1743.33 1814.14 1743.33 1815.28 1743.33 1816.43 1743.33 1817 1743.33 1818.15 1742.75 1818.72 1742.75 1819.86 1742.75 1821.01 1742.75 1821.58 1742.75 1822.73 1742.75 1823.87 1742.75 1824.44 1742.75 1825.59 1742.75 1826.73 1742.75 1827.31 1742.75 1828.45 1742.75 1829.02 1742.75 1830.17 1742.75 1831.31 1742.18 1831.89 1742.18 1833.03 1742.18 1834.18 1742.18 1834.75 1742.18 1835.89 1742.18 1837.04 1742.18 1838.18 1742.18 1838.76 1742.18 1839.9 1742.18 1840.47 1742.18 1841.62 1742.18 1842.19 1742.18 1843.34 1742.18 1844.48 1742.18 1845.63 1742.18 1846.2 1742.18 1847.34 1742.18 1848.49 1742.18 1849.06 1742.18 1850.21 1742.18 1850.78 1742.18 1851.92 1742.18 1853.07 1742.18 1853.64 1742.18 1854.79 1742.18 1855.93 1742.18 1856.5 1742.18 1857.65 1742.18 1858.79 1742.18 1859.36 1742.18 1860.51 1742.18 1861.08 1742.18 1862.23 1742.18 1863.37 1742.18 1863.94 1742.75 1865.09 1742.75 1866.23 1742.75 1866.81 1742.75 1867.95 1742.75 1869.1 1742.75 1869.67 1742.75 1870.81 1742.75 1871.96 1742.75 1872.53 1742.75 1873.68 1743.33 1874.25 1743.33 1875.39 1743.33 1876.54 1743.33 1877.11 1743.33 1878.26 1743.9 1879.4 1743.9 1879.97 1743.9 1881.12 1743.9 1882.26 1743.9 1882.84 1743.9 1883.98 1744.47 1884.55 1744.47 1885.7 1744.47 1886.84 1744.47 1887.42 1744.47 1888.56 1744.47 1889.71 1745.05 1890.28 1745.05 1891.42 1745.05 1892.57 1745.62 1893.71 1745.62 1894.29 1745.62 1895.43 1745.62 1896 1745.62 1897.15 1746.19 1897.72 1746.19 1898.87 1746.19 1900.01 1746.19 1901.16 1746.77 1901.73 1746.77 1902.87 1746.77 1904.02 1747.34 1904.59 1747.34 1905.74 1747.34 1906.31 1747.34 1907.45 1747.91 1908.6 1747.91 1909.17 1747.91 1910.31 1747.91 1911.46 1748.49 1912.03 1748.49 1913.18 1748.49 1914.32 1749.06 1914.89 1749.06 1916.04 1749.06 1917.18 1749.06 1917.76 1749.63 1918.9 1749.63 1919.47 1749.63 1920.62 1749.63 1921.76 1749.63 1922.34 1750.21 1923.48 1750.21 1924.63 1750.21 1925.2 1750.78 1926.34 1750.78 1927.49 1750.78 1928.06 1750.78 1929.21 1750.78 1929.78 1751.35 1930.92 1751.35 1932.07 1751.35 1932.64 1751.35 1933.79 1751.93 1934.93 1751.93 1935.5 1751.93 1936.65 1751.93 1937.79 1751.93 1938.37 1751.93 1939.51 1751.93 1940.66 1751.93 1941.23 1751.93 1942.37 1751.93 1942.95 1752.5 1944.09 1752.5 1945.24 1752.5 1945.81 1752.5 1946.95 1752.5 1948.1 1752.5 1949.24 1752.5 1949.82 1752.5 1950.96 1751.93 1951.53 1751.93 1952.68 1751.93 1953.25 1751.93 1954.4 1751.93 1955.54 1751.93 1956.11 1751.93 1957.26 1751.93 1958.4 1751.35 1959.55 1751.35 1960.12 1751.35 1961.26 1750.78 1961.84 1750.78 1962.98 1750.78 1963.55 1750.78 1964.7 1750.21 1965.84 1750.21 1966.99 1749.63 1967.56 1749.63 1968.71 1749.06 1969.85 1749.06 1970.42 1748.49 1971.57 1748.49 1972.71 1747.91 1973.29 1747.91 1974.43 1747.34 1975 1746.77 1976.15 1746.77 1977.29 1746.19 1977.87 1745.62 1979.01 1745.62 1980.16 1745.05 1980.73 1744.47 1981.87 1743.9 1983.02 1743.33 1983.59 1742.75 1984.74 1742.18 1985.31 1741.61 1986.45 1741.03 1987.6 1740.46 1988.17 1739.89 1989.32 1739.31 1990.46 1738.74 1991.03 1737.59 1992.18 1737.02 1993.32 1736.45 1993.9 1735.87 1995.04 1734.73 1996.19 1734.15 1996.76 1733.01 1997.9 1732.43 1998.48 1731.86 1999.62 1730.71 2000.77 1730.14 2001.34 1728.99 2002.48 1727.85 2003.63 1727.27 2004.2 1726.13 2005.35 1724.98 2006.49 1724.41 2007.06 1723.26 2008.21 1722.11 2008.78 1720.97 2009.93 1719.82 2011.07 1718.67 2011.64 1717.53 2012.79 1716.38 2013.93 1715.23 2015.08 1714.08 2015.65 1712.94 2016.79 1711.79 2017.94 1710.07 2018.51 1708.92 2019.66 1707.78 2020.23 1706.63 2021.37 1704.91 2022.52 1703.76 2023.09 1702.04 2024.24 1700.9 2025.38 1699.18 2025.95 1698.03 2027.1 1696.31 2028.24 1695.16 2028.82 1693.44 2029.96 1691.72 2030.53 1690 2031.68 1688.86 2032.82 1687.14 2033.4 1685.42 2034.54 1683.7 2035.69 1681.98 2036.26 1680.26 2037.4 1678.54 2038.55 1676.82 2039.12 1675.1 2040.27 1673.38 2041.41 1671.66 2041.98 1669.94 2043.13 1668.22 2043.7 1666.5 2044.85 1664.2 2045.99 1662.48 2046.56 1660.76 2047.71 1659.04 2048.85 1656.75 2049.43 1655.03 2050.57 1653.31 2051.72 1651.02 2052.29 1649.3 2053.43 1647 2054.01 1645.28 2055.15 1642.99 2056.3 1641.27 2056.87 1638.97 2058.01 1637.25 2059.16 1634.96 2059.73 1633.24 2060.88 1630.95 2062.02 1629.23 2062.59 1626.93 2063.74 1624.64 2064.31 1622.92 2065.46 1620.63 2066.6 1618.33 2067.17 1616.04 2068.32 1614.32 2069.46 1612.03 2070.61 1609.73 2071.18 1607.44 2072.32 1605.72 2073.47 1603.43 2074.04 1601.13 2075.19 1598.84 2075.76 1596.55 2076.9 1594.83 2078.05 1592.53 2078.62 1590.24 2079.77 1587.95 2080.91 1585.65 2081.48 1583.93 2082.63 1581.64 2083.77 1579.35 2084.35 1577.05 2085.49 1575.33 2086.06 1573.04 2087.21 1570.75 2088.35 1568.45 2088.93 1566.73 2090.07 1564.44 2091.22 1562.14 2091.79 1559.85 2092.93 1557.56 2094.08 1555.84 2094.65 1553.54 2095.8 1551.82 2096.94 1549.53 2097.51 1547.24 2098.66 1545.52 2099.23 1543.22 2100.38 1540.93 2101.52 1539.21 2102.09 1536.92 2103.24 1535.2 2104.38 1532.9 2104.96 1531.18 2106.1 1528.89 2107.25 1527.17 2107.82 1524.88 2108.96 1523.16 2109.54 1521.44 2110.68 1519.14 2111.83 1517.42 2112.4 1515.7 2113.54 1513.98 2114.69 1511.69 2115.26 1509.97 2116.41 1508.25 2117.55 1506.53 2118.69 1504.81 2119.27 1503.09 2120.41 1501.37 2120.98 1499.65 2122.13 1498.5 2122.7 1496.78 2123.85 1495.06 2124.99 1493.34 2126.14 1491.62 2126.71 1490.47 2127.85 1488.75 2129 1487.61 2129.57 1485.89 2130.72 1484.74 2131.29 1483.02 2132.43 1481.87 2133.58 1480.73 2134.15 1479.01 2135.3 1477.86 2136.44 1476.71 2137.01 1475.57 2138.16 1474.42 2139.3 1473.27 2139.88 1472.13 2141.02 1470.98 2142.17 1470.41 2142.74 1469.26 2143.88 1468.11 2144.46 1466.97 2145.6 1466.39 2146.75 1465.25 2147.32 1464.67 2148.46 1463.53 2149.61 1462.95 2150.18 1462.38 2151.33 1461.81 2152.47 1460.66 2153.04 1460.09 2154.19 1460.09 2154.76 1458.94 2155.91 1458.94 2157.05 1458.37 2157.62 1457.79 2158.77 1457.22 2159.91 1457.22 2160.49 1456.65 2161.63 1456.07 2162.78 1456.07 2163.35 1456.07 2164.49 1455.5 2165.07 1455.5 2166.21 1455.5 2167.36 1455.5 2167.93 1455.5 2169.07 1455.5 2170.22 1455.5 2170.79 1455.5 2171.93 1455.5 2173.08 1455.5 2174.22 1456.07 2174.8 1456.07 2175.94 1456.07 2176.51 1456.65 2177.66 1457.22 2178.23 1457.22 2179.38 1457.79 2180.52 1458.37 2181.09 1458.94 2182.24 1458.94 2183.38 1460.09 2184.53 1460.09 2185.1 1460.66 2186.25 1461.81 2186.82 1462.38 2187.96 1462.95 2188.54 1463.53 2189.68 1464.67 2190.83 1465.25 2191.97 1466.39 2192.54 1466.97 2193.69 1468.11 2194.83 1469.26 2195.41 1470.41 2196.55 1470.98 2197.7 1472.13 2198.27 1473.27 2199.41 1474.42 2199.99 1475.57 2201.13 1476.71 2202.28 1477.86 2202.85 1479.01 2203.99 1480.73 2205.14 1481.87 2205.71 1483.02 2206.86 1484.74 2208 1485.89 2208.57 1487.61 2209.72 1488.75 2210.29 1490.47 2211.44 1491.62 2212.58 1493.34 2213.15 1495.06 2214.3 1496.78 2215.44 1498.5 2216.02 1499.65 2217.16 1501.37 2218.31 1503.09 2218.88 1504.81 2220.02 1506.53 2221.17 1508.25 2221.74 1509.97 2222.89 1511.69 2223.46 1513.98 2224.6 1515.7 2225.75 1517.42 2226.32 1519.14 2227.46 1521.44 2228.61 1523.16 2229.18 1524.88 2230.33 1527.17 2231.47 1528.89 2232.04 1531.18 2233.19 1532.9 2233.76 1535.2 2234.91 1536.92 2236.05 1539.21 2236.62 1540.93 2237.77 1543.22 2238.91 1545.52 2240.06 1547.24 2240.63 1549.53 2241.78 1551.82 2242.92 1553.54 2243.49 1555.84 2244.64 1557.56 2245.21 1559.85 2246.36 1562.14 2247.5 1564.44 2248.07 1566.73 2249.22 1568.45 2250.36 1570.75 2250.94 1573.04 2252.08 1575.33 2253.23 1577.05 2253.8 1579.35 2254.94 1581.64 2255.52 1583.93 2256.66 1585.65 2257.81 1587.95 2258.38 1590.24 2259.52 1592.53 2260.67 1594.83 2261.24 1596.55 2262.39 1598.84 2263.53 1601.13 2264.1 1603.43 2265.25 1605.72 2265.82 1607.44 2266.97 1609.73 2268.11 1612.03 2268.68 1614.32 2269.83 1616.04 2270.97 1618.33 2271.55 1620.63 2272.69 1622.92 2273.83 1624.64 2274.41 1626.93 2275.55 1629.23 2276.7 1630.95 2277.27 1633.24 2278.41 1634.96 2278.99 1637.25 2280.13 1638.97 2281.28 1641.27 2281.85 1642.99 2282.99 1645.28 2284.14 1647 2284.71 1649.3 2285.86 1651.02 2287 1653.31 2287.57 1655.03 2288.72 1656.75 2289.29 1659.04 2290.44 1660.76 2291.58 1662.48 2292.15 1664.2 2293.3 1666.5 2294.44 1668.22 2295.59 1669.94 2296.16 1671.66 2297.31 1673.38 2298.45 1675.1 2299.02 1676.82 2300.17 1678.54 2300.74 1680.26 2301.89 1681.98 2303.03 1683.7 2303.6 1685.42 2304.75 1687.14 2305.89 1688.86 2306.47 1690 2307.61 1691.72 2308.76 1693.44 2309.33 1695.16 2310.47 1696.31 2311.05 1698.03 2312.19 1699.18 2313.34 1700.9 2313.91 1702.04 2315.05 1703.76 2316.2 1704.91 2316.77 1706.63 2317.92 1707.78 2319.06 1708.92 2319.63 1710.07 2320.78 1711.79 2321.92 1712.94 2322.5 1714.08 2323.64 1715.23 2324.21 1716.38 2325.36 1717.53 2326.5 1718.67 2327.07 1719.82 2328.22 1720.97 2329.36 1722.11 2329.94 1723.26 2331.08 1724.41 2332.23 1724.98 2332.8 1726.13 2333.94 1727.27 2334.52 1727.85 2335.66 1728.99 2336.81 1730.14 2337.38 1730.71 2338.52 1731.86 2339.67 1732.43 2340.24 1733.01 2341.39 1734.15 2342.53 1734.73 2343.1 1735.87 2344.25 1736.45 2345.39 1737.02 2345.97 1737.59 2347.11 1738.74 2347.68 1739.31 2348.83 1739.89 2349.97 1740.46 2351.12 1741.03 2351.69 1741.61 2352.84 1742.18 2353.98 1742.75 2354.55 1743.33 2355.7 1743.9 2356.27 1744.47 2357.42 1745.05 2358.56 1745.62 2359.13 1745.62 2360.28 1746.19 2361.42 1746.77 2362 1746.77 2363.14 1747.34 2364.29 1747.91 2364.86 1747.91 2366 1748.49 2366.58 1748.49 2367.72 1749.06 2368.87 1749.06 2369.44 1749.63 2370.58 1749.63 2371.73 1750.21 2372.3 1750.21 2373.45 1750.78 2374.59 1750.78 2375.16 1750.78 2376.31 1750.78 2377.45 1751.35 2378.03 1751.35 2379.17 1751.35 2379.74 1751.93 2380.89 1751.93 2382.03 1751.93 2382.6 1751.93 2383.75 1751.93 2384.89 1751.93 2385.47 1751.93 2386.61 1751.93 2387.76 1752.5 2388.33 1752.5 2389.47 1752.5 2390.05 1752.5 2391.19 1752.5 2392.34 1752.5 2392.91 1752.5 2394.05 1752.5 2395.2 1751.93 2395.77 1751.93 2396.92 1751.93 2398.06 1751.93 2399.21 1751.93 2399.78 1751.93 2400.92 1751.93 2401.5 1751.93 2402.64 1751.93 2403.21 1751.93 2404.36 1751.35 2405.5 1751.35 2406.08 1751.35 2407.22 1751.35 2408.37 1750.78 2409.51 1750.78 2410.08 1750.78 2411.23 1750.78 2411.8 1750.78 2412.95 1750.21 2413.52 1750.21 2414.66 1750.21 2415.81 1749.63 2416.95 1749.63 2417.53 1749.63 2418.67 1749.63 2419.82 1749.63 2420.39 1749.06 2421.53 1749.06 2422.68 1749.06 2423.25 1749.06 2424.4 1748.49 2424.97 1748.49 2426.11 1748.49 2427.26 1747.91 2427.83 1747.91 2428.98 1747.91 2430.12 1747.91 2430.69 1747.34 2431.84 1747.34 2432.98 1747.34 2433.55 1747.34 2434.7 1746.77 2435.27 1746.77 2436.42 1746.77 2437.56 1746.19 2438.13 1746.19 2439.28 1746.19 2440.42 1746.19 2441 1745.62 2442.14 1745.62 2443.29 1745.62 2443.86 1745.62 2445 1745.62 2446.15 1745.05 2446.72 1745.05 2447.87 1745.05 2448.44 1744.47 2449.58 1744.47 2450.73 1744.47 2451.3 1744.47 2452.45 1744.47 2453.59 1744.47 2454.16 1743.9 2455.31 1743.9 2456.45 1743.9 2457.03 1743.9 2458.17 1743.9 2458.74 1743.9 2459.89 1743.33 2461.03 1743.33 2461.61 1743.33 2462.75 1743.33 2463.9 1743.33 2465.04 1742.75 2465.61 1742.75 2466.76 1742.75 2467.33 1742.75 2468.48 1742.75 2469.05 1742.75 2470.19 1742.75 2471.34 1742.75 2472.48 1742.75 2473.06 1742.75 2474.2 1742.18 2475.35 1742.18 2475.92 1742.18 2477.06 1742.18 2478.21 1742.18 2478.78 1742.18 2479.93 1742.18 2480.5 1742.18 2481.64 1742.18 2482.79 1742.18 2483.36 1742.18 2484.5 1742.18 2485.65 1742.18 2486.22 1742.18 2487.37 1742.18 2488.51 1742.18 2489.08 1742.18 2490.23 1742.18 2490.8 1742.18 2491.95 1742.18 2493.09 1742.18 2493.66 1742.18 2494.81 1742.18 2495.95 1742.18 2496.53 1742.18 2497.67 1742.18 2498.82 1742.18 2499.39 1742.18 2500.53 1742.18 2501.68 1742.18 2502.25 1742.18 2503.4 1742.18 2503.97 1742.18 2505.11 1742.18 2506.26 1742.18 2506.83 1742.75 2507.98 1742.75 2509.12 1742.75 2509.69 1742.75 2510.84 1742.75 2511.98 1742.75 2512.56 1742.75 2513.7 1742.75 2514.27 1742.75 2515.42 1742.75 2516.56 1742.75 2517.14 1742.75 2518.28 1742.75 2519.43 1742.75 2520.57 1743.33 2521.14 1743.33 2522.29 1743.33 2523.43 1743.33 2524.01 1743.33 2525.15 1743.33 2525.72 1743.33 2526.87 1743.33 2528.01 1743.9 2528.59 1743.9 2529.73 1743.9 2530.88 1743.9 2531.45 1743.9 2532.59 1743.9 2533.74 1743.9 2534.31 1743.9 2535.46 1743.9 2536.03 1743.9 2537.17 1743.9 2538.32 1743.9 2538.89 1744.47 2540.03 1744.47 2541.18 1744.47 2541.75 1744.47 2542.9 1744.47 2544.04 1744.47 2544.61 1744.47 2545.76 1744.47 2546.9 1744.47 2547.48 1744.47 2548.62 1744.47 2549.19 1744.47 2550.34 1744.47 2551.48 1744.47 2552.06 1745.05 2553.2 1745.05 2554.35 1745.05 2554.92 1745.05 2556.06 1745.05 2557.21 1745.05 2557.78 1745.05 2558.93 1745.05 2559.5 1745.05 2560.64 1745.05 2561.79 1745.05 2562.36 1745.05 2563.51 1745.62 2564.65 1745.62 2565.22 1745.62 2566.37 1745.62 2567.51 1745.62 2568.09 1745.62 2569.23 1745.62 2569.8 1745.62 2570.95 1745.62 2572.09 1745.62 2572.67 1745.62 2573.81 1745.62 2574.96 1745.62 2576.1 1745.62 2576.67 1745.62 2577.82 1745.62 2578.96 1745.62 2579.54 1745.62 2580.68 1745.62 2581.25 1745.62 2582.4 1745.62 2582.97 1745.62 2584.12 1745.62 2585.26 1745.62 2586.41 1745.62 2586.98 1745.62 2588.12 1745.62 2589.27 1745.62 2589.84 1745.62 2590.98 1745.62 2591.56 1745.62 2592.7 1745.62 2593.85 1745.62 2594.42 1745.62 2595.56 1745.62 2596.71 1745.62 2597.28 1745.62 2598.43 1745.62 2599.57 1745.62 2600.14 1745.62 2601.29 1745.62 2602.43 1745.62 2603.01 1745.62 2604.15 1745.62 2604.72 1745.62 2605.87 1745.62 2607.01 1745.62 2607.59 1745.62 2608.73 1745.62 2609.88 1745.62 2610.45 1745.62 2611.59 1745.05 2612.74 1745.05 2613.31 1745.05 2614.46 1745.05 2615.03 1745.05 2616.17 1745.05 2617.32 1745.05 2617.89 1745.05 2619.04 1745.05 2620.18 1745.05 2620.75 1745.05 2621.9 1745.05 2623.04 1745.05 2624.19 1745.05 2624.76 1745.05 2625.91 1745.05 2626.48 1745.05 2627.62 1744.47 2628.2 1744.47 2629.34 1744.47 2630.49 1744.47 2631.06 1744.47 2632.2 1744.47 2633.35 1744.47 2634.49 1744.47 2635.07 1744.47 2636.21 1744.47 2636.78 1744.47 2637.93 1744.47 2638.5 1744.47" stroke="#0072BD" stroke-width="9.16667" stroke-linejoin="round" stroke-miterlimit="10" fill="none" fill-rule="evenodd"/></g></svg>