<svg width="1076" height="550" xmlns="http://www.w3.org/2000/svg" xmlns:xlink="http://www.w3.org/1999/xlink" xml:space="preserve" overflow="hidden"><defs><clipPath id="clip0"><rect x="1608" y="366" width="1076" height="550"/></clipPath></defs><g clip-path="url(#clip0)" transform="translate(-1608 -366)"><path d="M1710 772 2651 772" stroke="#262626" stroke-width="2.29167" stroke-linejoin="round" stroke-miterlimit="10" fill="none" fill-rule="evenodd"/><path d="M1710 367 2651 367" stroke="#262626" stroke-width="2.29167" stroke-linejoin="round" stroke-miterlimit="10" fill="none" fill-rule="evenodd"/><path d="M0 0 0.000360892 8.99993" stroke="#262626" stroke-width="2.29167" stroke-linejoin="round" stroke-miterlimit="10" fill="none" fill-rule="evenodd" transform="matrix(1 0 0 -1 1710 772)"/><path d="M0 0 0.000360892 8.99993" stroke="#262626" stroke-width="2.29167" stroke-linejoin="round" stroke-miterlimit="10" fill="none" fill-rule="evenodd" transform="matrix(1 0 0 -1 1945 772)"/><path d="M0 0 0.000360892 8.99993" stroke="#262626" stroke-width="2.29167" stroke-linejoin="round" stroke-miterlimit="10" fill="none" fill-rule="evenodd" transform="matrix(1 0 0 -1 2180 772)"/><path d="M0 0 0.000360892 8.99993" stroke="#262626" stroke-width="2.29167" stroke-linejoin="round" stroke-miterlimit="10" fill="none" fill-rule="evenodd" transform="matrix(1 0 0 -1 2416 772)"/><path d="M0 0 0.000360892 8.99993" stroke="#262626" stroke-width="2.29167" stroke-linejoin="round" stroke-miterlimit="10" fill="none" fill-rule="evenodd" transform="matrix(1 0 0 -1 2651 772)"/><path d="M1710 367 1710 376" stroke="#262626" stroke-width="2.29167" stroke-linejoin="round" stroke-miterlimit="10" fill="none" fill-rule="evenodd"/><path d="M1945 367 1945 376" stroke="#262626" stroke-width="2.29167" stroke-linejoin="round" stroke-miterlimit="10" fill="none" fill-rule="evenodd"/><path d="M2180 367 2180 376" stroke="#262626" stroke-width="2.29167" stroke-linejoin="round" stroke-miterlimit="10" fill="none" fill-rule="evenodd"/><path d="M2416 367 2416 376" stroke="#262626" stroke-width="2.29167" stroke-linejoin="round" stroke-miterlimit="10" fill="none" fill-rule="evenodd"/><path d="M2651 367 2651 376" stroke="#262626" stroke-width="2.29167" stroke-linejoin="round" stroke-miterlimit="10" fill="none" fill-rule="evenodd"/><text fill="#262626" font-family="Arial,Arial_MSFontService,sans-serif" font-weight="400" font-size="37" transform="matrix(1 0 0 1 1692.93 825)">-<tspan font-size="37" x="12.0313" y="0">2</tspan><tspan font-size="37" x="234.323" y="0">-</tspan>1<tspan font-size="37" x="478.958" y="0">0</tspan><tspan font-size="37" x="713.282" y="0">1</tspan><tspan font-size="37" x="947.604" y="0">2</tspan><tspan font-size="41" x="344.323" y="56">Time [seconds]</tspan></text><path d="M0 0 0.000360892 405" stroke="#262626" stroke-width="2.29167" stroke-linejoin="round" stroke-miterlimit="10" fill="none" fill-rule="evenodd" transform="matrix(1 0 0 -1 1710 772)"/><path d="M0 0 0.000360892 405" stroke="#262626" stroke-width="2.29167" stroke-linejoin="round" stroke-miterlimit="10" fill="none" fill-rule="evenodd" transform="matrix(1 0 0 -1 2651 772)"/><path d="M1710 704 1719 704" stroke="#262626" stroke-width="2.29167" stroke-linejoin="round" stroke-miterlimit="10" fill="none" fill-rule="evenodd"/><path d="M1710 569 1719 569" stroke="#262626" stroke-width="2.29167" stroke-linejoin="round" stroke-miterlimit="10" fill="none" fill-rule="evenodd"/><path d="M1710 434 1719 434.001" stroke="#262626" stroke-width="2.29167" stroke-linejoin="round" stroke-miterlimit="10" fill="none" fill-rule="evenodd"/><path d="M0 0 8.99993 0.000360892" stroke="#262626" stroke-width="2.29167" stroke-linejoin="round" stroke-miterlimit="10" fill="none" fill-rule="evenodd" transform="matrix(-1 0 0 1 2651 704)"/><path d="M0 0 8.99993 0.000360892" stroke="#262626" stroke-width="2.29167" stroke-linejoin="round" stroke-miterlimit="10" fill="none" fill-rule="evenodd" transform="matrix(-1 0 0 1 2651 569)"/><path d="M0 0 8.99993 0.000360892" stroke="#262626" stroke-width="2.29167" stroke-linejoin="round" stroke-miterlimit="10" fill="none" fill-rule="evenodd" transform="matrix(-1 0 0 1 2651 434)"/><text fill="#262626" font-family="Arial,Arial_MSFontService,sans-serif" font-weight="400" font-size="37" transform="matrix(1 0 0 1 1675.74 721)">0<tspan font-size="37" x="0" y="-134">1</tspan><tspan font-size="37" x="0" y="-270">2</tspan></text><text fill="#262626" font-family="Arial,Arial_MSFontService,sans-serif" font-weight="400" font-size="41" transform="matrix(-1.83697e-16 -1 1 -1.83697e-16 1661.01 598)">x<tspan font-size="41" x="14" y="2.57176e-15">(</tspan><tspan font-size="41" x="28" y="-0.00012207">t</tspan><tspan font-size="41" x="38" y="6.98049e-15">)</tspan></text><path d="M1710.5 704.5 1711.65 704.5 1712.22 704.5 1713.37 704.5 1714.51 704.5 1715.08 704.5 1716.23 704.5 1716.8 704.5 1717.95 704.5 1719.1 704.5 1719.67 704.5 1720.82 704.5 1721.96 704.5 1722.53 704.5 1723.68 704.5 1724.83 704.5 1725.4 704.5 1726.55 704.5 1727.69 704.5 1728.27 704.5 1729.41 704.5 1729.98 704.5 1731.13 704.5 1732.28 704.5 1732.85 704.5 1734 704.5 1735.14 704.5 1736.29 704.5 1736.86 704.5 1738.01 704.5 1738.58 704.5 1739.73 704.5 1740.3 704.5 1741.45 704.5 1742.59 704.5 1743.74 704.5 1744.31 704.5 1745.46 704.5 1746.6 704.5 1747.18 704.5 1748.32 704.5 1749.47 704.5 1750.04 704.5 1751.19 704.5 1751.76 704.5 1752.91 704.5 1754.05 704.5 1754.63 704.5 1755.77 704.5 1756.92 704.5 1757.49 704.5 1758.64 704.5 1759.79 704.5 1760.36 704.5 1761.5 704.5 1762.08 704.5 1763.22 704.5 1764.37 704.5 1764.94 704.5 1766.09 704.5 1767.24 704.5 1767.81 704.5 1768.95 704.5 1770.1 704.5 1770.67 704.5 1771.82 704.5 1772.39 704.5 1773.54 704.5 1774.69 704.5 1775.26 704.5 1776.4 704.5 1777.55 704.5 1778.12 704.5 1779.27 704.5 1780.42 704.5 1780.99 704.5 1782.14 704.5 1783.28 704.5 1783.85 704.5 1785 704.5 1785.57 704.5 1786.72 704.5 1787.87 704.5 1788.44 704.5 1789.59 704.5 1790.73 704.5 1791.3 704.5 1792.45 704.5 1793.6 704.5 1794.17 704.5 1795.32 704.5 1795.89 704.5 1797.04 704.5 1798.18 704.5 1798.75 704.5 1799.9 704.5 1801.05 704.5 1802.19 704.5 1802.77 704.5 1803.91 704.5 1805.06 704.5 1805.63 704.5 1806.78 704.5 1807.35 704.5 1808.5 704.5 1809.64 704.5 1810.22 704.5 1811.36 704.5 1812.51 704.5 1813.08 704.5 1814.23 704.5 1815.37 704.5 1815.95 704.5 1817.09 704.5 1817.67 704.5 1818.81 704.5 1819.96 704.5 1820.53 704.5 1821.68 704.5 1822.82 704.5 1823.4 704.5 1824.54 704.5 1825.69 704.5 1826.26 704.5 1827.41 704.5 1828.55 704.5 1829.13 704.5 1830.27 704.5 1830.85 704.5 1831.99 704.5 1833.14 704.5 1833.71 704.5 1834.86 704.5 1836 704.5 1836.58 704.5 1837.72 704.5 1838.87 704.5 1839.44 704.5 1840.59 704.5 1841.16 704.5 1842.31 704.5 1843.45 704.5 1844.03 704.5 1845.17 704.5 1846.32 704.5 1846.89 704.5 1848.04 704.5 1849.19 704.5 1850.33 704.5 1850.91 704.5 1852.05 704.5 1852.62 704.5 1853.77 704.5 1854.34 704.5 1855.49 704.5 1856.64 704.5 1857.78 704.5 1858.35 704.5 1859.5 704.5 1860.65 704.5 1861.22 704.5 1862.37 704.5 1862.94 704.5 1864.09 704.5 1865.23 704.5 1865.81 704.5 1866.95 704.5 1868.1 704.5 1868.67 704.5 1869.82 704.5 1870.96 704.5 1871.54 704.5 1872.68 704.5 1873.26 704.5 1874.4 704.5 1875.55 704.5 1876.12 704.5 1877.27 704.5 1878.41 704.5 1878.99 704.5 1880.13 704.5 1881.28 704.5 1881.85 704.5 1883 704.5 1884.14 704.5 1884.72 704.5 1885.86 704.5 1886.44 704.5 1887.58 704.5 1888.73 704.5 1889.3 704.5 1890.45 704.5 1891.59 704.5 1892.17 704.5 1893.31 704.5 1894.46 704.5 1895.03 704.5 1896.18 704.5 1896.75 704.5 1897.9 704.5 1899.04 704.5 1899.62 704.5 1900.76 704.5 1901.91 704.5 1902.48 704.5 1903.63 704.5 1904.77 704.5 1905.92 704.5 1906.49 704.5 1907.64 704.5 1908.21 704.5 1909.36 704.5 1909.93 704.5 1911.08 704.5 1912.22 704.5 1913.37 704.5 1913.94 704.5 1915.09 704.5 1916.24 704.5 1916.81 704.5 1917.96 704.5 1918.53 704.5 1919.67 704.5 1920.82 704.5 1921.39 704.5 1922.54 704.5 1923.69 704.5 1924.26 704.5 1925.41 704.5 1926.55 704.5 1927.12 704.5 1928.27 704.5 1929.42 704.5 1929.99 704.5 1931.14 704.5 1931.71 704.5 1932.86 704.5 1934 704.5 1934.57 704.5 1935.72 704.5 1936.87 704.5 1937.44 704.5 1938.59 704.5 1939.73 704.5 1940.31 704.5 1941.45 704.5 1942.02 704.5 1943.17 704.5 1944.32 704.5 1944.89 704.5 1946.04 704.5 1947.18 704.5 1947.76 704.5 1948.9 704.5 1950.05 704.5 1950.62 704.5 1951.77 704.5 1952.91 703.927 1953.49 703.927 1954.63 703.927 1955.21 703.353 1956.35 703.353 1957.5 702.78 1958.07 702.78 1959.22 702.207 1960.36 702.207 1961.51 701.634 1962.08 701.634 1963.23 701.06 1963.8 700.487 1964.95 700.487 1965.52 699.914 1966.67 699.341 1967.81 698.767 1968.39 698.767 1969.53 697.621 1970.68 697.621 1971.83 697.048 1972.4 695.901 1973.54 695.901 1974.12 694.755 1975.26 694.181 1975.84 693.608 1976.98 693.035 1978.13 692.462 1979.28 691.315 1979.85 690.742 1980.99 690.169 1982.14 689.595 1982.71 688.449 1983.86 687.876 1985.01 686.729 1985.58 686.156 1986.73 685.009 1987.3 684.436 1988.44 683.29 1989.59 682.716 1990.16 681.57 1991.31 680.423 1992.46 679.85 1993.03 678.704 1994.18 677.557 1995.32 676.411 1995.89 675.837 1997.04 674.691 1997.61 673.544 1998.76 672.398 1999.91 671.251 2000.48 670.105 2001.63 668.958 2002.77 667.812 2003.34 666.665 2004.49 665.519 2005.64 664.372 2006.21 663.226 2007.36 661.506 2008.5 660.36 2009.08 659.213 2010.22 658.067 2010.79 656.347 2011.94 655.201 2013.09 654.054 2013.66 652.908 2014.81 651.188 2015.95 650.041 2016.53 648.322 2017.67 647.175 2018.82 645.455 2019.39 644.309 2020.54 643.162 2021.11 641.443 2022.26 640.296 2023.4 638.576 2023.98 636.857 2025.12 635.71 2026.27 633.99 2027.41 632.844 2027.99 631.124 2029.13 629.978 2030.28 628.258 2030.85 626.538 2032 625.392 2032.57 623.672 2033.72 621.952 2034.86 620.232 2035.44 619.086 2036.58 617.366 2037.73 615.646 2038.3 613.927 2039.45 612.207 2040.59 611.06 2041.17 609.341 2042.31 607.621 2042.89 605.901 2044.03 604.181 2045.18 602.462 2045.75 600.742 2046.9 599.595 2048.04 597.876 2048.62 596.156 2049.76 594.436 2050.91 592.716 2051.48 590.997 2052.63 589.277 2053.78 587.557 2054.35 585.837 2055.5 584.118 2056.07 582.398 2057.21 580.678 2058.36 579.532 2058.93 577.812 2060.08 576.092 2061.23 574.373 2061.8 572.653 2062.95 570.933 2064.09 569.213 2064.66 567.494 2065.81 565.774 2066.38 564.054 2067.53 562.334 2068.68 560.615 2069.25 558.895 2070.4 557.175 2071.54 555.455 2072.11 553.736 2073.26 552.016 2074.41 550.296 2074.98 548.576 2076.13 546.857 2076.7 545.137 2077.85 543.99 2078.99 542.271 2079.56 540.551 2080.71 538.831 2081.86 537.111 2083 535.392 2083.58 533.672 2084.72 531.952 2085.87 530.806 2086.44 529.086 2087.59 527.366 2088.16 525.646 2089.31 523.927 2090.45 522.207 2091.03 521.06 2092.17 519.341 2093.32 517.621 2093.89 515.901 2095.04 514.755 2096.18 513.035 2096.76 511.888 2097.9 510.169 2098.48 508.449 2099.62 507.302 2100.77 505.583 2101.34 503.863 2102.49 502.717 2103.63 500.997 2104.21 499.85 2105.35 498.131 2106.5 496.411 2107.07 495.264 2108.22 494.118 2109.36 492.398 2109.94 491.252 2111.08 489.532 2111.66 488.385 2112.8 487.239 2113.95 485.519 2114.52 484.373 2115.67 483.226 2116.81 481.506 2117.39 480.36 2118.53 479.213 2119.68 478.067 2120.25 476.92 2121.4 475.774 2121.97 474.627 2123.12 472.908 2124.26 471.761 2124.84 470.615 2125.98 469.468 2127.13 468.322 2127.7 467.748 2128.85 466.029 2130 464.882 2131.14 464.309 2131.71 463.162 2132.86 462.016 2133.43 460.869 2134.58 460.296 2135.15 459.15 2136.3 458.003 2137.45 456.857 2138.59 456.283 2139.17 455.137 2140.31 454.564 2141.46 453.417 2142.03 452.844 2143.18 451.697 2143.75 451.124 2144.9 449.978 2146.04 449.404 2146.61 448.831 2147.76 448.258 2148.91 447.111 2149.48 446.538 2150.63 445.965 2151.77 445.392 2152.35 444.818 2153.49 443.672 2154.64 443.099 2155.21 442.525 2156.36 441.952 2156.93 441.379 2158.08 441.379 2159.22 440.806 2159.8 440.232 2160.94 439.659 2162.09 439.086 2162.66 438.513 2163.81 438.513 2164.95 437.939 2165.53 437.366 2166.67 437.366 2167.25 436.793 2168.39 436.793 2169.54 436.22 2170.11 436.22 2171.26 435.646 2172.4 435.646 2172.98 435.646 2174.12 435.073 2175.27 435.073 2175.84 435.073 2176.99 435.073 2177.56 435.073 2178.71 435.073 2179.85 435.073 2180.43 434.5 2181.57 434.5 2182.72 435.073 2183.29 435.073 2184.44 435.073 2185.58 435.073 2186.73 435.073 2187.3 435.073 2188.45 435.073 2189.02 435.646 2190.17 435.646 2190.74 435.646 2191.89 436.22 2193.03 436.22 2193.61 436.793 2194.75 436.793 2195.9 437.366 2197.05 437.366 2197.62 437.939 2198.77 438.513 2199.34 438.513 2200.48 439.086 2201.06 439.659 2202.2 440.232 2203.35 440.806 2204.5 441.379 2205.07 441.379 2206.22 441.952 2207.36 442.525 2207.93 443.099 2209.08 443.672 2210.23 444.818 2210.8 445.392 2211.95 445.965 2212.52 446.538 2213.67 447.111 2214.81 448.258 2215.38 448.831 2216.53 449.404 2217.68 449.978 2218.25 451.124 2219.4 451.697 2220.54 452.844 2221.12 453.417 2222.26 454.564 2222.83 455.137 2223.98 456.283 2225.13 456.857 2225.7 458.003 2226.85 459.15 2227.99 460.296 2228.57 460.869 2229.71 462.016 2230.86 463.162 2231.43 464.309 2232.58 464.882 2233.72 466.029 2234.3 467.748 2235.44 468.322 2236.02 469.468 2237.16 470.615 2238.31 471.761 2238.88 472.908 2240.03 474.627 2241.17 475.774 2241.75 476.92 2242.89 478.067 2244.04 479.213 2244.61 480.36 2245.76 481.506 2246.33 483.226 2247.48 484.373 2248.62 485.519 2249.2 487.239 2250.34 488.385 2251.49 489.532 2252.64 491.252 2253.21 492.398 2254.35 494.118 2255.5 495.264 2256.07 496.411 2257.22 498.131 2257.79 499.85 2258.94 500.997 2260.09 502.717 2260.66 503.863 2261.8 505.583 2262.95 507.302 2263.52 508.449 2264.67 510.169 2265.82 511.888 2266.39 513.035 2267.54 514.755 2268.11 515.901 2269.25 517.621 2270.4 519.341 2270.97 521.06 2272.12 522.207 2273.27 523.927 2273.84 525.646 2274.99 527.366 2276.13 529.086 2276.7 530.806 2277.85 531.952 2278.42 533.672 2279.57 535.392 2280.72 537.111 2281.29 538.831 2282.44 540.551 2283.58 542.271 2284.15 543.99 2285.3 545.137 2286.45 546.857 2287.02 548.576 2288.17 550.296 2289.31 552.016 2289.89 553.736 2291.03 555.455 2291.6 557.175 2292.75 558.895 2293.9 560.615 2294.47 562.334 2295.62 564.054 2296.76 565.774 2297.34 567.494 2298.48 569.213 2299.63 570.933 2300.2 572.653 2301.35 574.373 2301.92 576.092 2303.07 577.812 2304.21 579.532 2304.79 580.678 2305.93 582.398 2307.08 584.118 2308.22 585.837 2308.8 587.557 2309.94 589.277 2311.09 590.997 2311.66 592.716 2312.81 594.436 2313.38 596.156 2314.53 597.876 2315.67 599.595 2316.25 600.742 2317.39 602.462 2318.54 604.181 2319.11 605.901 2320.26 607.621 2321.4 609.341 2321.98 611.06 2323.12 612.207 2323.7 613.927 2324.84 615.646 2325.99 617.366 2326.56 619.086 2327.71 620.232 2328.85 621.952 2329.43 623.672 2330.57 625.392 2331.72 626.538 2332.29 628.258 2333.44 629.978 2334.59 631.124 2335.16 632.844 2336.3 633.99 2336.88 635.71 2338.02 636.857 2339.17 638.576 2339.74 640.296 2340.89 641.443 2342.04 643.162 2342.61 644.309 2343.76 645.455 2344.9 647.175 2345.47 648.322 2346.62 650.041 2347.19 651.188 2348.34 652.908 2349.49 654.054 2350.06 655.201 2351.21 656.347 2352.35 658.067 2352.92 659.213 2354.07 660.36 2355.22 661.506 2355.79 663.226 2356.94 664.372 2358.08 665.519 2358.66 666.665 2359.8 667.812 2360.37 668.958 2361.52 670.105 2362.67 671.251 2363.81 672.398 2364.39 673.544 2365.53 674.691 2366.68 675.837 2367.25 676.411 2368.4 677.557 2368.97 678.704 2370.12 679.85 2371.26 680.423 2371.84 681.57 2372.98 682.716 2374.13 683.29 2374.7 684.436 2375.85 685.009 2376.99 686.156 2377.57 686.729 2378.71 687.876 2379.29 688.449 2380.43 689.595 2381.58 690.169 2382.15 690.742 2383.3 691.315 2384.44 692.462 2385.02 693.035 2386.16 693.608 2387.31 694.181 2387.88 694.755 2389.03 695.901 2390.17 695.901 2390.75 697.048 2391.89 697.621 2392.47 697.621 2393.61 698.767 2394.76 698.767 2395.33 699.341 2396.48 699.914 2397.62 700.487 2398.2 700.487 2399.34 701.06 2400.49 701.634 2401.06 701.634 2402.21 702.207 2402.78 702.207 2403.93 702.78 2405.07 702.78 2405.65 703.353 2406.79 703.353 2407.94 703.927 2408.51 703.927 2409.66 703.927 2410.81 704.5 2411.95 704.5 2412.52 704.5 2413.67 704.5 2414.24 704.5 2415.39 704.5 2415.96 704.5 2417.11 704.5 2418.26 704.5 2418.83 704.5 2419.97 704.5 2421.12 704.5 2422.27 704.5 2422.84 704.5 2423.99 704.5 2424.56 704.5 2425.71 704.5 2426.28 704.5 2427.42 704.5 2428.57 704.5 2429.72 704.5 2430.29 704.5 2431.44 704.5 2432.58 704.5 2433.16 704.5 2434.3 704.5 2435.45 704.5 2436.02 704.5 2437.17 704.5 2437.74 704.5 2438.89 704.5 2440.03 704.5 2440.61 704.5 2441.75 704.5 2442.9 704.5 2443.47 704.5 2444.62 704.5 2445.76 704.5 2446.34 704.5 2447.48 704.5 2448.06 704.5 2449.2 704.5 2450.35 704.5 2450.92 704.5 2452.07 704.5 2453.21 704.5 2453.79 704.5 2454.93 704.5 2456.08 704.5 2456.65 704.5 2457.8 704.5 2458.94 704.5 2459.52 704.5 2460.66 704.5 2461.24 704.5 2462.38 704.5 2463.53 704.5 2464.1 704.5 2465.25 704.5 2466.39 704.5 2466.97 704.5 2468.11 704.5 2469.26 704.5 2469.83 704.5 2470.98 704.5 2471.55 704.5 2472.7 704.5 2473.84 704.5 2474.42 704.5 2475.56 704.5 2476.71 704.5 2477.86 704.5 2478.43 704.5 2479.58 704.5 2480.15 704.5 2481.29 704.5 2481.87 704.5 2483.01 704.5 2484.16 704.5 2485.31 704.5 2485.88 704.5 2487.03 704.5 2488.17 704.5 2488.74 704.5 2489.89 704.5 2491.04 704.5 2491.61 704.5 2492.76 704.5 2493.33 704.5 2494.48 704.5 2495.62 704.5 2496.19 704.5 2497.34 704.5 2498.49 704.5 2499.06 704.5 2500.21 704.5 2501.35 704.5 2501.93 704.5 2503.07 704.5 2503.64 704.5 2504.79 704.5 2505.94 704.5 2506.51 704.5 2507.66 704.5 2508.8 704.5 2509.38 704.5 2510.52 704.5 2511.67 704.5 2512.24 704.5 2513.39 704.5 2514.53 704.5 2515.11 704.5 2516.25 704.5 2516.83 704.5 2517.97 704.5 2519.12 704.5 2519.69 704.5 2520.84 704.5 2521.98 704.5 2522.56 704.5 2523.7 704.5 2524.85 704.5 2525.42 704.5 2526.57 704.5 2527.14 704.5 2528.29 704.5 2529.43 704.5 2530.01 704.5 2531.15 704.5 2532.3 704.5 2533.45 704.5 2534.02 704.5 2535.16 704.5 2536.31 704.5 2536.88 704.5 2538.03 704.5 2538.6 704.5 2539.75 704.5 2540.9 704.5 2541.47 704.5 2542.61 704.5 2543.76 704.5 2544.33 704.5 2545.48 704.5 2546.63 704.5 2547.2 704.5 2548.35 704.5 2548.92 704.5 2550.06 704.5 2551.21 704.5 2551.78 704.5 2552.93 704.5 2554.08 704.5 2554.65 704.5 2555.8 704.5 2556.94 704.5 2557.51 704.5 2558.66 704.5 2559.81 704.5 2560.38 704.5 2561.53 704.5 2562.1 704.5 2563.25 704.5 2564.39 704.5 2564.96 704.5 2566.11 704.5 2567.26 704.5 2567.83 704.5 2568.98 704.5 2570.12 704.5 2570.7 704.5 2571.84 704.5 2572.41 704.5 2573.56 704.5 2574.71 704.5 2575.28 704.5 2576.43 704.5 2577.57 704.5 2578.15 704.5 2579.29 704.5 2580.44 704.5 2581.01 704.5 2582.16 704.5 2582.73 704.5 2583.88 704.5 2585.02 704.5 2585.6 704.5 2586.74 704.5 2587.89 704.5 2589.03 704.5 2589.61 704.5 2590.75 704.5 2591.9 704.5 2592.47 704.5 2593.62 704.5 2594.19 704.5 2595.34 704.5 2595.91 704.5 2597.06 704.5 2598.2 704.5 2599.35 704.5 2599.92 704.5 2601.07 704.5 2602.21 704.5 2602.79 704.5 2603.93 704.5 2604.51 704.5 2605.65 704.5 2606.8 704.5 2607.37 704.5 2608.52 704.5 2609.67 704.5 2610.24 704.5 2611.38 704.5 2612.53 704.5 2613.1 704.5 2614.25 704.5 2615.4 704.5 2615.97 704.5 2617.11 704.5 2617.69 704.5 2618.83 704.5 2619.98 704.5 2620.55 704.5 2621.7 704.5 2622.85 704.5 2623.42 704.5 2624.56 704.5 2625.71 704.5 2626.28 704.5 2627.43 704.5 2628 704.5 2629.15 704.5 2630.3 704.5 2630.87 704.5 2632.02 704.5 2633.16 704.5 2633.73 704.5 2634.88 704.5 2636.03 704.5 2637.17 704.5 2637.75 704.5 2638.89 704.5 2639.47 704.5 2640.61 704.5 2641.18 704.5 2642.33 704.5 2643.48 704.5 2644.05 704.5 2645.2 704.5 2646.34 704.5 2647.49 704.5 2648.06 704.5 2649.21 704.5 2649.78 704.5 2650.93 704.5 2651.5 704.5" stroke="#0072BD" stroke-width="9.16667" stroke-linejoin="round" stroke-miterlimit="10" fill="none" fill-rule="evenodd"/></g></svg>