<svg width="2233" height="540" xmlns="http://www.w3.org/2000/svg" xmlns:xlink="http://www.w3.org/1999/xlink" overflow="hidden"><defs><clipPath id="clip0"><rect x="289" y="1898" width="2233" height="540"/></clipPath></defs><g clip-path="url(#clip0)" transform="translate(-289 -1898)"><rect x="620.5" y="2061.5" width="329" height="228" stroke="#402000" stroke-width="4.58333" stroke-miterlimit="8" fill="#FFFFFF"/><text fill="#402000" font-family="Times New Roman,Times New Roman_MSFontService,sans-serif" font-weight="400" font-size="83" transform="matrix(1 0 0 1 651.693 2156)">Receive<tspan font-style="italic" font-size="83" x="51.8375" y="99">B</tspan><tspan font-size="83" x="102.254" y="99">(</tspan><tspan font-family="Symbol,Symbol_MSFontService,sans-serif" font-size="83" x="129.754" y="99">w</tspan>)</text><rect x="1068.5" y="2061.5" width="329" height="228" stroke="#402000" stroke-width="4.58333" stroke-miterlimit="8" fill="#FFFFFF"/><text fill="#402000" font-family="Times New Roman,Times New Roman_MSFontService,sans-serif" font-weight="400" font-size="83" transform="matrix(1 0 0 1 1104.3 2206)">Squarer</text><rect x="1546.5" y="2061.5" width="329" height="228" stroke="#402000" stroke-width="4.58333" stroke-miterlimit="8" fill="#FFFFFF"/><text fill="#402000" font-family="Times New Roman,Times New Roman_MSFontService,sans-serif" font-weight="400" font-size="83" transform="matrix(1 0 0 1 1637.41 2156)">BPF<tspan font-style="italic" font-size="83" x="-12.3292" y="99">H</tspan><tspan font-size="83" x="47.2542" y="99">(</tspan><tspan font-family="Symbol,Symbol_MSFontService,sans-serif" font-size="83" x="74.7542" y="99">w</tspan><tspan font-size="83" x="131.473" y="99">)</tspan></text><rect x="2025.5" y="2061.5" width="328" height="228" stroke="#402000" stroke-width="4.58333" stroke-miterlimit="8" fill="#FFFFFF"/><text fill="#402000" font-family="Times New Roman,Times New Roman_MSFontService,sans-serif" font-weight="400" font-size="83" transform="matrix(1 0 0 1 2115.49 2206)">PLL<tspan font-style="italic" font-size="83" x="-1776.61" y="0">x</tspan>(<tspan font-style="italic" font-size="83" x="-1712.45" y="0">t</tspan><tspan font-size="83" x="-1689.53" y="0">)</tspan></text><path d="M501.5 2173.21 607.49 2173.21 607.489 2177.79 501.5 2177.79ZM602.906 2166.33 621.239 2175.5 602.906 2184.67Z" fill="#402000"/><path d="M949.5 2173.21 1055.49 2173.21 1055.49 2177.79 949.5 2177.79ZM1050.91 2166.33 1069.24 2175.5 1050.91 2184.67Z" fill="#402000"/><path d="M1397.5 2173.21 1533.28 2173.21 1533.28 2177.79 1397.5 2177.79ZM1528.7 2166.33 1547.03 2175.5 1528.7 2184.67Z" fill="#402000"/><path d="M1875.5 2173.21 2011.28 2173.21 2011.28 2177.79 1875.5 2177.79ZM2006.7 2166.33 2025.03 2175.5 2006.7 2184.67Z" fill="#402000"/><path d="M2353.5 2173.21 2489.28 2173.21 2489.28 2177.79 2353.5 2177.79ZM2484.7 2166.33 2503.03 2175.5 2484.7 2184.67Z" fill="#402000"/><text fill="#402000" font-family="Times New Roman,Times New Roman_MSFontService,sans-serif" font-style="italic" font-weight="400" font-size="83" transform="matrix(1 0 0 1 949.036 2369)">q<tspan font-style="normal" font-size="83" x="41.25" y="0">(</tspan><tspan font-size="83" x="68.75" y="0">t</tspan><tspan font-style="normal" font-size="83" x="91.6667" y="0">)</tspan><tspan font-size="83" x="434.271" y="0">q</tspan><tspan font-size="55" x="475.521" y="-25">2</tspan><tspan font-style="normal" font-size="83" x="503.021" y="0">(</tspan>t<tspan font-style="normal" font-size="83" x="553.438" y="0">)</tspan><tspan font-size="83" x="478.099" y="-359">p</tspan><tspan font-style="normal" font-size="83" x="519.349" y="-359">(</tspan>t<tspan font-style="normal" font-size="83" x="569.766" y="-359">)</tspan><tspan font-size="83" x="960.782" y="0">z</tspan><tspan font-style="normal" font-size="83" x="992.865" y="0">(</tspan>t<tspan font-style="normal" font-size="83" x="1043.28" y="0">)</tspan></text></g></svg>