<svg width="4116" height="769" xmlns="http://www.w3.org/2000/svg" xmlns:xlink="http://www.w3.org/1999/xlink" overflow="hidden"><defs><clipPath id="clip0"><rect x="198" y="903" width="4116" height="769"/></clipPath></defs><g clip-path="url(#clip0)" transform="translate(-198 -903)"><path d="M206 1287 4312 1287" stroke="#262626" stroke-width="4.0106" stroke-linejoin="round" stroke-miterlimit="10" fill="none" fill-rule="evenodd"/><path d="M211 969.141 215.583 960.546 220.166 953.67 224.749 947.368 229.333 942.784 233.916 938.773 238.499 934.762 243.082 931.324 247.665 928.46 252.248 925.595 256.831 923.876 261.415 923.876 265.425 925.595 270.008 930.178 275.164 938.773 279.747 951.378 284.33 969.141 288.34 992.633 292.924 1022.43 297.507 1057.95 302.09 1099.78 307.246 1147.34 311.256 1198.9 315.839 1254.48 320.422 1310.63 325.006 1367.93 329.589 1422.36 334.172 1473.36 338.755 1518.05 343.338 1555.29 347.921 1582.79 352.504 1600.56 357.087 1606.86 361.671 1600.56 366.254 1582.79 370.837 1555.29 375.42 1518.05 380.003 1473.36 384.586 1422.36 389.169 1367.93 393.18 1310.63 397.763 1254.48 402.919 1198.9 407.502 1147.34 412.085 1099.78 416.095 1057.95 420.678 1022.43 425.262 992.633 429.845 969.141 435.001 951.378 439.011 938.773 443.594 929.606 448.177 923.876 452.76 919.865 457.344 918.146 461.927 917 466.51 917 471.093 917 475.676 918.146 480.259 919.865 484.842 923.876 489.426 929.606 494.009 938.773 498.592 951.378 503.175 969.141 507.758 992.633 512.341 1022.43 516.924 1057.95 520.935 1099.78 525.518 1147.34 530.674 1198.9 535.257 1254.48 539.84 1310.63 543.85 1367.93 548.433 1422.36 553.016 1473.36 557.6 1518.05 562.756 1555.29 566.766 1582.79 571.349 1600.56 575.932 1606.86 580.515 1600.56 585.098 1582.79 589.682 1555.29 594.265 1518.05 598.848 1473.36 603.431 1422.36 608.014 1367.93 612.597 1310.63 617.18 1254.48 621.191 1198.9 626.347 1147.34 630.93 1099.78 635.513 1057.95 640.096 1022.43 644.106 992.633 648.689 969.141 653.273 951.378 658.429 938.773 663.012 930.751 667.595 927.314 671.605 927.314 676.188 929.606 680.771 934.189 685.354 939.919 690.51 945.649 694.521 951.951 699.104 957.108 703.687 961.692 708.27 965.703 712.853 967.995 717.436 969.141 722.02 969.141 726.603 969.141 731.186 967.995 735.769 965.703 740.352 961.692 744.935 957.108 748.945 951.951 754.102 945.649 758.685 939.919 763.268 934.189 767.851 929.606 771.861 927.314 776.444 927.314 781.027 930.751 786.183 938.773 790.767 951.378 794.777 969.141 799.36 993.206 803.943 1022.43 808.526 1056.81 813.109 1096.34 817.693 1139.89 822.276 1187.44 826.859 1236.72 831.442 1287.71 836.025 1339.28 840.608 1388.56 845.191 1436.11 849.774 1479.66 854.358 1519.19 858.941 1554.15 863.524 1582.79 868.107 1606.86 872.69 1624.62 876.7 1637.23 881.856 1646.39 886.44 1652.7 891.023 1655.56 895.606 1657.85 899.616 1659 904.199 1659 908.782 1659 913.938 1657.85 918.521 1655.56 922.532 1652.7 927.115 1646.39 931.698 1637.23 936.281 1624.62 940.864 1606.86 945.447 1583.37 950.031 1554.15 954.614 1518.05 959.197 1476.22 963.78 1429.24 968.363 1377.1 972.946 1322.09 977.529 1265.37 982.112 1208.07 986.696 1153.64 991.279 1102.64 995.862 1057.95 1000.45 1020.71 1004.46 993.206 1009.04 976.016 1014.19 969.141 1018.78 975.443 1023.36 993.206 1027.37 1022.43 1031.95 1061.96 1036.54 1110.09 1041.12 1165.1 1046.28 1225.83 1050.29 1287.71 1054.87 1350.74 1059.45 1410.9 1064.04 1465.91 1068.62 1514.04 1073.2 1554.15 1077.79 1582.79 1082.37 1600.56 1086.95 1606.86 1091.53 1600.56 1096.12 1582.79 1100.7 1555.29 1105.28 1518.05 1109.87 1473.36 1114.45 1422.36 1119.03 1367.93 1123.62 1310.63 1128.2 1254.48 1132.21 1198.9 1136.79 1147.34 1141.95 1099.78 1146.53 1057.95 1151.12 1022.43 1155.13 992.633 1159.71 969.141 1164.29 951.378 1168.88 938.773 1174.03 930.751 1178.04 927.314 1182.62 927.314 1187.21 929.606 1191.79 934.189 1196.37 939.919 1200.96 945.649 1205.54 951.951 1210.12 957.108 1214.71 961.692 1219.29 965.703 1223.87 967.995 1228.46 969.141 1233.04 969.141 1237.62 969.141 1242.21 967.995 1246.79 965.703 1251.37 961.692 1255.95 957.108 1259.97 951.951 1264.55 945.649 1269.7 939.919 1274.29 934.189 1278.87 929.606 1282.88 927.314 1287.46 927.314 1292.05 930.751 1296.63 938.773 1301.79 951.378 1305.8 969.141 1310.38 993.206 1314.96 1022.43 1319.55 1056.81 1324.13 1096.34 1328.71 1139.89 1333.3 1187.44 1337.88 1236.72 1342.46 1287.71 1347.04 1339.28 1351.63 1388.56 1356.21 1436.11 1360.79 1479.66 1365.38 1519.19 1369.96 1554.15 1374.54 1582.79 1379.13 1606.86 1383.71 1624.62 1387.72 1637.23 1392.3 1645.25 1397.46 1648.69 1402.04 1648.69 1406.63 1646.39 1410.64 1641.81 1415.22 1636.08 1419.8 1630.35 1424.39 1624.05 1429.54 1618.89 1433.55 1614.31 1438.13 1610.3 1442.72 1608.01 1447.3 1606.86 1451.88 1606.86 1456.47 1606.86 1461.05 1608.01 1465.63 1609.15 1470.22 1610.3 1474.8 1611.44 1479.38 1612.59 1483.97 1613.16 1488.55 1613.16 1493.13 1613.16 1497.72 1612.59 1502.3 1611.44 1506.88 1610.3 1511.46 1609.15 1515.47 1608.01 1520.06 1606.86 1525.21 1606.86 1529.8 1606.86 1534.38 1608.01 1538.39 1610.3 1542.97 1614.31 1547.56 1618.89 1552.14 1624.05 1557.3 1630.35 1561.31 1636.08 1565.89 1641.81 1570.47 1646.39 1575.06 1648.69 1579.64 1648.69 1584.22 1645.25 1588.8 1637.23 1593.39 1624.62 1597.97 1606.86 1602.55 1582.79 1607.14 1554.15 1611.72 1519.19 1616.3 1479.66 1620.89 1436.11 1625.47 1388.56 1630.05 1339.28 1634.64 1287.71 1639.22 1236.72 1643.23 1187.44 1647.81 1139.89 1652.97 1096.34 1657.55 1056.81 1662.14 1022.43 1666.15 993.206 1670.73 969.141 1675.31 951.378 1679.89 938.773 1685.05 930.751 1689.06 927.314 1693.64 927.314 1698.23 929.606 1702.81 934.189 1707.39 939.919 1711.98 945.649 1716.56 951.951 1721.14 957.108 1725.73 961.692 1730.31 965.703 1734.89 967.995 1739.48 969.141 1743.49 969.141 1748.64 969.141 1753.22 967.995 1757.81 966.849 1762.39 965.703 1766.4 964.557 1770.98 963.411 1775.57 962.838 1780.72 962.838 1785.31 962.838 1789.89 963.411 1793.9 964.557 1798.48 965.703 1803.07 966.849 1807.65 967.995 1812.81 969.141 1816.82 969.141 1821.4 969.141 1825.98 967.995 1830.57 965.703 1835.15 961.692 1839.73 957.108 1844.31 951.951 1848.9 945.649 1853.48 939.919 1858.06 934.189 1862.65 929.606 1867.23 927.314 1871.24 927.314 1876.4 930.751 1880.98 938.773 1885.56 951.378 1890.15 969.141 1894.16 992.633 1898.74 1022.43 1903.32 1057.95 1908.48 1099.78 1913.06 1147.34 1917.07 1198.9 1921.66 1254.48 1926.24 1310.63 1930.82 1367.93 1935.4 1422.36 1939.99 1473.36 1944.57 1518.05 1949.15 1555.29 1953.74 1582.79 1958.32 1600.56 1962.9 1606.86 1967.49 1600.56 1972.07 1582.79 1976.65 1554.15 1981.24 1514.04 1985.82 1465.91 1990.4 1410.9 1994.99 1350.74 1999 1287.71 2004.15 1225.83 2008.73 1165.1 2013.32 1110.09 2017.9 1061.96 2021.91 1022.43 2026.49 993.206 2031.08 975.443 2036.23 969.141 2040.82 976.016 2044.83 993.206 2049.41 1020.71 2053.99 1057.95 2058.58 1102.64 2063.16 1153.64 2067.74 1208.07 2072.33 1265.37 2076.91 1322.09 2081.49 1377.1 2086.07 1429.24 2090.66 1476.22 2095.24 1518.05 2099.82 1554.15 2104.41 1583.37 2108.99 1606.86 2113.57 1624.62 2118.16 1637.23 2122.74 1646.39 2126.75 1652.7 2131.33 1655.56 2136.49 1657.85 2141.07 1659 2145.66 1659 2149.67 1659 2154.25 1657.85 2158.83 1655.56 2163.42 1652.7 2168.57 1646.39 2172.58 1637.23 2177.16 1624.62 2181.75 1606.86 2186.33 1582.79 2190.91 1554.15 2195.5 1519.19 2200.08 1479.66 2204.66 1436.11 2209.25 1388.56 2213.83 1339.28 2218.41 1287.71 2223 1236.72 2227.58 1187.44 2232.16 1139.89 2236.75 1096.34 2241.33 1056.81 2245.91 1022.43 2250.49 993.206 2254.51 969.141 2259.09 951.378 2264.24 938.773 2268.83 929.606 2273.41 923.876 2277.42 919.865 2282 918.146 2286.59 917 2291.17 917 2296.33 917 2300.34 918.146 2304.92 919.865 2309.5 923.876 2314.09 929.606 2318.67 938.773 2323.25 951.378 2327.84 969.141 2332.42 993.206 2337 1022.43 2341.58 1056.81 2346.17 1096.34 2350.75 1139.89 2355.33 1187.44 2359.92 1236.72 2364.5 1287.71 2369.08 1339.28 2373.67 1388.56 2378.25 1436.11 2382.26 1479.66 2386.84 1519.19 2392 1554.15 2396.58 1582.79 2401.17 1606.86 2405.18 1624.62 2409.76 1637.23 2414.34 1645.25 2418.93 1648.69 2424.08 1648.69 2428.09 1646.39 2432.67 1641.81 2437.26 1636.08 2441.84 1630.35 2446.42 1624.05 2451.01 1618.89 2455.59 1614.31 2460.17 1610.3 2464.76 1608.01 2469.34 1606.86 2473.92 1606.86 2478.51 1606.86 2483.09 1608.01 2487.67 1610.3 2492.26 1614.31 2496.84 1618.89 2501.42 1624.05 2506 1630.35 2510.01 1636.08 2514.6 1641.81 2519.75 1646.39 2524.34 1648.69 2528.92 1648.69 2532.93 1645.25 2537.51 1637.23 2542.1 1624.62 2546.68 1606.86 2551.84 1583.37 2555.85 1554.15 2560.43 1518.05 2565.01 1476.22 2569.6 1429.24 2574.18 1377.1 2578.76 1322.09 2583.34 1265.37 2587.93 1208.07 2592.51 1153.64 2597.09 1102.64 2601.68 1057.95 2606.26 1020.71 2610.84 993.206 2615.43 976.016 2620.01 969.141 2624.59 975.443 2629.18 993.206 2633.76 1022.43 2637.77 1061.96 2642.35 1110.09 2647.51 1165.1 2652.09 1225.83 2656.68 1287.71 2660.69 1350.74 2665.27 1410.9 2669.85 1465.91 2674.43 1514.04 2679.59 1554.15 2683.6 1582.79 2688.18 1600.56 2692.77 1606.86 2697.35 1600.56 2701.93 1582.79 2706.52 1555.29 2711.1 1518.05 2715.68 1473.36 2720.27 1422.36 2724.85 1367.93 2729.43 1310.63 2734.02 1254.48 2738.6 1198.9 2743.18 1147.34 2747.77 1099.78 2752.35 1057.95 2756.93 1022.43 2761.51 992.633 2765.52 969.141 2770.11 951.378 2775.26 938.773 2779.85 929.606 2784.43 923.876 2788.44 919.865 2793.02 918.146 2797.61 917 2802.19 917 2807.35 917 2811.36 918.146 2815.94 919.865 2820.52 923.876 2825.11 929.606 2829.69 938.773 2834.27 951.378 2838.85 969.141 2843.44 993.206 2848.02 1022.43 2852.6 1056.81 2857.19 1096.34 2861.77 1139.89 2865.78 1187.44 2870.94 1236.72 2875.52 1287.71 2880.1 1339.28 2884.69 1388.56 2888.7 1436.11 2893.28 1479.66 2897.86 1519.19 2903.02 1554.15 2907.6 1582.79 2912.19 1606.86 2916.2 1624.62 2920.78 1637.23 2925.36 1645.25 2929.94 1648.69 2935.1 1648.69 2939.11 1646.39 2943.69 1641.81 2948.28 1636.08 2952.86 1630.35 2957.44 1624.05 2962.03 1618.89 2966.61 1614.31 2971.19 1610.3 2975.78 1608.01 2980.36 1606.86 2984.94 1606.86 2989.53 1606.86 2993.54 1608.01 2998.69 1609.15 3003.27 1610.3 3007.86 1611.44 3012.44 1612.59 3016.45 1613.16 3021.03 1613.16 3025.62 1613.16 3030.77 1612.59 3035.36 1611.44 3039.37 1610.3 3043.95 1609.15 3048.53 1608.01 3053.12 1606.86 3057.7 1606.86 3062.28 1606.86 3066.87 1608.01 3071.45 1610.3 3076.03 1614.31 3080.62 1618.89 3085.2 1624.05 3089.78 1630.35 3094.36 1636.08 3098.95 1641.81 3103.53 1646.39 3108.11 1648.69 3112.7 1648.69 3117.28 1645.25 3121.29 1637.23 3125.87 1624.62 3131.03 1606.86 3135.61 1582.79 3140.2 1554.15 3144.21 1519.19 3148.79 1479.66 3153.37 1436.11 3157.96 1388.56 3163.11 1339.28 3167.12 1287.71 3171.71 1236.72 3176.29 1187.44 3180.87 1139.89 3185.45 1096.34 3190.04 1056.81 3194.62 1022.43 3199.2 993.206 3203.79 969.141 3208.37 951.378 3212.95 938.773 3217.54 930.751 3222.12 927.314 3226.7 927.314 3231.29 929.606 3235.87 934.189 3240.45 939.919 3245.04 945.649 3249.05 951.951 3253.63 957.108 3258.78 961.692 3263.37 965.703 3267.95 967.995 3271.96 969.141 3276.54 969.141 3281.13 969.141 3285.71 967.995 3290.87 965.703 3294.88 961.692 3299.46 957.108 3304.04 951.951 3308.63 945.649 3313.21 939.919 3317.79 934.189 3322.38 929.606 3326.96 927.314 3331.54 927.314 3336.12 930.751 3340.71 938.773 3345.29 951.378 3349.87 969.141 3354.46 992.633 3359.04 1022.43 3363.62 1057.95 3368.21 1099.78 3372.79 1147.34 3376.8 1198.9 3381.38 1254.48 3386.54 1310.63 3391.12 1367.93 3395.71 1422.36 3399.72 1473.36 3404.3 1518.05 3408.88 1555.29 3413.47 1582.79 3418.62 1600.56 3422.63 1606.86 3427.21 1600.56 3431.8 1582.79 3436.38 1555.29 3440.96 1518.05 3445.55 1473.36 3450.13 1422.36 3454.71 1367.93 3459.3 1310.63 3463.88 1254.48 3468.46 1198.9 3473.05 1147.34 3477.63 1099.78 3482.21 1057.95 3486.8 1022.43 3491.38 992.633 3495.96 969.141 3500.54 951.378 3504.56 938.773 3509.14 929.606 3514.29 923.876 3518.88 919.865 3523.46 918.146 3527.47 917 3532.05 917 3536.64 917 3541.22 918.146 3546.38 919.865 3550.39 923.876 3554.97 929.606 3559.55 938.773 3564.14 951.378 3568.72 969.141 3573.3 993.206 3577.89 1022.43 3582.47 1056.81 3587.05 1096.34 3591.63 1139.89 3596.22 1187.44 3600.8 1236.72 3605.38 1287.71 3609.97 1339.28 3614.55 1388.56 3619.13 1436.11 3623.72 1479.66 3628.3 1519.19 3632.31 1554.15 3636.89 1582.79 3642.05 1606.86 3646.63 1624.62 3651.22 1637.23 3655.23 1646.39 3659.81 1652.7 3664.39 1655.56 3668.98 1657.85 3674.13 1659 3678.14 1659 3682.72 1659 3687.31 1657.85 3691.89 1655.56 3696.47 1652.7 3701.06 1646.39 3705.64 1637.23 3710.22 1624.62 3714.81 1606.86 3719.39 1582.79 3723.97 1554.15 3728.56 1519.19 3733.14 1479.66 3737.72 1436.11 3742.31 1388.56 3746.89 1339.28 3751.47 1287.71 3756.05 1236.72 3760.06 1187.44 3764.65 1139.89 3769.8 1096.34 3774.39 1056.81 3778.97 1022.43 3782.98 993.206 3787.56 969.141 3792.15 951.378 3796.73 938.773 3801.89 929.606 3805.9 923.876 3810.48 919.865 3815.06 918.146 3819.65 917 3824.23 917 3828.81 917 3833.4 918.146 3837.98 919.865 3842.56 923.876 3847.14 929.606 3851.73 938.773 3856.31 951.378 3860.89 969.141 3865.48 992.633 3870.06 1022.43 3874.64 1057.95 3879.23 1099.78 3883.81 1147.34 3887.82 1198.9 3892.4 1254.48 3897.56 1310.63 3902.14 1367.93 3906.73 1422.36 3910.74 1473.36 3915.32 1518.05 3919.9 1555.29 3924.48 1582.79 3929.64 1600.56 3933.65 1606.86 3938.23 1600.56 3942.82 1582.79 3947.4 1555.29 3951.98 1518.05 3956.57 1473.36 3961.15 1422.36 3965.73 1367.93 3970.32 1310.63 3974.9 1254.48 3979.48 1198.9 3984.07 1147.34 3988.08 1099.78 3993.23 1057.95 3997.81 1022.43 4002.4 992.633 4006.98 969.141 4010.99 951.378 4015.57 938.773 4020.16 929.606 4025.31 923.876 4029.9 919.865 4034.48 918.146 4038.49 917 4043.07 917 4047.66 917 4052.24 918.146 4057.4 919.865 4061.41 923.876 4065.99 929.606 4070.57 938.773 4075.16 951.378 4079.74 969.141 4084.32 993.206 4088.9 1022.43 4093.49 1056.81 4098.07 1096.34 4102.65 1139.89 4107.24 1187.44 4111.82 1236.72 4115.83 1287.71 4120.41 1339.28 4125.57 1388.56 4130.15 1436.11 4134.74 1479.66 4138.75 1519.19 4143.33 1554.15 4147.91 1582.79 4152.5 1606.86 4157.65 1624.62 4161.66 1637.23 4166.25 1645.82 4170.83 1650.41 4175.41 1652.7 4179.99 1652.12 4184.58 1650.41 4189.16 1648.11 4193.74 1644.68 4198.33 1641.24 4202.91 1637.23 4207.49 1633.22 4212.08 1628.63 4216.66 1622.33 4221.24 1615.45 4225.83 1606.86 4230.41 1594.83 4234.99 1581.08 4239.58 1563.89 4243.59 1544.98 4248.17 1523.78 4253.32 1500.86 4257.91 1476.22 4262.49 1450.44 4266.5 1424.65 4271.08 1400.02 4275.67 1375.95 4280.25 1353.03 4285.41 1332.98 4289.42 1315.22 4294 1300.32" stroke="#0072BD" stroke-width="12.0314" stroke-linejoin="round" stroke-miterlimit="10" fill="none" fill-rule="evenodd"/><path d="M203.5 969.5C203.5 965.082 207.082 961.5 211.5 961.5 215.918 961.5 219.5 965.082 219.5 969.5 219.5 973.918 215.918 977.5 211.5 977.5 207.082 977.5 203.5 973.918 203.5 969.5Z" stroke="#000000" stroke-width="0" stroke-linejoin="round" stroke-miterlimit="10" fill="#FF0000" fill-rule="evenodd"/><path d="M276.5 969.5C276.5 965.082 280.082 961.5 284.5 961.5 288.918 961.5 292.5 965.082 292.5 969.5 292.5 973.918 288.918 977.5 284.5 977.5 280.082 977.5 276.5 973.918 276.5 969.5Z" stroke="#000000" stroke-width="0" stroke-linejoin="round" stroke-miterlimit="10" fill="#FF0000" fill-rule="evenodd"/><path d="M349.5 1606.5C349.5 1602.08 353.082 1598.5 357.5 1598.5 361.918 1598.5 365.5 1602.08 365.5 1606.5 365.5 1610.92 361.918 1614.5 357.5 1614.5 353.082 1614.5 349.5 1610.92 349.5 1606.5Z" stroke="#000000" stroke-width="0" stroke-linejoin="round" stroke-miterlimit="10" fill="#FF0000" fill-rule="evenodd"/><path d="M422.5 969.5C422.5 965.082 426.082 961.5 430.5 961.5 434.918 961.5 438.5 965.082 438.5 969.5 438.5 973.918 434.918 977.5 430.5 977.5 426.082 977.5 422.5 973.918 422.5 969.5Z" stroke="#000000" stroke-width="0" stroke-linejoin="round" stroke-miterlimit="10" fill="#FF0000" fill-rule="evenodd"/><path d="M494.5 969.5C494.5 965.082 498.306 961.5 503 961.5 507.694 961.5 511.5 965.082 511.5 969.5 511.5 973.918 507.694 977.5 503 977.5 498.306 977.5 494.5 973.918 494.5 969.5Z" stroke="#000000" stroke-width="0" stroke-linejoin="round" stroke-miterlimit="10" fill="#FF0000" fill-rule="evenodd"/><path d="M568.5 1606.5C568.5 1602.08 572.082 1598.5 576.5 1598.5 580.918 1598.5 584.5 1602.08 584.5 1606.5 584.5 1610.92 580.918 1614.5 576.5 1614.5 572.082 1614.5 568.5 1610.92 568.5 1606.5Z" stroke="#000000" stroke-width="0" stroke-linejoin="round" stroke-miterlimit="10" fill="#FF0000" fill-rule="evenodd"/><path d="M641.5 969.5C641.5 965.082 645.082 961.5 649.5 961.5 653.918 961.5 657.5 965.082 657.5 969.5 657.5 973.918 653.918 977.5 649.5 977.5 645.082 977.5 641.5 973.918 641.5 969.5Z" stroke="#000000" stroke-width="0" stroke-linejoin="round" stroke-miterlimit="10" fill="#FF0000" fill-rule="evenodd"/><path d="M714.5 969.5C714.5 965.082 718.082 961.5 722.5 961.5 726.918 961.5 730.5 965.082 730.5 969.5 730.5 973.918 726.918 977.5 722.5 977.5 718.082 977.5 714.5 973.918 714.5 969.5Z" stroke="#000000" stroke-width="0" stroke-linejoin="round" stroke-miterlimit="10" fill="#FF0000" fill-rule="evenodd"/><path d="M787.5 969.5C787.5 965.082 791.082 961.5 795.5 961.5 799.918 961.5 803.5 965.082 803.5 969.5 803.5 973.918 799.918 977.5 795.5 977.5 791.082 977.5 787.5 973.918 787.5 969.5Z" stroke="#000000" stroke-width="0" stroke-linejoin="round" stroke-miterlimit="10" fill="#FF0000" fill-rule="evenodd"/><path d="M860.5 1606.5C860.5 1602.08 863.858 1598.5 868 1598.5 872.142 1598.5 875.5 1602.08 875.5 1606.5 875.5 1610.92 872.142 1614.5 868 1614.5 863.858 1614.5 860.5 1610.92 860.5 1606.5Z" stroke="#000000" stroke-width="0" stroke-linejoin="round" stroke-miterlimit="10" fill="#FF0000" fill-rule="evenodd"/><path d="M933.5 1606.5C933.5 1602.08 937.082 1598.5 941.5 1598.5 945.918 1598.5 949.5 1602.08 949.5 1606.5 949.5 1610.92 945.918 1614.5 941.5 1614.5 937.082 1614.5 933.5 1610.92 933.5 1606.5Z" stroke="#000000" stroke-width="0" stroke-linejoin="round" stroke-miterlimit="10" fill="#FF0000" fill-rule="evenodd"/><path d="M1005.5 969.5C1005.5 965.082 1009.31 961.5 1014 961.5 1018.69 961.5 1022.5 965.082 1022.5 969.5 1022.5 973.918 1018.69 977.5 1014 977.5 1009.31 977.5 1005.5 973.918 1005.5 969.5Z" stroke="#000000" stroke-width="0" stroke-linejoin="round" stroke-miterlimit="10" fill="#FF0000" fill-rule="evenodd"/><path d="M1079.5 1606.5C1079.5 1602.08 1083.08 1598.5 1087.5 1598.5 1091.92 1598.5 1095.5 1602.08 1095.5 1606.5 1095.5 1610.92 1091.92 1614.5 1087.5 1614.5 1083.08 1614.5 1079.5 1610.92 1079.5 1606.5Z" stroke="#000000" stroke-width="0" stroke-linejoin="round" stroke-miterlimit="10" fill="#FF0000" fill-rule="evenodd"/><path d="M1152.5 969.5C1152.5 965.082 1156.08 961.5 1160.5 961.5 1164.92 961.5 1168.5 965.082 1168.5 969.5 1168.5 973.918 1164.92 977.5 1160.5 977.5 1156.08 977.5 1152.5 973.918 1152.5 969.5Z" stroke="#000000" stroke-width="0" stroke-linejoin="round" stroke-miterlimit="10" fill="#FF0000" fill-rule="evenodd"/><path d="M1225.5 969.5C1225.5 965.082 1229.08 961.5 1233.5 961.5 1237.92 961.5 1241.5 965.082 1241.5 969.5 1241.5 973.918 1237.92 977.5 1233.5 977.5 1229.08 977.5 1225.5 973.918 1225.5 969.5Z" stroke="#000000" stroke-width="0" stroke-linejoin="round" stroke-miterlimit="10" fill="#FF0000" fill-rule="evenodd"/><path d="M1298.5 969.5C1298.5 965.082 1302.08 961.5 1306.5 961.5 1310.92 961.5 1314.5 965.082 1314.5 969.5 1314.5 973.918 1310.92 977.5 1306.5 977.5 1302.08 977.5 1298.5 973.918 1298.5 969.5Z" stroke="#000000" stroke-width="0" stroke-linejoin="round" stroke-miterlimit="10" fill="#FF0000" fill-rule="evenodd"/><path d="M1371.5 1606.5C1371.5 1602.08 1374.86 1598.5 1379 1598.5 1383.14 1598.5 1386.5 1602.08 1386.5 1606.5 1386.5 1610.92 1383.14 1614.5 1379 1614.5 1374.86 1614.5 1371.5 1610.92 1371.5 1606.5Z" stroke="#000000" stroke-width="0" stroke-linejoin="round" stroke-miterlimit="10" fill="#FF0000" fill-rule="evenodd"/><path d="M1444.5 1606.5C1444.5 1602.08 1448.08 1598.5 1452.5 1598.5 1456.92 1598.5 1460.5 1602.08 1460.5 1606.5 1460.5 1610.92 1456.92 1614.5 1452.5 1614.5 1448.08 1614.5 1444.5 1610.92 1444.5 1606.5Z" stroke="#000000" stroke-width="0" stroke-linejoin="round" stroke-miterlimit="10" fill="#FF0000" fill-rule="evenodd"/><path d="M1517.5 1606.5C1517.5 1602.08 1521.08 1598.5 1525.5 1598.5 1529.92 1598.5 1533.5 1602.08 1533.5 1606.5 1533.5 1610.92 1529.92 1614.5 1525.5 1614.5 1521.08 1614.5 1517.5 1610.92 1517.5 1606.5Z" stroke="#000000" stroke-width="0" stroke-linejoin="round" stroke-miterlimit="10" fill="#FF0000" fill-rule="evenodd"/><path d="M1590.5 1606.5C1590.5 1602.08 1594.08 1598.5 1598.5 1598.5 1602.92 1598.5 1606.5 1602.08 1606.5 1606.5 1606.5 1610.92 1602.92 1614.5 1598.5 1614.5 1594.08 1614.5 1590.5 1610.92 1590.5 1606.5Z" stroke="#000000" stroke-width="0" stroke-linejoin="round" stroke-miterlimit="10" fill="#FF0000" fill-rule="evenodd"/><path d="M1663.5 969.5C1663.5 965.082 1667.08 961.5 1671.5 961.5 1675.92 961.5 1679.5 965.082 1679.5 969.5 1679.5 973.918 1675.92 977.5 1671.5 977.5 1667.08 977.5 1663.5 973.918 1663.5 969.5Z" stroke="#000000" stroke-width="0" stroke-linejoin="round" stroke-miterlimit="10" fill="#FF0000" fill-rule="evenodd"/><path d="M1736.5 969.5C1736.5 965.082 1740.08 961.5 1744.5 961.5 1748.92 961.5 1752.5 965.082 1752.5 969.5 1752.5 973.918 1748.92 977.5 1744.5 977.5 1740.08 977.5 1736.5 973.918 1736.5 969.5Z" stroke="#000000" stroke-width="0" stroke-linejoin="round" stroke-miterlimit="10" fill="#FF0000" fill-rule="evenodd"/><path d="M1809.5 969.5C1809.5 965.082 1813.08 961.5 1817.5 961.5 1821.92 961.5 1825.5 965.082 1825.5 969.5 1825.5 973.918 1821.92 977.5 1817.5 977.5 1813.08 977.5 1809.5 973.918 1809.5 969.5Z" stroke="#000000" stroke-width="0" stroke-linejoin="round" stroke-miterlimit="10" fill="#FF0000" fill-rule="evenodd"/><path d="M1882.5 969.5C1882.5 965.082 1886.08 961.5 1890.5 961.5 1894.92 961.5 1898.5 965.082 1898.5 969.5 1898.5 973.918 1894.92 977.5 1890.5 977.5 1886.08 977.5 1882.5 973.918 1882.5 969.5Z" stroke="#000000" stroke-width="0" stroke-linejoin="round" stroke-miterlimit="10" fill="#FF0000" fill-rule="evenodd"/><path d="M1955.5 1606.5C1955.5 1602.08 1959.08 1598.5 1963.5 1598.5 1967.92 1598.5 1971.5 1602.08 1971.5 1606.5 1971.5 1610.92 1967.92 1614.5 1963.5 1614.5 1959.08 1614.5 1955.5 1610.92 1955.5 1606.5Z" stroke="#000000" stroke-width="0" stroke-linejoin="round" stroke-miterlimit="10" fill="#FF0000" fill-rule="evenodd"/><path d="M2028.5 969.5C2028.5 965.082 2032.08 961.5 2036.5 961.5 2040.92 961.5 2044.5 965.082 2044.5 969.5 2044.5 973.918 2040.92 977.5 2036.5 977.5 2032.08 977.5 2028.5 973.918 2028.5 969.5Z" stroke="#000000" stroke-width="0" stroke-linejoin="round" stroke-miterlimit="10" fill="#FF0000" fill-rule="evenodd"/><path d="M2101.5 1606.5C2101.5 1602.08 2105.08 1598.5 2109.5 1598.5 2113.92 1598.5 2117.5 1602.08 2117.5 1606.5 2117.5 1610.92 2113.92 1614.5 2109.5 1614.5 2105.08 1614.5 2101.5 1610.92 2101.5 1606.5Z" stroke="#000000" stroke-width="0" stroke-linejoin="round" stroke-miterlimit="10" fill="#FF0000" fill-rule="evenodd"/><path d="M2174.5 1606.5C2174.5 1602.08 2178.08 1598.5 2182.5 1598.5 2186.92 1598.5 2190.5 1602.08 2190.5 1606.5 2190.5 1610.92 2186.92 1614.5 2182.5 1614.5 2178.08 1614.5 2174.5 1610.92 2174.5 1606.5Z" stroke="#000000" stroke-width="0" stroke-linejoin="round" stroke-miterlimit="10" fill="#FF0000" fill-rule="evenodd"/><path d="M2247.5 969.5C2247.5 965.082 2251.08 961.5 2255.5 961.5 2259.92 961.5 2263.5 965.082 2263.5 969.5 2263.5 973.918 2259.92 977.5 2255.5 977.5 2251.08 977.5 2247.5 973.918 2247.5 969.5Z" stroke="#000000" stroke-width="0" stroke-linejoin="round" stroke-miterlimit="10" fill="#FF0000" fill-rule="evenodd"/><path d="M2320.5 969.5C2320.5 965.082 2324.08 961.5 2328.5 961.5 2332.92 961.5 2336.5 965.082 2336.5 969.5 2336.5 973.918 2332.92 977.5 2328.5 977.5 2324.08 977.5 2320.5 973.918 2320.5 969.5Z" stroke="#000000" stroke-width="0" stroke-linejoin="round" stroke-miterlimit="10" fill="#FF0000" fill-rule="evenodd"/><path d="M2393.5 1606.5C2393.5 1602.08 2397.08 1598.5 2401.5 1598.5 2405.92 1598.5 2409.5 1602.08 2409.5 1606.5 2409.5 1610.92 2405.92 1614.5 2401.5 1614.5 2397.08 1614.5 2393.5 1610.92 2393.5 1606.5Z" stroke="#000000" stroke-width="0" stroke-linejoin="round" stroke-miterlimit="10" fill="#FF0000" fill-rule="evenodd"/><path d="M2466.5 1606.5C2466.5 1602.08 2470.08 1598.5 2474.5 1598.5 2478.92 1598.5 2482.5 1602.08 2482.5 1606.5 2482.5 1610.92 2478.92 1614.5 2474.5 1614.5 2470.08 1614.5 2466.5 1610.92 2466.5 1606.5Z" stroke="#000000" stroke-width="0" stroke-linejoin="round" stroke-miterlimit="10" fill="#FF0000" fill-rule="evenodd"/><path d="M2539.5 1606.5C2539.5 1602.08 2543.08 1598.5 2547.5 1598.5 2551.92 1598.5 2555.5 1602.08 2555.5 1606.5 2555.5 1610.92 2551.92 1614.5 2547.5 1614.5 2543.08 1614.5 2539.5 1610.92 2539.5 1606.5Z" stroke="#000000" stroke-width="0" stroke-linejoin="round" stroke-miterlimit="10" fill="#FF0000" fill-rule="evenodd"/><path d="M2611.5 969.5C2611.5 965.082 2615.31 961.5 2620 961.5 2624.69 961.5 2628.5 965.082 2628.5 969.5 2628.5 973.918 2624.69 977.5 2620 977.5 2615.31 977.5 2611.5 973.918 2611.5 969.5Z" stroke="#000000" stroke-width="0" stroke-linejoin="round" stroke-miterlimit="10" fill="#FF0000" fill-rule="evenodd"/><path d="M2685.5 1606.5C2685.5 1602.08 2689.08 1598.5 2693.5 1598.5 2697.92 1598.5 2701.5 1602.08 2701.5 1606.5 2701.5 1610.92 2697.92 1614.5 2693.5 1614.5 2689.08 1614.5 2685.5 1610.92 2685.5 1606.5Z" stroke="#000000" stroke-width="0" stroke-linejoin="round" stroke-miterlimit="10" fill="#FF0000" fill-rule="evenodd"/><path d="M2758.5 969.5C2758.5 965.082 2762.08 961.5 2766.5 961.5 2770.92 961.5 2774.5 965.082 2774.5 969.5 2774.5 973.918 2770.92 977.5 2766.5 977.5 2762.08 977.5 2758.5 973.918 2758.5 969.5Z" stroke="#000000" stroke-width="0" stroke-linejoin="round" stroke-miterlimit="10" fill="#FF0000" fill-rule="evenodd"/><path d="M2831.5 969.5C2831.5 965.082 2835.08 961.5 2839.5 961.5 2843.92 961.5 2847.5 965.082 2847.5 969.5 2847.5 973.918 2843.92 977.5 2839.5 977.5 2835.08 977.5 2831.5 973.918 2831.5 969.5Z" stroke="#000000" stroke-width="0" stroke-linejoin="round" stroke-miterlimit="10" fill="#FF0000" fill-rule="evenodd"/><path d="M2904.5 1606.5C2904.5 1602.08 2908.08 1598.5 2912.5 1598.5 2916.92 1598.5 2920.5 1602.08 2920.5 1606.5 2920.5 1610.92 2916.92 1614.5 2912.5 1614.5 2908.08 1614.5 2904.5 1610.92 2904.5 1606.5Z" stroke="#000000" stroke-width="0" stroke-linejoin="round" stroke-miterlimit="10" fill="#FF0000" fill-rule="evenodd"/><path d="M2977.5 1606.5C2977.5 1602.08 2981.08 1598.5 2985.5 1598.5 2989.92 1598.5 2993.5 1602.08 2993.5 1606.5 2993.5 1610.92 2989.92 1614.5 2985.5 1614.5 2981.08 1614.5 2977.5 1610.92 2977.5 1606.5Z" stroke="#000000" stroke-width="0" stroke-linejoin="round" stroke-miterlimit="10" fill="#FF0000" fill-rule="evenodd"/><path d="M3050.5 1606.5C3050.5 1602.08 3054.08 1598.5 3058.5 1598.5 3062.92 1598.5 3066.5 1602.08 3066.5 1606.5 3066.5 1610.92 3062.92 1614.5 3058.5 1614.5 3054.08 1614.5 3050.5 1610.92 3050.5 1606.5Z" stroke="#000000" stroke-width="0" stroke-linejoin="round" stroke-miterlimit="10" fill="#FF0000" fill-rule="evenodd"/><path d="M3122.5 1606.5C3122.5 1602.08 3126.31 1598.5 3131 1598.5 3135.69 1598.5 3139.5 1602.08 3139.5 1606.5 3139.5 1610.92 3135.69 1614.5 3131 1614.5 3126.31 1614.5 3122.5 1610.92 3122.5 1606.5Z" stroke="#000000" stroke-width="0" stroke-linejoin="round" stroke-miterlimit="10" fill="#FF0000" fill-rule="evenodd"/><path d="M3196.5 969.5C3196.5 965.082 3200.08 961.5 3204.5 961.5 3208.92 961.5 3212.5 965.082 3212.5 969.5 3212.5 973.918 3208.92 977.5 3204.5 977.5 3200.08 977.5 3196.5 973.918 3196.5 969.5Z" stroke="#000000" stroke-width="0" stroke-linejoin="round" stroke-miterlimit="10" fill="#FF0000" fill-rule="evenodd"/><path d="M3269.5 969.5C3269.5 965.082 3273.08 961.5 3277.5 961.5 3281.92 961.5 3285.5 965.082 3285.5 969.5 3285.5 973.918 3281.92 977.5 3277.5 977.5 3273.08 977.5 3269.5 973.918 3269.5 969.5Z" stroke="#000000" stroke-width="0" stroke-linejoin="round" stroke-miterlimit="10" fill="#FF0000" fill-rule="evenodd"/><path d="M3342.5 969.5C3342.5 965.082 3346.08 961.5 3350.5 961.5 3354.92 961.5 3358.5 965.082 3358.5 969.5 3358.5 973.918 3354.92 977.5 3350.5 977.5 3346.08 977.5 3342.5 973.918 3342.5 969.5Z" stroke="#000000" stroke-width="0" stroke-linejoin="round" stroke-miterlimit="10" fill="#FF0000" fill-rule="evenodd"/><path d="M3415.5 1606.5C3415.5 1602.08 3419.08 1598.5 3423.5 1598.5 3427.92 1598.5 3431.5 1602.08 3431.5 1606.5 3431.5 1610.92 3427.92 1614.5 3423.5 1614.5 3419.08 1614.5 3415.5 1610.92 3415.5 1606.5Z" stroke="#000000" stroke-width="0" stroke-linejoin="round" stroke-miterlimit="10" fill="#FF0000" fill-rule="evenodd"/><path d="M3488.5 969.5C3488.5 965.082 3491.86 961.5 3496 961.5 3500.14 961.5 3503.5 965.082 3503.5 969.5 3503.5 973.918 3500.14 977.5 3496 977.5 3491.86 977.5 3488.5 973.918 3488.5 969.5Z" stroke="#000000" stroke-width="0" stroke-linejoin="round" stroke-miterlimit="10" fill="#FF0000" fill-rule="evenodd"/><path d="M3561.5 969.5C3561.5 965.082 3565.08 961.5 3569.5 961.5 3573.92 961.5 3577.5 965.082 3577.5 969.5 3577.5 973.918 3573.92 977.5 3569.5 977.5 3565.08 977.5 3561.5 973.918 3561.5 969.5Z" stroke="#000000" stroke-width="0" stroke-linejoin="round" stroke-miterlimit="10" fill="#FF0000" fill-rule="evenodd"/><path d="M3633.5 1606.5C3633.5 1602.08 3637.31 1598.5 3642 1598.5 3646.69 1598.5 3650.5 1602.08 3650.5 1606.5 3650.5 1610.92 3646.69 1614.5 3642 1614.5 3637.31 1614.5 3633.5 1610.92 3633.5 1606.5Z" stroke="#000000" stroke-width="0" stroke-linejoin="round" stroke-miterlimit="10" fill="#FF0000" fill-rule="evenodd"/><path d="M3707.5 1606.5C3707.5 1602.08 3711.08 1598.5 3715.5 1598.5 3719.92 1598.5 3723.5 1602.08 3723.5 1606.5 3723.5 1610.92 3719.92 1614.5 3715.5 1614.5 3711.08 1614.5 3707.5 1610.92 3707.5 1606.5Z" stroke="#000000" stroke-width="0" stroke-linejoin="round" stroke-miterlimit="10" fill="#FF0000" fill-rule="evenodd"/><path d="M3780.5 969.5C3780.5 965.082 3784.08 961.5 3788.5 961.5 3792.92 961.5 3796.5 965.082 3796.5 969.5 3796.5 973.918 3792.92 977.5 3788.5 977.5 3784.08 977.5 3780.5 973.918 3780.5 969.5Z" stroke="#000000" stroke-width="0" stroke-linejoin="round" stroke-miterlimit="10" fill="#FF0000" fill-rule="evenodd"/><path d="M3853.5 969.5C3853.5 965.082 3857.08 961.5 3861.5 961.5 3865.92 961.5 3869.5 965.082 3869.5 969.5 3869.5 973.918 3865.92 977.5 3861.5 977.5 3857.08 977.5 3853.5 973.918 3853.5 969.5Z" stroke="#000000" stroke-width="0" stroke-linejoin="round" stroke-miterlimit="10" fill="#FF0000" fill-rule="evenodd"/><path d="M3926.5 1606.5C3926.5 1602.08 3930.08 1598.5 3934.5 1598.5 3938.92 1598.5 3942.5 1602.08 3942.5 1606.5 3942.5 1610.92 3938.92 1614.5 3934.5 1614.5 3930.08 1614.5 3926.5 1610.92 3926.5 1606.5Z" stroke="#000000" stroke-width="0" stroke-linejoin="round" stroke-miterlimit="10" fill="#FF0000" fill-rule="evenodd"/><path d="M3999.5 969.5C3999.5 965.082 4002.86 961.5 4007 961.5 4011.14 961.5 4014.5 965.082 4014.5 969.5 4014.5 973.918 4011.14 977.5 4007 977.5 4002.86 977.5 3999.5 973.918 3999.5 969.5Z" stroke="#000000" stroke-width="0" stroke-linejoin="round" stroke-miterlimit="10" fill="#FF0000" fill-rule="evenodd"/><path d="M4072.5 969.5C4072.5 965.082 4076.08 961.5 4080.5 961.5 4084.92 961.5 4088.5 965.082 4088.5 969.5 4088.5 973.918 4084.92 977.5 4080.5 977.5 4076.08 977.5 4072.5 973.918 4072.5 969.5Z" stroke="#000000" stroke-width="0" stroke-linejoin="round" stroke-miterlimit="10" fill="#FF0000" fill-rule="evenodd"/><path d="M4144.5 1606.5C4144.5 1602.08 4148.31 1598.5 4153 1598.5 4157.69 1598.5 4161.5 1602.08 4161.5 1606.5 4161.5 1610.92 4157.69 1614.5 4153 1614.5 4148.31 1614.5 4144.5 1610.92 4144.5 1606.5Z" stroke="#000000" stroke-width="0" stroke-linejoin="round" stroke-miterlimit="10" fill="#FF0000" fill-rule="evenodd"/><path d="M4218.5 1606.5C4218.5 1602.08 4222.08 1598.5 4226.5 1598.5 4230.92 1598.5 4234.5 1602.08 4234.5 1606.5 4234.5 1610.92 4230.92 1614.5 4226.5 1614.5 4222.08 1614.5 4218.5 1610.92 4218.5 1606.5Z" stroke="#000000" stroke-width="0" stroke-linejoin="round" stroke-miterlimit="10" fill="#FF0000" fill-rule="evenodd"/><path d="M0 0 0.000360892 318" stroke="#FF0000" stroke-width="4.0106" stroke-linejoin="round" stroke-miterlimit="10" fill="none" fill-rule="evenodd" transform="matrix(1 0 0 -1 211 1287)"/><path d="M0 0 0.000360892 318" stroke="#FF0000" stroke-width="4.0106" stroke-linejoin="round" stroke-miterlimit="10" fill="none" fill-rule="evenodd" transform="matrix(1 0 0 -1 284 1287)"/><path d="M357 1287 357.001 1606" stroke="#FF0000" stroke-width="4.0106" stroke-linejoin="round" stroke-miterlimit="10" fill="none" fill-rule="evenodd"/><path d="M0 0 0.000360892 318" stroke="#FF0000" stroke-width="4.0106" stroke-linejoin="round" stroke-miterlimit="10" fill="none" fill-rule="evenodd" transform="matrix(1 0 0 -1 430 1287)"/><path d="M0 0 0.000360892 318" stroke="#FF0000" stroke-width="4.0106" stroke-linejoin="round" stroke-miterlimit="10" fill="none" fill-rule="evenodd" transform="matrix(1 0 0 -1 503 1287)"/><path d="M576 1287 576 1606" stroke="#FF0000" stroke-width="4.0106" stroke-linejoin="round" stroke-miterlimit="10" fill="none" fill-rule="evenodd"/><path d="M0 0 0.000360892 318" stroke="#FF0000" stroke-width="4.0106" stroke-linejoin="round" stroke-miterlimit="10" fill="none" fill-rule="evenodd" transform="matrix(1 0 0 -1 649 1287)"/><path d="M0 0 0.000360892 318" stroke="#FF0000" stroke-width="4.0106" stroke-linejoin="round" stroke-miterlimit="10" fill="none" fill-rule="evenodd" transform="matrix(1 0 0 -1 722 1287)"/><path d="M0 0 0.000360892 318" stroke="#FF0000" stroke-width="4.0106" stroke-linejoin="round" stroke-miterlimit="10" fill="none" fill-rule="evenodd" transform="matrix(1 0 0 -1 795 1287)"/><path d="M868 1287 868 1606" stroke="#FF0000" stroke-width="4.0106" stroke-linejoin="round" stroke-miterlimit="10" fill="none" fill-rule="evenodd"/><path d="M941 1287 941 1606" stroke="#FF0000" stroke-width="4.0106" stroke-linejoin="round" stroke-miterlimit="10" fill="none" fill-rule="evenodd"/><path d="M0 0 0.000360892 318" stroke="#FF0000" stroke-width="4.0106" stroke-linejoin="round" stroke-miterlimit="10" fill="none" fill-rule="evenodd" transform="matrix(1 0 0 -1 1014 1287)"/><path d="M1087 1287 1087 1606" stroke="#FF0000" stroke-width="4.0106" stroke-linejoin="round" stroke-miterlimit="10" fill="none" fill-rule="evenodd"/><path d="M0 0 0.000360892 318" stroke="#FF0000" stroke-width="4.0106" stroke-linejoin="round" stroke-miterlimit="10" fill="none" fill-rule="evenodd" transform="matrix(1 0 0 -1 1160 1287)"/><path d="M0 0 0.000360892 318" stroke="#FF0000" stroke-width="4.0106" stroke-linejoin="round" stroke-miterlimit="10" fill="none" fill-rule="evenodd" transform="matrix(1 0 0 -1 1233 1287)"/><path d="M0 0 0.000360892 318" stroke="#FF0000" stroke-width="4.0106" stroke-linejoin="round" stroke-miterlimit="10" fill="none" fill-rule="evenodd" transform="matrix(1 0 0 -1 1306 1287)"/><path d="M1379 1287 1379 1606" stroke="#FF0000" stroke-width="4.0106" stroke-linejoin="round" stroke-miterlimit="10" fill="none" fill-rule="evenodd"/><path d="M1452 1287 1452 1606" stroke="#FF0000" stroke-width="4.0106" stroke-linejoin="round" stroke-miterlimit="10" fill="none" fill-rule="evenodd"/><path d="M1525 1287 1525 1606" stroke="#FF0000" stroke-width="4.0106" stroke-linejoin="round" stroke-miterlimit="10" fill="none" fill-rule="evenodd"/><path d="M1598 1287 1598 1606" stroke="#FF0000" stroke-width="4.0106" stroke-linejoin="round" stroke-miterlimit="10" fill="none" fill-rule="evenodd"/><path d="M0 0 0.000360892 318" stroke="#FF0000" stroke-width="4.0106" stroke-linejoin="round" stroke-miterlimit="10" fill="none" fill-rule="evenodd" transform="matrix(1 0 0 -1 1671 1287)"/><path d="M0 0 0.000360892 318" stroke="#FF0000" stroke-width="4.0106" stroke-linejoin="round" stroke-miterlimit="10" fill="none" fill-rule="evenodd" transform="matrix(1 0 0 -1 1743 1287)"/><path d="M0 0 0.000360892 318" stroke="#FF0000" stroke-width="4.0106" stroke-linejoin="round" stroke-miterlimit="10" fill="none" fill-rule="evenodd" transform="matrix(1 0 0 -1 1817 1287)"/><path d="M0 0 0.000360892 318" stroke="#FF0000" stroke-width="4.0106" stroke-linejoin="round" stroke-miterlimit="10" fill="none" fill-rule="evenodd" transform="matrix(1 0 0 -1 1890 1287)"/><path d="M1963 1287 1963 1606" stroke="#FF0000" stroke-width="4.0106" stroke-linejoin="round" stroke-miterlimit="10" fill="none" fill-rule="evenodd"/><path d="M0 0 0.000360892 318" stroke="#FF0000" stroke-width="4.0106" stroke-linejoin="round" stroke-miterlimit="10" fill="none" fill-rule="evenodd" transform="matrix(1 0 0 -1 2036 1287)"/><path d="M2109 1287 2109 1606" stroke="#FF0000" stroke-width="4.0106" stroke-linejoin="round" stroke-miterlimit="10" fill="none" fill-rule="evenodd"/><path d="M2182 1287 2182 1606" stroke="#FF0000" stroke-width="4.0106" stroke-linejoin="round" stroke-miterlimit="10" fill="none" fill-rule="evenodd"/><path d="M0 0 0.000360892 318" stroke="#FF0000" stroke-width="4.0106" stroke-linejoin="round" stroke-miterlimit="10" fill="none" fill-rule="evenodd" transform="matrix(1 0 0 -1 2254 1287)"/><path d="M0 0 0.000360892 318" stroke="#FF0000" stroke-width="4.0106" stroke-linejoin="round" stroke-miterlimit="10" fill="none" fill-rule="evenodd" transform="matrix(1 0 0 -1 2328 1287)"/><path d="M2401 1287 2401 1606" stroke="#FF0000" stroke-width="4.0106" stroke-linejoin="round" stroke-miterlimit="10" fill="none" fill-rule="evenodd"/><path d="M2474 1287 2474 1606" stroke="#FF0000" stroke-width="4.0106" stroke-linejoin="round" stroke-miterlimit="10" fill="none" fill-rule="evenodd"/><path d="M2547 1287 2547 1606" stroke="#FF0000" stroke-width="4.0106" stroke-linejoin="round" stroke-miterlimit="10" fill="none" fill-rule="evenodd"/><path d="M0 0 0.000360892 318" stroke="#FF0000" stroke-width="4.0106" stroke-linejoin="round" stroke-miterlimit="10" fill="none" fill-rule="evenodd" transform="matrix(1 0 0 -1 2620 1287)"/><path d="M2693 1287 2693 1606" stroke="#FF0000" stroke-width="4.0106" stroke-linejoin="round" stroke-miterlimit="10" fill="none" fill-rule="evenodd"/><path d="M0 0 0.000360892 318" stroke="#FF0000" stroke-width="4.0106" stroke-linejoin="round" stroke-miterlimit="10" fill="none" fill-rule="evenodd" transform="matrix(1 0 0 -1 2765 1287)"/><path d="M0 0 0.000360892 318" stroke="#FF0000" stroke-width="4.0106" stroke-linejoin="round" stroke-miterlimit="10" fill="none" fill-rule="evenodd" transform="matrix(1 0 0 -1 2839 1287)"/><path d="M2912 1287 2912 1606" stroke="#FF0000" stroke-width="4.0106" stroke-linejoin="round" stroke-miterlimit="10" fill="none" fill-rule="evenodd"/><path d="M2985 1287 2985 1606" stroke="#FF0000" stroke-width="4.0106" stroke-linejoin="round" stroke-miterlimit="10" fill="none" fill-rule="evenodd"/><path d="M3058 1287 3058 1606" stroke="#FF0000" stroke-width="4.0106" stroke-linejoin="round" stroke-miterlimit="10" fill="none" fill-rule="evenodd"/><path d="M3131 1287 3131 1606" stroke="#FF0000" stroke-width="4.0106" stroke-linejoin="round" stroke-miterlimit="10" fill="none" fill-rule="evenodd"/><path d="M0 0 0.000360892 318" stroke="#FF0000" stroke-width="4.0106" stroke-linejoin="round" stroke-miterlimit="10" fill="none" fill-rule="evenodd" transform="matrix(1 0 0 -1 3204 1287)"/><path d="M0 0 0.000360892 318" stroke="#FF0000" stroke-width="4.0106" stroke-linejoin="round" stroke-miterlimit="10" fill="none" fill-rule="evenodd" transform="matrix(1 0 0 -1 3277 1287)"/><path d="M0 0 0.000360892 318" stroke="#FF0000" stroke-width="4.0106" stroke-linejoin="round" stroke-miterlimit="10" fill="none" fill-rule="evenodd" transform="matrix(1 0 0 -1 3350 1287)"/><path d="M3423 1287 3423 1606" stroke="#FF0000" stroke-width="4.0106" stroke-linejoin="round" stroke-miterlimit="10" fill="none" fill-rule="evenodd"/><path d="M0 0 0.000360892 318" stroke="#FF0000" stroke-width="4.0106" stroke-linejoin="round" stroke-miterlimit="10" fill="none" fill-rule="evenodd" transform="matrix(1 0 0 -1 3496 1287)"/><path d="M0 0 0.000360892 318" stroke="#FF0000" stroke-width="4.0106" stroke-linejoin="round" stroke-miterlimit="10" fill="none" fill-rule="evenodd" transform="matrix(1 0 0 -1 3569 1287)"/><path d="M3642 1287 3642 1606" stroke="#FF0000" stroke-width="4.0106" stroke-linejoin="round" stroke-miterlimit="10" fill="none" fill-rule="evenodd"/><path d="M3715 1287 3715 1606" stroke="#FF0000" stroke-width="4.0106" stroke-linejoin="round" stroke-miterlimit="10" fill="none" fill-rule="evenodd"/><path d="M0 0 0.000360892 318" stroke="#FF0000" stroke-width="4.0106" stroke-linejoin="round" stroke-miterlimit="10" fill="none" fill-rule="evenodd" transform="matrix(1 0 0 -1 3788 1287)"/><path d="M0 0 0.000360892 318" stroke="#FF0000" stroke-width="4.0106" stroke-linejoin="round" stroke-miterlimit="10" fill="none" fill-rule="evenodd" transform="matrix(1 0 0 -1 3861 1287)"/><path d="M3934 1287 3934 1606" stroke="#FF0000" stroke-width="4.0106" stroke-linejoin="round" stroke-miterlimit="10" fill="none" fill-rule="evenodd"/><path d="M0 0 0.000360892 318" stroke="#FF0000" stroke-width="4.0106" stroke-linejoin="round" stroke-miterlimit="10" fill="none" fill-rule="evenodd" transform="matrix(1 0 0 -1 4007 1287)"/><path d="M0 0 0.000360892 318" stroke="#FF0000" stroke-width="4.0106" stroke-linejoin="round" stroke-miterlimit="10" fill="none" fill-rule="evenodd" transform="matrix(1 0 0 -1 4080 1287)"/><path d="M4153 1287 4153 1606" stroke="#FF0000" stroke-width="4.0106" stroke-linejoin="round" stroke-miterlimit="10" fill="none" fill-rule="evenodd"/><path d="M4226 1287 4226 1606" stroke="#FF0000" stroke-width="4.0106" stroke-linejoin="round" stroke-miterlimit="10" fill="none" fill-rule="evenodd"/><path d="M239.5 928.5C239.5 924.082 243.306 920.5 248 920.5 252.694 920.5 256.5 924.082 256.5 928.5 256.5 932.918 252.694 936.5 248 936.5 243.306 936.5 239.5 932.918 239.5 928.5Z" stroke="#000000" stroke-width="0" stroke-linejoin="round" stroke-miterlimit="10" fill-rule="evenodd"/><path d="M312.5 1311.5C312.5 1307.08 316.082 1303.5 320.5 1303.5 324.918 1303.5 328.5 1307.08 328.5 1311.5 328.5 1315.92 324.918 1319.5 320.5 1319.5 316.082 1319.5 312.5 1315.92 312.5 1311.5Z" stroke="#000000" stroke-width="0" stroke-linejoin="round" stroke-miterlimit="10" fill-rule="evenodd"/><path d="M386.5 1311.5C386.5 1307.08 390.082 1303.5 394.5 1303.5 398.918 1303.5 402.5 1307.08 402.5 1311.5 402.5 1315.92 398.918 1319.5 394.5 1319.5 390.082 1319.5 386.5 1315.92 386.5 1311.5Z" stroke="#000000" stroke-width="0" stroke-linejoin="round" stroke-miterlimit="10" fill-rule="evenodd"/><path d="M458.5 917.5C458.5 913.082 462.082 909.5 466.5 909.5 470.918 909.5 474.5 913.082 474.5 917.5 474.5 921.918 470.918 925.5 466.5 925.5 462.082 925.5 458.5 921.918 458.5 917.5Z" stroke="#000000" stroke-width="0" stroke-linejoin="round" stroke-miterlimit="10" fill-rule="evenodd"/><path d="M532.5 1311.5C532.5 1307.08 535.858 1303.5 540 1303.5 544.142 1303.5 547.5 1307.08 547.5 1311.5 547.5 1315.92 544.142 1319.5 540 1319.5 535.858 1319.5 532.5 1315.92 532.5 1311.5Z" stroke="#000000" stroke-width="0" stroke-linejoin="round" stroke-miterlimit="10" fill-rule="evenodd"/><path d="M604.5 1311.5C604.5 1307.08 608.082 1303.5 612.5 1303.5 616.918 1303.5 620.5 1307.08 620.5 1311.5 620.5 1315.92 616.918 1319.5 612.5 1319.5 608.082 1319.5 604.5 1315.92 604.5 1311.5Z" stroke="#000000" stroke-width="0" stroke-linejoin="round" stroke-miterlimit="10" fill-rule="evenodd"/><path d="M677.5 940.5C677.5 936.082 681.082 932.5 685.5 932.5 689.918 932.5 693.5 936.082 693.5 940.5 693.5 944.918 689.918 948.5 685.5 948.5 681.082 948.5 677.5 944.918 677.5 940.5Z" stroke="#000000" stroke-width="0" stroke-linejoin="round" stroke-miterlimit="10" fill-rule="evenodd"/><path d="M750.5 940.5C750.5 936.082 754.305 932.5 759 932.5 763.694 932.5 767.5 936.082 767.5 940.5 767.5 944.918 763.694 948.5 759 948.5 754.305 948.5 750.5 944.918 750.5 940.5Z" stroke="#000000" stroke-width="0" stroke-linejoin="round" stroke-miterlimit="10" fill-rule="evenodd"/><path d="M823.5 1288C823.5 1283.31 827.082 1279.5 831.5 1279.5 835.918 1279.5 839.5 1283.31 839.5 1288 839.5 1292.69 835.918 1296.5 831.5 1296.5 827.082 1296.5 823.5 1292.69 823.5 1288Z" stroke="#000000" stroke-width="0" stroke-linejoin="round" stroke-miterlimit="10" fill-rule="evenodd"/><path d="M897.5 1659.5C897.5 1655.08 901.082 1651.5 905.5 1651.5 909.918 1651.5 913.5 1655.08 913.5 1659.5 913.5 1663.92 909.918 1667.5 905.5 1667.5 901.082 1667.5 897.5 1663.92 897.5 1659.5Z" stroke="#000000" stroke-width="0" stroke-linejoin="round" stroke-miterlimit="10" fill-rule="evenodd"/><path d="M969.5 1265C969.5 1260.31 973.082 1256.5 977.5 1256.5 981.918 1256.5 985.5 1260.31 985.5 1265 985.5 1269.69 981.918 1273.5 977.5 1273.5 973.082 1273.5 969.5 1269.69 969.5 1265Z" stroke="#000000" stroke-width="0" stroke-linejoin="round" stroke-miterlimit="10" fill-rule="evenodd"/><path d="M1042.5 1288C1042.5 1283.31 1046.08 1279.5 1050.5 1279.5 1054.92 1279.5 1058.5 1283.31 1058.5 1288 1058.5 1292.69 1054.92 1296.5 1050.5 1296.5 1046.08 1296.5 1042.5 1292.69 1042.5 1288Z" stroke="#000000" stroke-width="0" stroke-linejoin="round" stroke-miterlimit="10" fill-rule="evenodd"/><path d="M1115.5 1311.5C1115.5 1307.08 1119.08 1303.5 1123.5 1303.5 1127.92 1303.5 1131.5 1307.08 1131.5 1311.5 1131.5 1315.92 1127.92 1319.5 1123.5 1319.5 1119.08 1319.5 1115.5 1315.92 1115.5 1311.5Z" stroke="#000000" stroke-width="0" stroke-linejoin="round" stroke-miterlimit="10" fill-rule="evenodd"/><path d="M1188.5 940.5C1188.5 936.082 1192.08 932.5 1196.5 932.5 1200.92 932.5 1204.5 936.082 1204.5 940.5 1204.5 944.918 1200.92 948.5 1196.5 948.5 1192.08 948.5 1188.5 944.918 1188.5 940.5Z" stroke="#000000" stroke-width="0" stroke-linejoin="round" stroke-miterlimit="10" fill-rule="evenodd"/><path d="M1261.5 940.5C1261.5 936.082 1265.31 932.5 1270 932.5 1274.69 932.5 1278.5 936.082 1278.5 940.5 1278.5 944.918 1274.69 948.5 1270 948.5 1265.31 948.5 1261.5 944.918 1261.5 940.5Z" stroke="#000000" stroke-width="0" stroke-linejoin="round" stroke-miterlimit="10" fill-rule="evenodd"/><path d="M1334.5 1288C1334.5 1283.31 1338.08 1279.5 1342.5 1279.5 1346.92 1279.5 1350.5 1283.31 1350.5 1288 1350.5 1292.69 1346.92 1296.5 1342.5 1296.5 1338.08 1296.5 1334.5 1292.69 1334.5 1288Z" stroke="#000000" stroke-width="0" stroke-linejoin="round" stroke-miterlimit="10" fill-rule="evenodd"/><path d="M1408.5 1636.5C1408.5 1632.08 1411.86 1628.5 1416 1628.5 1420.14 1628.5 1423.5 1632.08 1423.5 1636.5 1423.5 1640.92 1420.14 1644.5 1416 1644.5 1411.86 1644.5 1408.5 1640.92 1408.5 1636.5Z" stroke="#000000" stroke-width="0" stroke-linejoin="round" stroke-miterlimit="10" fill-rule="evenodd"/><path d="M1480.5 1613.5C1480.5 1609.08 1484.08 1605.5 1488.5 1605.5 1492.92 1605.5 1496.5 1609.08 1496.5 1613.5 1496.5 1617.92 1492.92 1621.5 1488.5 1621.5 1484.08 1621.5 1480.5 1617.92 1480.5 1613.5Z" stroke="#000000" stroke-width="0" stroke-linejoin="round" stroke-miterlimit="10" fill-rule="evenodd"/><path d="M1553.5 1636.5C1553.5 1632.08 1557.08 1628.5 1561.5 1628.5 1565.92 1628.5 1569.5 1632.08 1569.5 1636.5 1569.5 1640.92 1565.92 1644.5 1561.5 1644.5 1557.08 1644.5 1553.5 1640.92 1553.5 1636.5Z" stroke="#000000" stroke-width="0" stroke-linejoin="round" stroke-miterlimit="10" fill-rule="evenodd"/><path d="M1627.5 1288C1627.5 1283.31 1630.86 1279.5 1635 1279.5 1639.14 1279.5 1642.5 1283.31 1642.5 1288 1642.5 1292.69 1639.14 1296.5 1635 1296.5 1630.86 1296.5 1627.5 1292.69 1627.5 1288Z" stroke="#000000" stroke-width="0" stroke-linejoin="round" stroke-miterlimit="10" fill-rule="evenodd"/><path d="M1699.5 940.5C1699.5 936.082 1703.08 932.5 1707.5 932.5 1711.92 932.5 1715.5 936.082 1715.5 940.5 1715.5 944.918 1711.92 948.5 1707.5 948.5 1703.08 948.5 1699.5 944.918 1699.5 940.5Z" stroke="#000000" stroke-width="0" stroke-linejoin="round" stroke-miterlimit="10" fill-rule="evenodd"/><path d="M1772.5 963C1772.5 958.306 1776.31 954.5 1781 954.5 1785.69 954.5 1789.5 958.306 1789.5 963 1789.5 967.694 1785.69 971.5 1781 971.5 1776.31 971.5 1772.5 967.694 1772.5 963Z" stroke="#000000" stroke-width="0" stroke-linejoin="round" stroke-miterlimit="10" fill-rule="evenodd"/><path d="M1845.5 940.5C1845.5 936.082 1849.08 932.5 1853.5 932.5 1857.92 932.5 1861.5 936.082 1861.5 940.5 1861.5 944.918 1857.92 948.5 1853.5 948.5 1849.08 948.5 1845.5 944.918 1845.5 940.5Z" stroke="#000000" stroke-width="0" stroke-linejoin="round" stroke-miterlimit="10" fill-rule="evenodd"/><path d="M1918.5 1311.5C1918.5 1307.08 1922.08 1303.5 1926.5 1303.5 1930.92 1303.5 1934.5 1307.08 1934.5 1311.5 1934.5 1315.92 1930.92 1319.5 1926.5 1319.5 1922.08 1319.5 1918.5 1315.92 1918.5 1311.5Z" stroke="#000000" stroke-width="0" stroke-linejoin="round" stroke-miterlimit="10" fill-rule="evenodd"/><path d="M1991.5 1288C1991.5 1283.31 1995.31 1279.5 2000 1279.5 2004.69 1279.5 2008.5 1283.31 2008.5 1288 2008.5 1292.69 2004.69 1296.5 2000 1296.5 1995.31 1296.5 1991.5 1292.69 1991.5 1288Z" stroke="#000000" stroke-width="0" stroke-linejoin="round" stroke-miterlimit="10" fill-rule="evenodd"/><path d="M2064.5 1265C2064.5 1260.31 2068.08 1256.5 2072.5 1256.5 2076.92 1256.5 2080.5 1260.31 2080.5 1265 2080.5 1269.69 2076.92 1273.5 2072.5 1273.5 2068.08 1273.5 2064.5 1269.69 2064.5 1265Z" stroke="#000000" stroke-width="0" stroke-linejoin="round" stroke-miterlimit="10" fill-rule="evenodd"/><path d="M2138.5 1659.5C2138.5 1655.08 2141.86 1651.5 2146 1651.5 2150.14 1651.5 2153.5 1655.08 2153.5 1659.5 2153.5 1663.92 2150.14 1667.5 2146 1667.5 2141.86 1667.5 2138.5 1663.92 2138.5 1659.5Z" stroke="#000000" stroke-width="0" stroke-linejoin="round" stroke-miterlimit="10" fill-rule="evenodd"/><path d="M2210.5 1288C2210.5 1283.31 2214.08 1279.5 2218.5 1279.5 2222.92 1279.5 2226.5 1283.31 2226.5 1288 2226.5 1292.69 2222.92 1296.5 2218.5 1296.5 2214.08 1296.5 2210.5 1292.69 2210.5 1288Z" stroke="#000000" stroke-width="0" stroke-linejoin="round" stroke-miterlimit="10" fill-rule="evenodd"/><path d="M2283.5 917.5C2283.5 913.082 2287.08 909.5 2291.5 909.5 2295.92 909.5 2299.5 913.082 2299.5 917.5 2299.5 921.918 2295.92 925.5 2291.5 925.5 2287.08 925.5 2283.5 921.918 2283.5 917.5Z" stroke="#000000" stroke-width="0" stroke-linejoin="round" stroke-miterlimit="10" fill-rule="evenodd"/><path d="M2356.5 1288C2356.5 1283.31 2360.08 1279.5 2364.5 1279.5 2368.92 1279.5 2372.5 1283.31 2372.5 1288 2372.5 1292.69 2368.92 1296.5 2364.5 1296.5 2360.08 1296.5 2356.5 1292.69 2356.5 1288Z" stroke="#000000" stroke-width="0" stroke-linejoin="round" stroke-miterlimit="10" fill-rule="evenodd"/><path d="M2429.5 1636.5C2429.5 1632.08 2433.08 1628.5 2437.5 1628.5 2441.92 1628.5 2445.5 1632.08 2445.5 1636.5 2445.5 1640.92 2441.92 1644.5 2437.5 1644.5 2433.08 1644.5 2429.5 1640.92 2429.5 1636.5Z" stroke="#000000" stroke-width="0" stroke-linejoin="round" stroke-miterlimit="10" fill-rule="evenodd"/><path d="M2503.5 1636.5C2503.5 1632.08 2507.08 1628.5 2511.5 1628.5 2515.92 1628.5 2519.5 1632.08 2519.5 1636.5 2519.5 1640.92 2515.92 1644.5 2511.5 1644.5 2507.08 1644.5 2503.5 1640.92 2503.5 1636.5Z" stroke="#000000" stroke-width="0" stroke-linejoin="round" stroke-miterlimit="10" fill-rule="evenodd"/><path d="M2575.5 1265C2575.5 1260.31 2579.08 1256.5 2583.5 1256.5 2587.92 1256.5 2591.5 1260.31 2591.5 1265 2591.5 1269.69 2587.92 1273.5 2583.5 1273.5 2579.08 1273.5 2575.5 1269.69 2575.5 1265Z" stroke="#000000" stroke-width="0" stroke-linejoin="round" stroke-miterlimit="10" fill-rule="evenodd"/><path d="M2649.5 1288C2649.5 1283.31 2652.86 1279.5 2657 1279.5 2661.14 1279.5 2664.5 1283.31 2664.5 1288 2664.5 1292.69 2661.14 1296.5 2657 1296.5 2652.86 1296.5 2649.5 1292.69 2649.5 1288Z" stroke="#000000" stroke-width="0" stroke-linejoin="round" stroke-miterlimit="10" fill-rule="evenodd"/><path d="M2721.5 1311.5C2721.5 1307.08 2725.08 1303.5 2729.5 1303.5 2733.92 1303.5 2737.5 1307.08 2737.5 1311.5 2737.5 1315.92 2733.92 1319.5 2729.5 1319.5 2725.08 1319.5 2721.5 1315.92 2721.5 1311.5Z" stroke="#000000" stroke-width="0" stroke-linejoin="round" stroke-miterlimit="10" fill-rule="evenodd"/><path d="M2794.5 917.5C2794.5 913.082 2798.08 909.5 2802.5 909.5 2806.92 909.5 2810.5 913.082 2810.5 917.5 2810.5 921.918 2806.92 925.5 2802.5 925.5 2798.08 925.5 2794.5 921.918 2794.5 917.5Z" stroke="#000000" stroke-width="0" stroke-linejoin="round" stroke-miterlimit="10" fill-rule="evenodd"/><path d="M2867.5 1288C2867.5 1283.31 2871.08 1279.5 2875.5 1279.5 2879.92 1279.5 2883.5 1283.31 2883.5 1288 2883.5 1292.69 2879.92 1296.5 2875.5 1296.5 2871.08 1296.5 2867.5 1292.69 2867.5 1288Z" stroke="#000000" stroke-width="0" stroke-linejoin="round" stroke-miterlimit="10" fill-rule="evenodd"/><path d="M2940.5 1636.5C2940.5 1632.08 2944.08 1628.5 2948.5 1628.5 2952.92 1628.5 2956.5 1632.08 2956.5 1636.5 2956.5 1640.92 2952.92 1644.5 2948.5 1644.5 2944.08 1644.5 2940.5 1640.92 2940.5 1636.5Z" stroke="#000000" stroke-width="0" stroke-linejoin="round" stroke-miterlimit="10" fill-rule="evenodd"/><path d="M3014.5 1613.5C3014.5 1609.08 3018.08 1605.5 3022.5 1605.5 3026.92 1605.5 3030.5 1609.08 3030.5 1613.5 3030.5 1617.92 3026.92 1621.5 3022.5 1621.5 3018.08 1621.5 3014.5 1617.92 3014.5 1613.5Z" stroke="#000000" stroke-width="0" stroke-linejoin="round" stroke-miterlimit="10" fill-rule="evenodd"/><path d="M3086.5 1636.5C3086.5 1632.08 3090.08 1628.5 3094.5 1628.5 3098.92 1628.5 3102.5 1632.08 3102.5 1636.5 3102.5 1640.92 3098.92 1644.5 3094.5 1644.5 3090.08 1644.5 3086.5 1640.92 3086.5 1636.5Z" stroke="#000000" stroke-width="0" stroke-linejoin="round" stroke-miterlimit="10" fill-rule="evenodd"/><path d="M3159.5 1288C3159.5 1283.31 3163.08 1279.5 3167.5 1279.5 3171.92 1279.5 3175.5 1283.31 3175.5 1288 3175.5 1292.69 3171.92 1296.5 3167.5 1296.5 3163.08 1296.5 3159.5 1292.69 3159.5 1288Z" stroke="#000000" stroke-width="0" stroke-linejoin="round" stroke-miterlimit="10" fill-rule="evenodd"/><path d="M3232.5 940.5C3232.5 936.082 3236.08 932.5 3240.5 932.5 3244.92 932.5 3248.5 936.082 3248.5 940.5 3248.5 944.918 3244.92 948.5 3240.5 948.5 3236.08 948.5 3232.5 944.918 3232.5 940.5Z" stroke="#000000" stroke-width="0" stroke-linejoin="round" stroke-miterlimit="10" fill-rule="evenodd"/><path d="M3305.5 940.5C3305.5 936.082 3309.08 932.5 3313.5 932.5 3317.92 932.5 3321.5 936.082 3321.5 940.5 3321.5 944.918 3317.92 948.5 3313.5 948.5 3309.08 948.5 3305.5 944.918 3305.5 940.5Z" stroke="#000000" stroke-width="0" stroke-linejoin="round" stroke-miterlimit="10" fill-rule="evenodd"/><path d="M3378.5 1311.5C3378.5 1307.08 3382.31 1303.5 3387 1303.5 3391.69 1303.5 3395.5 1307.08 3395.5 1311.5 3395.5 1315.92 3391.69 1319.5 3387 1319.5 3382.31 1319.5 3378.5 1315.92 3378.5 1311.5Z" stroke="#000000" stroke-width="0" stroke-linejoin="round" stroke-miterlimit="10" fill-rule="evenodd"/><path d="M3451.5 1311.5C3451.5 1307.08 3455.08 1303.5 3459.5 1303.5 3463.92 1303.5 3467.5 1307.08 3467.5 1311.5 3467.5 1315.92 3463.92 1319.5 3459.5 1319.5 3455.08 1319.5 3451.5 1315.92 3451.5 1311.5Z" stroke="#000000" stroke-width="0" stroke-linejoin="round" stroke-miterlimit="10" fill-rule="evenodd"/><path d="M3525.5 917.5C3525.5 913.082 3528.86 909.5 3533 909.5 3537.14 909.5 3540.5 913.082 3540.5 917.5 3540.5 921.918 3537.14 925.5 3533 925.5 3528.86 925.5 3525.5 921.918 3525.5 917.5Z" stroke="#000000" stroke-width="0" stroke-linejoin="round" stroke-miterlimit="10" fill-rule="evenodd"/><path d="M3597.5 1288C3597.5 1283.31 3601.08 1279.5 3605.5 1279.5 3609.92 1279.5 3613.5 1283.31 3613.5 1288 3613.5 1292.69 3609.92 1296.5 3605.5 1296.5 3601.08 1296.5 3597.5 1292.69 3597.5 1288Z" stroke="#000000" stroke-width="0" stroke-linejoin="round" stroke-miterlimit="10" fill-rule="evenodd"/><path d="M3670.5 1659.5C3670.5 1655.08 3674.08 1651.5 3678.5 1651.5 3682.92 1651.5 3686.5 1655.08 3686.5 1659.5 3686.5 1663.92 3682.92 1667.5 3678.5 1667.5 3674.08 1667.5 3670.5 1663.92 3670.5 1659.5Z" stroke="#000000" stroke-width="0" stroke-linejoin="round" stroke-miterlimit="10" fill-rule="evenodd"/><path d="M3743.5 1288C3743.5 1283.31 3747.08 1279.5 3751.5 1279.5 3755.92 1279.5 3759.5 1283.31 3759.5 1288 3759.5 1292.69 3755.92 1296.5 3751.5 1296.5 3747.08 1296.5 3743.5 1292.69 3743.5 1288Z" stroke="#000000" stroke-width="0" stroke-linejoin="round" stroke-miterlimit="10" fill-rule="evenodd"/><path d="M3816.5 917.5C3816.5 913.082 3820.08 909.5 3824.5 909.5 3828.92 909.5 3832.5 913.082 3832.5 917.5 3832.5 921.918 3828.92 925.5 3824.5 925.5 3820.08 925.5 3816.5 921.918 3816.5 917.5Z" stroke="#000000" stroke-width="0" stroke-linejoin="round" stroke-miterlimit="10" fill-rule="evenodd"/><path d="M3889.5 1311.5C3889.5 1307.08 3893.31 1303.5 3898 1303.5 3902.69 1303.5 3906.5 1307.08 3906.5 1311.5 3906.5 1315.92 3902.69 1319.5 3898 1319.5 3893.31 1319.5 3889.5 1315.92 3889.5 1311.5Z" stroke="#000000" stroke-width="0" stroke-linejoin="round" stroke-miterlimit="10" fill-rule="evenodd"/><path d="M3962.5 1311.5C3962.5 1307.08 3966.08 1303.5 3970.5 1303.5 3974.92 1303.5 3978.5 1307.08 3978.5 1311.5 3978.5 1315.92 3974.92 1319.5 3970.5 1319.5 3966.08 1319.5 3962.5 1315.92 3962.5 1311.5Z" stroke="#000000" stroke-width="0" stroke-linejoin="round" stroke-miterlimit="10" fill-rule="evenodd"/><path d="M4035.5 917.5C4035.5 913.082 4039.08 909.5 4043.5 909.5 4047.92 909.5 4051.5 913.082 4051.5 917.5 4051.5 921.918 4047.92 925.5 4043.5 925.5 4039.08 925.5 4035.5 921.918 4035.5 917.5Z" stroke="#000000" stroke-width="0" stroke-linejoin="round" stroke-miterlimit="10" fill-rule="evenodd"/><path d="M4108.5 1288C4108.5 1283.31 4112.08 1279.5 4116.5 1279.5 4120.92 1279.5 4124.5 1283.31 4124.5 1288 4124.5 1292.69 4120.92 1296.5 4116.5 1296.5 4112.08 1296.5 4108.5 1292.69 4108.5 1288Z" stroke="#000000" stroke-width="0" stroke-linejoin="round" stroke-miterlimit="10" fill-rule="evenodd"/><path d="M4181.5 1647.5C4181.5 1643.08 4185.08 1639.5 4189.5 1639.5 4193.92 1639.5 4197.5 1643.08 4197.5 1647.5 4197.5 1651.92 4193.92 1655.5 4189.5 1655.5 4185.08 1655.5 4181.5 1651.92 4181.5 1647.5Z" stroke="#000000" stroke-width="0" stroke-linejoin="round" stroke-miterlimit="10" fill-rule="evenodd"/><path d="M4254.5 1451C4254.5 1446.31 4258.08 1442.5 4262.5 1442.5 4266.92 1442.5 4270.5 1446.31 4270.5 1451 4270.5 1455.69 4266.92 1459.5 4262.5 1459.5 4258.08 1459.5 4254.5 1455.69 4254.5 1451Z" stroke="#000000" stroke-width="0" stroke-linejoin="round" stroke-miterlimit="10" fill-rule="evenodd"/><path d="M0 0 0.000360892 359" stroke="#000000" stroke-width="4.0106" stroke-linejoin="round" stroke-miterlimit="10" fill="none" fill-rule="evenodd" transform="matrix(1 0 0 -1 248 1287)"/><path d="M320 1287 320 1310" stroke="#000000" stroke-width="4.0106" stroke-linejoin="round" stroke-miterlimit="10" fill="none" fill-rule="evenodd"/><path d="M393 1287 393 1310" stroke="#000000" stroke-width="4.0106" stroke-linejoin="round" stroke-miterlimit="10" fill="none" fill-rule="evenodd"/><path d="M0 0 0.000360892 370" stroke="#000000" stroke-width="4.0106" stroke-linejoin="round" stroke-miterlimit="10" fill="none" fill-rule="evenodd" transform="matrix(1 0 0 -1 466 1287)"/><path d="M540 1287 540 1310" stroke="#000000" stroke-width="4.0106" stroke-linejoin="round" stroke-miterlimit="10" fill="none" fill-rule="evenodd"/><path d="M612 1287 612 1310" stroke="#000000" stroke-width="4.0106" stroke-linejoin="round" stroke-miterlimit="10" fill="none" fill-rule="evenodd"/><path d="M0 0 0.000360892 347" stroke="#000000" stroke-width="4.0106" stroke-linejoin="round" stroke-miterlimit="10" fill="none" fill-rule="evenodd" transform="matrix(1 0 0 -1 685 1287)"/><path d="M0 0 0.000360892 347" stroke="#000000" stroke-width="4.0106" stroke-linejoin="round" stroke-miterlimit="10" fill="none" fill-rule="evenodd" transform="matrix(1 0 0 -1 759 1287)"/><path d="M904 1287 904 1659" stroke="#000000" stroke-width="4.0106" stroke-linejoin="round" stroke-miterlimit="10" fill="none" fill-rule="evenodd"/><path d="M0 0 0.000360892 22" stroke="#000000" stroke-width="4.0106" stroke-linejoin="round" stroke-miterlimit="10" fill="none" fill-rule="evenodd" transform="matrix(1 0 0 -1 977 1287)"/><path d="M1123 1287 1123 1310" stroke="#000000" stroke-width="4.0106" stroke-linejoin="round" stroke-miterlimit="10" fill="none" fill-rule="evenodd"/><path d="M0 0 0.000360892 347" stroke="#000000" stroke-width="4.0106" stroke-linejoin="round" stroke-miterlimit="10" fill="none" fill-rule="evenodd" transform="matrix(1 0 0 -1 1196 1287)"/><path d="M0 0 0.000360892 347" stroke="#000000" stroke-width="4.0106" stroke-linejoin="round" stroke-miterlimit="10" fill="none" fill-rule="evenodd" transform="matrix(1 0 0 -1 1270 1287)"/><path d="M1415 1287 1415 1636" stroke="#000000" stroke-width="4.0106" stroke-linejoin="round" stroke-miterlimit="10" fill="none" fill-rule="evenodd"/><path d="M1488 1287 1488 1613" stroke="#000000" stroke-width="4.0106" stroke-linejoin="round" stroke-miterlimit="10" fill="none" fill-rule="evenodd"/><path d="M1561 1287 1561 1636" stroke="#000000" stroke-width="4.0106" stroke-linejoin="round" stroke-miterlimit="10" fill="none" fill-rule="evenodd"/><path d="M0 0 0.000360892 347" stroke="#000000" stroke-width="4.0106" stroke-linejoin="round" stroke-miterlimit="10" fill="none" fill-rule="evenodd" transform="matrix(1 0 0 -1 1707 1287)"/><path d="M0 0 0.000360892 324" stroke="#000000" stroke-width="4.0106" stroke-linejoin="round" stroke-miterlimit="10" fill="none" fill-rule="evenodd" transform="matrix(1 0 0 -1 1781 1287)"/><path d="M0 0 0.000360892 347" stroke="#000000" stroke-width="4.0106" stroke-linejoin="round" stroke-miterlimit="10" fill="none" fill-rule="evenodd" transform="matrix(1 0 0 -1 1853 1287)"/><path d="M1926 1287 1926 1310" stroke="#000000" stroke-width="4.0106" stroke-linejoin="round" stroke-miterlimit="10" fill="none" fill-rule="evenodd"/><path d="M0 0 0.000360892 22" stroke="#000000" stroke-width="4.0106" stroke-linejoin="round" stroke-miterlimit="10" fill="none" fill-rule="evenodd" transform="matrix(1 0 0 -1 2072 1287)"/><path d="M2146 1287 2146 1659" stroke="#000000" stroke-width="4.0106" stroke-linejoin="round" stroke-miterlimit="10" fill="none" fill-rule="evenodd"/><path d="M0 0 0.000360892 370" stroke="#000000" stroke-width="4.0106" stroke-linejoin="round" stroke-miterlimit="10" fill="none" fill-rule="evenodd" transform="matrix(1 0 0 -1 2291 1287)"/><path d="M2437 1287 2437 1636" stroke="#000000" stroke-width="4.0106" stroke-linejoin="round" stroke-miterlimit="10" fill="none" fill-rule="evenodd"/><path d="M2510 1287 2510 1636" stroke="#000000" stroke-width="4.0106" stroke-linejoin="round" stroke-miterlimit="10" fill="none" fill-rule="evenodd"/><path d="M0 0 0.000360892 22" stroke="#000000" stroke-width="4.0106" stroke-linejoin="round" stroke-miterlimit="10" fill="none" fill-rule="evenodd" transform="matrix(1 0 0 -1 2583 1287)"/><path d="M2729 1287 2729 1310" stroke="#000000" stroke-width="4.0106" stroke-linejoin="round" stroke-miterlimit="10" fill="none" fill-rule="evenodd"/><path d="M0 0 0.000360892 370" stroke="#000000" stroke-width="4.0106" stroke-linejoin="round" stroke-miterlimit="10" fill="none" fill-rule="evenodd" transform="matrix(1 0 0 -1 2802 1287)"/><path d="M2948 1287 2948 1636" stroke="#000000" stroke-width="4.0106" stroke-linejoin="round" stroke-miterlimit="10" fill="none" fill-rule="evenodd"/><path d="M3021 1287 3021 1613" stroke="#000000" stroke-width="4.0106" stroke-linejoin="round" stroke-miterlimit="10" fill="none" fill-rule="evenodd"/><path d="M198 969.5C198 962.044 203.82 956 211 956 218.18 956 224 962.044 224 969.5 224 976.956 218.18 983 211 983 203.82 983 198 976.956 198 969.5Z" fill="#FF0000" fill-rule="evenodd"/><path d="M270 969.5C270 962.044 276.044 956 283.5 956 290.956 956 297 962.044 297 969.5 297 976.956 290.956 983 283.5 983 276.044 983 270 976.956 270 969.5Z" fill="#FF0000" fill-rule="evenodd"/><path d="M344 1606.5C344 1599.04 349.82 1593 357 1593 364.18 1593 370 1599.04 370 1606.5 370 1613.96 364.18 1620 357 1620 349.82 1620 344 1613.96 344 1606.5Z" fill="#FF0000" fill-rule="evenodd"/><path d="M417 969.5C417 962.044 422.82 956 430 956 437.18 956 443 962.044 443 969.5 443 976.956 437.18 983 430 983 422.82 983 417 976.956 417 969.5Z" fill="#FF0000" fill-rule="evenodd"/><path d="M489 969.5C489 962.044 495.044 956 502.5 956 509.956 956 516 962.044 516 969.5 516 976.956 509.956 983 502.5 983 495.044 983 489 976.956 489 969.5Z" fill="#FF0000" fill-rule="evenodd"/><path d="M563 1606.5C563 1599.04 569.044 1593 576.5 1593 583.956 1593 590 1599.04 590 1606.5 590 1613.96 583.956 1620 576.5 1620 569.044 1620 563 1613.96 563 1606.5Z" fill="#FF0000" fill-rule="evenodd"/><path d="M635 969.5C635 962.044 641.044 956 648.5 956 655.956 956 662 962.044 662 969.5 662 976.956 655.956 983 648.5 983 641.044 983 635 976.956 635 969.5Z" fill="#FF0000" fill-rule="evenodd"/><path d="M709 969.5C709 962.044 714.82 956 722 956 729.18 956 735 962.044 735 969.5 735 976.956 729.18 983 722 983 714.82 983 709 976.956 709 969.5Z" fill="#FF0000" fill-rule="evenodd"/><path d="M781 969.5C781 962.044 787.044 956 794.5 956 801.956 956 808 962.044 808 969.5 808 976.956 801.956 983 794.5 983 787.044 983 781 976.956 781 969.5Z" fill="#FF0000" fill-rule="evenodd"/><path d="M855 1606.5C855 1599.04 860.82 1593 868 1593 875.18 1593 881 1599.04 881 1606.5 881 1613.96 875.18 1620 868 1620 860.82 1620 855 1613.96 855 1606.5Z" fill="#FF0000" fill-rule="evenodd"/><path d="M928 1606.5C928 1599.04 933.82 1593 941 1593 948.18 1593 954 1599.04 954 1606.5 954 1613.96 948.18 1620 941 1620 933.82 1620 928 1613.96 928 1606.5Z" fill="#FF0000" fill-rule="evenodd"/><path d="M1000 969.5C1000 962.044 1006.04 956 1013.5 956 1020.96 956 1027 962.044 1027 969.5 1027 976.956 1020.96 983 1013.5 983 1006.04 983 1000 976.956 1000 969.5Z" fill="#FF0000" fill-rule="evenodd"/><path d="M1073 1606.5C1073 1599.04 1079.04 1593 1086.5 1593 1093.96 1593 1100 1599.04 1100 1606.5 1100 1613.96 1093.96 1620 1086.5 1620 1079.04 1620 1073 1613.96 1073 1606.5Z" fill="#FF0000" fill-rule="evenodd"/><path d="M1146 969.5C1146 962.044 1152.04 956 1159.5 956 1166.96 956 1173 962.044 1173 969.5 1173 976.956 1166.96 983 1159.5 983 1152.04 983 1146 976.956 1146 969.5Z" fill="#FF0000" fill-rule="evenodd"/><path d="M1220 969.5C1220 962.044 1225.82 956 1233 956 1240.18 956 1246 962.044 1246 969.5 1246 976.956 1240.18 983 1233 983 1225.82 983 1220 976.956 1220 969.5Z" fill="#FF0000" fill-rule="evenodd"/><path d="M1293 969.5C1293 962.044 1298.82 956 1306 956 1313.18 956 1319 962.044 1319 969.5 1319 976.956 1313.18 983 1306 983 1298.82 983 1293 976.956 1293 969.5Z" fill="#FF0000" fill-rule="evenodd"/><path d="M1365 1606.5C1365 1599.04 1371.04 1593 1378.5 1593 1385.96 1593 1392 1599.04 1392 1606.5 1392 1613.96 1385.96 1620 1378.5 1620 1371.04 1620 1365 1613.96 1365 1606.5Z" fill="#FF0000" fill-rule="evenodd"/><path d="M1439 1606.5C1439 1599.04 1445.04 1593 1452.5 1593 1459.96 1593 1466 1599.04 1466 1606.5 1466 1613.96 1459.96 1620 1452.5 1620 1445.04 1620 1439 1613.96 1439 1606.5Z" fill="#FF0000" fill-rule="evenodd"/><path d="M1511 1606.5C1511 1599.04 1517.04 1593 1524.5 1593 1531.96 1593 1538 1599.04 1538 1606.5 1538 1613.96 1531.96 1620 1524.5 1620 1517.04 1620 1511 1613.96 1511 1606.5Z" fill="#FF0000" fill-rule="evenodd"/><path d="M1584 1606.5C1584 1599.04 1590.04 1593 1597.5 1593 1604.96 1593 1611 1599.04 1611 1606.5 1611 1613.96 1604.96 1620 1597.5 1620 1590.04 1620 1584 1613.96 1584 1606.5Z" fill="#FF0000" fill-rule="evenodd"/><path d="M1657 969.5C1657 962.044 1663.04 956 1670.5 956 1677.96 956 1684 962.044 1684 969.5 1684 976.956 1677.96 983 1670.5 983 1663.04 983 1657 976.956 1657 969.5Z" fill="#FF0000" fill-rule="evenodd"/><path d="M1731 969.5C1731 962.044 1736.82 956 1744 956 1751.18 956 1757 962.044 1757 969.5 1757 976.956 1751.18 983 1744 983 1736.82 983 1731 976.956 1731 969.5Z" fill="#FF0000" fill-rule="evenodd"/><path d="M1804 969.5C1804 962.044 1809.82 956 1817 956 1824.18 956 1830 962.044 1830 969.5 1830 976.956 1824.18 983 1817 983 1809.82 983 1804 976.956 1804 969.5Z" fill="#FF0000" fill-rule="evenodd"/><path d="M1876 969.5C1876 962.044 1882.04 956 1889.5 956 1896.96 956 1903 962.044 1903 969.5 1903 976.956 1896.96 983 1889.5 983 1882.04 983 1876 976.956 1876 969.5Z" fill="#FF0000" fill-rule="evenodd"/><path d="M1950 1606.5C1950 1599.04 1955.82 1593 1963 1593 1970.18 1593 1976 1599.04 1976 1606.5 1976 1613.96 1970.18 1620 1963 1620 1955.82 1620 1950 1613.96 1950 1606.5Z" fill="#FF0000" fill-rule="evenodd"/><path d="M2022 969.5C2022 962.044 2028.04 956 2035.5 956 2042.96 956 2049 962.044 2049 969.5 2049 976.956 2042.96 983 2035.5 983 2028.04 983 2022 976.956 2022 969.5Z" fill="#FF0000" fill-rule="evenodd"/><path d="M2095 1606.5C2095 1599.04 2101.04 1593 2108.5 1593 2115.96 1593 2122 1599.04 2122 1606.5 2122 1613.96 2115.96 1620 2108.5 1620 2101.04 1620 2095 1613.96 2095 1606.5Z" fill="#FF0000" fill-rule="evenodd"/><path d="M2168 1606.5C2168 1599.04 2174.04 1593 2181.5 1593 2188.96 1593 2195 1599.04 2195 1606.5 2195 1613.96 2188.96 1620 2181.5 1620 2174.04 1620 2168 1613.96 2168 1606.5Z" fill="#FF0000" fill-rule="evenodd"/><path d="M2241 969.5C2241 962.044 2247.04 956 2254.5 956 2261.96 956 2268 962.044 2268 969.5 2268 976.956 2261.96 983 2254.5 983 2247.04 983 2241 976.956 2241 969.5Z" fill="#FF0000" fill-rule="evenodd"/><path d="M2315 969.5C2315 962.044 2320.82 956 2328 956 2335.18 956 2341 962.044 2341 969.5 2341 976.956 2335.18 983 2328 983 2320.82 983 2315 976.956 2315 969.5Z" fill="#FF0000" fill-rule="evenodd"/><path d="M2387 1606.5C2387 1599.04 2393.04 1593 2400.5 1593 2407.96 1593 2414 1599.04 2414 1606.5 2414 1613.96 2407.96 1620 2400.5 1620 2393.04 1620 2387 1613.96 2387 1606.5Z" fill="#FF0000" fill-rule="evenodd"/><path d="M2461 1606.5C2461 1599.04 2466.82 1593 2474 1593 2481.18 1593 2487 1599.04 2487 1606.5 2487 1613.96 2481.18 1620 2474 1620 2466.82 1620 2461 1613.96 2461 1606.5Z" fill="#FF0000" fill-rule="evenodd"/><path d="M2533 1606.5C2533 1599.04 2539.04 1593 2546.5 1593 2553.96 1593 2560 1599.04 2560 1606.5 2560 1613.96 2553.96 1620 2546.5 1620 2539.04 1620 2533 1613.96 2533 1606.5Z" fill="#FF0000" fill-rule="evenodd"/><path d="M2606 969.5C2606 962.044 2612.04 956 2619.5 956 2626.96 956 2633 962.044 2633 969.5 2633 976.956 2626.96 983 2619.5 983 2612.04 983 2606 976.956 2606 969.5Z" fill="#FF0000" fill-rule="evenodd"/><path d="M2680 1606.5C2680 1599.04 2685.82 1593 2693 1593 2700.18 1593 2706 1599.04 2706 1606.5 2706 1613.96 2700.18 1620 2693 1620 2685.82 1620 2680 1613.96 2680 1606.5Z" fill="#FF0000" fill-rule="evenodd"/><path d="M2752 969.5C2752 962.044 2758.04 956 2765.5 956 2772.96 956 2779 962.044 2779 969.5 2779 976.956 2772.96 983 2765.5 983 2758.04 983 2752 976.956 2752 969.5Z" fill="#FF0000" fill-rule="evenodd"/><path d="M2826 969.5C2826 962.044 2831.82 956 2839 956 2846.18 956 2852 962.044 2852 969.5 2852 976.956 2846.18 983 2839 983 2831.82 983 2826 976.956 2826 969.5Z" fill="#FF0000" fill-rule="evenodd"/><path d="M2898 1606.5C2898 1599.04 2904.04 1593 2911.5 1593 2918.96 1593 2925 1599.04 2925 1606.5 2925 1613.96 2918.96 1620 2911.5 1620 2904.04 1620 2898 1613.96 2898 1606.5Z" fill="#FF0000" fill-rule="evenodd"/><path d="M2972 1606.5C2972 1599.04 2977.82 1593 2985 1593 2992.18 1593 2998 1599.04 2998 1606.5 2998 1613.96 2992.18 1620 2985 1620 2977.82 1620 2972 1613.96 2972 1606.5Z" fill="#FF0000" fill-rule="evenodd"/><path d="M3044 1606.5C3044 1599.04 3050.04 1593 3057.5 1593 3064.96 1593 3071 1599.04 3071 1606.5 3071 1613.96 3064.96 1620 3057.5 1620 3050.04 1620 3044 1613.96 3044 1606.5Z" fill="#FF0000" fill-rule="evenodd"/><path d="M3117 1606.5C3117 1599.04 3123.04 1593 3130.5 1593 3137.96 1593 3144 1599.04 3144 1606.5 3144 1613.96 3137.96 1620 3130.5 1620 3123.04 1620 3117 1613.96 3117 1606.5Z" fill="#FF0000" fill-rule="evenodd"/><path d="M3190 969.5C3190 962.044 3196.04 956 3203.5 956 3210.96 956 3217 962.044 3217 969.5 3217 976.956 3210.96 983 3203.5 983 3196.04 983 3190 976.956 3190 969.5Z" fill="#FF0000" fill-rule="evenodd"/><path d="M3263 969.5C3263 962.044 3269.04 956 3276.5 956 3283.96 956 3290 962.044 3290 969.5 3290 976.956 3283.96 983 3276.5 983 3269.04 983 3263 976.956 3263 969.5Z" fill="#FF0000" fill-rule="evenodd"/><path d="M3337 969.5C3337 962.044 3342.82 956 3350 956 3357.18 956 3363 962.044 3363 969.5 3363 976.956 3357.18 983 3350 983 3342.82 983 3337 976.956 3337 969.5Z" fill="#FF0000" fill-rule="evenodd"/><path d="M3409 1606.5C3409 1599.04 3415.04 1593 3422.5 1593 3429.96 1593 3436 1599.04 3436 1606.5 3436 1613.96 3429.96 1620 3422.5 1620 3415.04 1620 3409 1613.96 3409 1606.5Z" fill="#FF0000" fill-rule="evenodd"/><path d="M3482 969.5C3482 962.044 3488.04 956 3495.5 956 3502.96 956 3509 962.044 3509 969.5 3509 976.956 3502.96 983 3495.5 983 3488.04 983 3482 976.956 3482 969.5Z" fill="#FF0000" fill-rule="evenodd"/><path d="M3556 969.5C3556 962.044 3561.82 956 3569 956 3576.18 956 3582 962.044 3582 969.5 3582 976.956 3576.18 983 3569 983 3561.82 983 3556 976.956 3556 969.5Z" fill="#FF0000" fill-rule="evenodd"/><path d="M3628 1606.5C3628 1599.04 3634.04 1593 3641.5 1593 3648.96 1593 3655 1599.04 3655 1606.5 3655 1613.96 3648.96 1620 3641.5 1620 3634.04 1620 3628 1613.96 3628 1606.5Z" fill="#FF0000" fill-rule="evenodd"/><path d="M3701 1606.5C3701 1599.04 3707.04 1593 3714.5 1593 3721.96 1593 3728 1599.04 3728 1606.5 3728 1613.96 3721.96 1620 3714.5 1620 3707.04 1620 3701 1613.96 3701 1606.5Z" fill="#FF0000" fill-rule="evenodd"/><path d="M3774 969.5C3774 962.044 3780.04 956 3787.5 956 3794.96 956 3801 962.044 3801 969.5 3801 976.956 3794.96 983 3787.5 983 3780.04 983 3774 976.956 3774 969.5Z" fill="#FF0000" fill-rule="evenodd"/><path d="M3848 969.5C3848 962.044 3853.82 956 3861 956 3868.18 956 3874 962.044 3874 969.5 3874 976.956 3868.18 983 3861 983 3853.82 983 3848 976.956 3848 969.5Z" fill="#FF0000" fill-rule="evenodd"/><path d="M3920 1606.5C3920 1599.04 3926.04 1593 3933.5 1593 3940.96 1593 3947 1599.04 3947 1606.5 3947 1613.96 3940.96 1620 3933.5 1620 3926.04 1620 3920 1613.96 3920 1606.5Z" fill="#FF0000" fill-rule="evenodd"/><path d="M3993 969.5C3993 962.044 3999.04 956 4006.5 956 4013.96 956 4020 962.044 4020 969.5 4020 976.956 4013.96 983 4006.5 983 3999.04 983 3993 976.956 3993 969.5Z" fill="#FF0000" fill-rule="evenodd"/><path d="M4067 969.5C4067 962.044 4072.82 956 4080 956 4087.18 956 4093 962.044 4093 969.5 4093 976.956 4087.18 983 4080 983 4072.82 983 4067 976.956 4067 969.5Z" fill="#FF0000" fill-rule="evenodd"/><path d="M4139 1606.5C4139 1599.04 4145.04 1593 4152.5 1593 4159.96 1593 4166 1599.04 4166 1606.5 4166 1613.96 4159.96 1620 4152.5 1620 4145.04 1620 4139 1613.96 4139 1606.5Z" fill="#FF0000" fill-rule="evenodd"/><path d="M4212 1606.5C4212 1599.04 4218.04 1593 4225.5 1593 4232.96 1593 4239 1599.04 4239 1606.5 4239 1613.96 4232.96 1620 4225.5 1620 4218.04 1620 4212 1613.96 4212 1606.5Z" fill="#FF0000" fill-rule="evenodd"/><path d="M234 927.5C234 920.044 240.044 914 247.5 914 254.956 914 261 920.044 261 927.5 261 934.956 254.956 941 247.5 941 240.044 941 234 934.956 234 927.5Z" fill-rule="evenodd"/><path d="M307 1310.5C307 1303.04 313.044 1297 320.5 1297 327.956 1297 334 1303.04 334 1310.5 334 1317.96 327.956 1324 320.5 1324 313.044 1324 307 1317.96 307 1310.5Z" fill-rule="evenodd"/><path d="M380 1310.5C380 1303.04 386.044 1297 393.5 1297 400.956 1297 407 1303.04 407 1310.5 407 1317.96 400.956 1324 393.5 1324 386.044 1324 380 1317.96 380 1310.5Z" fill-rule="evenodd"/><path d="M453 916.5C453 909.044 459.044 903 466.5 903 473.956 903 480 909.044 480 916.5 480 923.956 473.956 930 466.5 930 459.044 930 453 923.956 453 916.5Z" fill-rule="evenodd"/><path d="M526 1310.5C526 1303.04 531.82 1297 539 1297 546.18 1297 552 1303.04 552 1310.5 552 1317.96 546.18 1324 539 1324 531.82 1324 526 1317.96 526 1310.5Z" fill-rule="evenodd"/><path d="M599 1310.5C599 1303.04 605.044 1297 612.5 1297 619.956 1297 626 1303.04 626 1310.5 626 1317.96 619.956 1324 612.5 1324 605.044 1324 599 1317.96 599 1310.5Z" fill-rule="evenodd"/><path d="M672 939.5C672 932.044 678.044 926 685.5 926 692.956 926 699 932.044 699 939.5 699 946.956 692.956 953 685.5 953 678.044 953 672 946.956 672 939.5Z" fill-rule="evenodd"/><path d="M745 939.5C745 932.044 751.044 926 758.5 926 765.956 926 772 932.044 772 939.5 772 946.956 765.956 953 758.5 953 751.044 953 745 946.956 745 939.5Z" fill-rule="evenodd"/><path d="M818 1287.5C818 1280.04 824.044 1274 831.5 1274 838.956 1274 845 1280.04 845 1287.5 845 1294.96 838.956 1301 831.5 1301 824.044 1301 818 1294.96 818 1287.5Z" fill-rule="evenodd"/><path d="M891 1658.5C891 1651.04 897.044 1645 904.5 1645 911.956 1645 918 1651.04 918 1658.5 918 1665.96 911.956 1672 904.5 1672 897.044 1672 891 1665.96 891 1658.5Z" fill-rule="evenodd"/><path d="M964 1264.5C964 1257.04 970.044 1251 977.5 1251 984.956 1251 991 1257.04 991 1264.5 991 1271.96 984.956 1278 977.5 1278 970.044 1278 964 1271.96 964 1264.5Z" fill-rule="evenodd"/><path d="M1037 1287.5C1037 1280.04 1042.82 1274 1050 1274 1057.18 1274 1063 1280.04 1063 1287.5 1063 1294.96 1057.18 1301 1050 1301 1042.82 1301 1037 1294.96 1037 1287.5Z" fill-rule="evenodd"/><path d="M1110 1310.5C1110 1303.04 1116.04 1297 1123.5 1297 1130.96 1297 1137 1303.04 1137 1310.5 1137 1317.96 1130.96 1324 1123.5 1324 1116.04 1324 1110 1317.96 1110 1310.5Z" fill-rule="evenodd"/><path d="M1183 939.5C1183 932.044 1189.04 926 1196.5 926 1203.96 926 1210 932.044 1210 939.5 1210 946.956 1203.96 953 1196.5 953 1189.04 953 1183 946.956 1183 939.5Z" fill-rule="evenodd"/><path d="M1256 939.5C1256 932.044 1262.04 926 1269.5 926 1276.96 926 1283 932.044 1283 939.5 1283 946.956 1276.96 953 1269.5 953 1262.04 953 1256 946.956 1256 939.5Z" fill-rule="evenodd"/><path d="M1329 1287.5C1329 1280.04 1335.04 1274 1342.5 1274 1349.96 1274 1356 1280.04 1356 1287.5 1356 1294.96 1349.96 1301 1342.5 1301 1335.04 1301 1329 1294.96 1329 1287.5Z" fill-rule="evenodd"/><path d="M1402 1636C1402 1628.82 1408.04 1623 1415.5 1623 1422.96 1623 1429 1628.82 1429 1636 1429 1643.18 1422.96 1649 1415.5 1649 1408.04 1649 1402 1643.18 1402 1636Z" fill-rule="evenodd"/><path d="M1475 1613.5C1475 1606.04 1481.04 1600 1488.5 1600 1495.96 1600 1502 1606.04 1502 1613.5 1502 1620.96 1495.96 1627 1488.5 1627 1481.04 1627 1475 1620.96 1475 1613.5Z" fill-rule="evenodd"/><path d="M1548 1636C1548 1628.82 1553.82 1623 1561 1623 1568.18 1623 1574 1628.82 1574 1636 1574 1643.18 1568.18 1649 1561 1649 1553.82 1649 1548 1643.18 1548 1636Z" fill-rule="evenodd"/><path d="M1621 1287.5C1621 1280.04 1627.04 1274 1634.5 1274 1641.96 1274 1648 1280.04 1648 1287.5 1648 1294.96 1641.96 1301 1634.5 1301 1627.04 1301 1621 1294.96 1621 1287.5Z" fill-rule="evenodd"/><path d="M1694 939.5C1694 932.044 1699.82 926 1707 926 1714.18 926 1720 932.044 1720 939.5 1720 946.956 1714.18 953 1707 953 1699.82 953 1694 946.956 1694 939.5Z" fill-rule="evenodd"/><path d="M1767 962.5C1767 955.044 1773.04 949 1780.5 949 1787.96 949 1794 955.044 1794 962.5 1794 969.956 1787.96 976 1780.5 976 1773.04 976 1767 969.956 1767 962.5Z" fill-rule="evenodd"/><path d="M1840 939.5C1840 932.044 1846.04 926 1853.5 926 1860.96 926 1867 932.044 1867 939.5 1867 946.956 1860.96 953 1853.5 953 1846.04 953 1840 946.956 1840 939.5Z" fill-rule="evenodd"/><path d="M1913 1310.5C1913 1303.04 1919.04 1297 1926.5 1297 1933.96 1297 1940 1303.04 1940 1310.5 1940 1317.96 1933.96 1324 1926.5 1324 1919.04 1324 1913 1317.96 1913 1310.5Z" fill-rule="evenodd"/><path d="M1986 1287.5C1986 1280.04 1992.04 1274 1999.5 1274 2006.96 1274 2013 1280.04 2013 1287.5 2013 1294.96 2006.96 1301 1999.5 1301 1992.04 1301 1986 1294.96 1986 1287.5Z" fill-rule="evenodd"/><path d="M2059 1264.5C2059 1257.04 2064.82 1251 2072 1251 2079.18 1251 2085 1257.04 2085 1264.5 2085 1271.96 2079.18 1278 2072 1278 2064.82 1278 2059 1271.96 2059 1264.5Z" fill-rule="evenodd"/><path d="M2132 1658.5C2132 1651.04 2138.04 1645 2145.5 1645 2152.96 1645 2159 1651.04 2159 1658.5 2159 1665.96 2152.96 1672 2145.5 1672 2138.04 1672 2132 1665.96 2132 1658.5Z" fill-rule="evenodd"/><path d="M2205 1287.5C2205 1280.04 2211.04 1274 2218.5 1274 2225.96 1274 2232 1280.04 2232 1287.5 2232 1294.96 2225.96 1301 2218.5 1301 2211.04 1301 2205 1294.96 2205 1287.5Z" fill-rule="evenodd"/><path d="M2278 916.5C2278 909.044 2284.04 903 2291.5 903 2298.96 903 2305 909.044 2305 916.5 2305 923.956 2298.96 930 2291.5 930 2284.04 930 2278 923.956 2278 916.5Z" fill-rule="evenodd"/><path d="M2351 1287.5C2351 1280.04 2357.04 1274 2364.5 1274 2371.96 1274 2378 1280.04 2378 1287.5 2378 1294.96 2371.96 1301 2364.5 1301 2357.04 1301 2351 1294.96 2351 1287.5Z" fill-rule="evenodd"/><path d="M2424 1636C2424 1628.82 2430.04 1623 2437.5 1623 2444.96 1623 2451 1628.82 2451 1636 2451 1643.18 2444.96 1649 2437.5 1649 2430.04 1649 2424 1643.18 2424 1636Z" fill-rule="evenodd"/><path d="M2497 1636C2497 1628.82 2503.04 1623 2510.5 1623 2517.96 1623 2524 1628.82 2524 1636 2524 1643.18 2517.96 1649 2510.5 1649 2503.04 1649 2497 1643.18 2497 1636Z" fill-rule="evenodd"/><path d="M2570 1264.5C2570 1257.04 2575.82 1251 2583 1251 2590.18 1251 2596 1257.04 2596 1264.5 2596 1271.96 2590.18 1278 2583 1278 2575.82 1278 2570 1271.96 2570 1264.5Z" fill-rule="evenodd"/><path d="M2643 1287.5C2643 1280.04 2648.82 1274 2656 1274 2663.18 1274 2669 1280.04 2669 1287.5 2669 1294.96 2663.18 1301 2656 1301 2648.82 1301 2643 1294.96 2643 1287.5Z" fill-rule="evenodd"/><path d="M2716 1310.5C2716 1303.04 2722.04 1297 2729.5 1297 2736.96 1297 2743 1303.04 2743 1310.5 2743 1317.96 2736.96 1324 2729.5 1324 2722.04 1324 2716 1317.96 2716 1310.5Z" fill-rule="evenodd"/><path d="M2789 916.5C2789 909.044 2795.04 903 2802.5 903 2809.96 903 2816 909.044 2816 916.5 2816 923.956 2809.96 930 2802.5 930 2795.04 930 2789 923.956 2789 916.5Z" fill-rule="evenodd"/><path d="M2862 1287.5C2862 1280.04 2868.04 1274 2875.5 1274 2882.96 1274 2889 1280.04 2889 1287.5 2889 1294.96 2882.96 1301 2875.5 1301 2868.04 1301 2862 1294.96 2862 1287.5Z" fill-rule="evenodd"/><path d="M2935 1636C2935 1628.82 2940.82 1623 2948 1623 2955.18 1623 2961 1628.82 2961 1636 2961 1643.18 2955.18 1649 2948 1649 2940.82 1649 2935 1643.18 2935 1636Z" fill-rule="evenodd"/><path d="M3008 1613.5C3008 1606.04 3014.04 1600 3021.5 1600 3028.96 1600 3035 1606.04 3035 1613.5 3035 1620.96 3028.96 1627 3021.5 1627 3014.04 1627 3008 1620.96 3008 1613.5Z" fill-rule="evenodd"/><path d="M3081 1636C3081 1628.82 3087.04 1623 3094.5 1623 3101.96 1623 3108 1628.82 3108 1636 3108 1643.18 3101.96 1649 3094.5 1649 3087.04 1649 3081 1643.18 3081 1636Z" fill-rule="evenodd"/><path d="M3154 1287.5C3154 1280.04 3159.82 1274 3167 1274 3174.18 1274 3180 1280.04 3180 1287.5 3180 1294.96 3174.18 1301 3167 1301 3159.82 1301 3154 1294.96 3154 1287.5Z" fill-rule="evenodd"/><path d="M3227 939.5C3227 932.044 3233.04 926 3240.5 926 3247.96 926 3254 932.044 3254 939.5 3254 946.956 3247.96 953 3240.5 953 3233.04 953 3227 946.956 3227 939.5Z" fill-rule="evenodd"/><path d="M3300 939.5C3300 932.044 3306.04 926 3313.5 926 3320.96 926 3327 932.044 3327 939.5 3327 946.956 3320.96 953 3313.5 953 3306.04 953 3300 946.956 3300 939.5Z" fill-rule="evenodd"/><path d="M3373 1310.5C3373 1303.04 3379.04 1297 3386.5 1297 3393.96 1297 3400 1303.04 3400 1310.5 3400 1317.96 3393.96 1324 3386.5 1324 3379.04 1324 3373 1317.96 3373 1310.5Z" fill-rule="evenodd"/><path d="M3446 1310.5C3446 1303.04 3451.82 1297 3459 1297 3466.18 1297 3472 1303.04 3472 1310.5 3472 1317.96 3466.18 1324 3459 1324 3451.82 1324 3446 1317.96 3446 1310.5Z" fill-rule="evenodd"/><path d="M3519 916.5C3519 909.044 3525.04 903 3532.5 903 3539.96 903 3546 909.044 3546 916.5 3546 923.956 3539.96 930 3532.5 930 3525.04 930 3519 923.956 3519 916.5Z" fill-rule="evenodd"/><path d="M3592 1287.5C3592 1280.04 3598.04 1274 3605.5 1274 3612.96 1274 3619 1280.04 3619 1287.5 3619 1294.96 3612.96 1301 3605.5 1301 3598.04 1301 3592 1294.96 3592 1287.5Z" fill-rule="evenodd"/><path d="M3665 1658.5C3665 1651.04 3670.82 1645 3678 1645 3685.18 1645 3691 1651.04 3691 1658.5 3691 1665.96 3685.18 1672 3678 1672 3670.82 1672 3665 1665.96 3665 1658.5Z" fill-rule="evenodd"/><path d="M3738 1287.5C3738 1280.04 3744.04 1274 3751.5 1274 3758.96 1274 3765 1280.04 3765 1287.5 3765 1294.96 3758.96 1301 3751.5 1301 3744.04 1301 3738 1294.96 3738 1287.5Z" fill-rule="evenodd"/><path d="M3811 916.5C3811 909.044 3816.82 903 3824 903 3831.18 903 3837 909.044 3837 916.5 3837 923.956 3831.18 930 3824 930 3816.82 930 3811 923.956 3811 916.5Z" fill-rule="evenodd"/><path d="M3884 1310.5C3884 1303.04 3890.04 1297 3897.5 1297 3904.96 1297 3911 1303.04 3911 1310.5 3911 1317.96 3904.96 1324 3897.5 1324 3890.04 1324 3884 1317.96 3884 1310.5Z" fill-rule="evenodd"/><path d="M3957 1310.5C3957 1303.04 3962.82 1297 3970 1297 3977.18 1297 3983 1303.04 3983 1310.5 3983 1317.96 3977.18 1324 3970 1324 3962.82 1324 3957 1317.96 3957 1310.5Z" fill-rule="evenodd"/><path d="M4030 916.5C4030 909.044 4036.04 903 4043.5 903 4050.96 903 4057 909.044 4057 916.5 4057 923.956 4050.96 930 4043.5 930 4036.04 930 4030 923.956 4030 916.5Z" fill-rule="evenodd"/><path d="M4103 1287.5C4103 1280.04 4109.04 1274 4116.5 1274 4123.96 1274 4130 1280.04 4130 1287.5 4130 1294.96 4123.96 1301 4116.5 1301 4109.04 1301 4103 1294.96 4103 1287.5Z" fill-rule="evenodd"/><path d="M4176 1647.5C4176 1640.04 4181.82 1634 4189 1634 4196.18 1634 4202 1640.04 4202 1647.5 4202 1654.96 4196.18 1661 4189 1661 4181.82 1661 4176 1654.96 4176 1647.5Z" fill-rule="evenodd"/><path d="M4249 1450.5C4249 1443.04 4255.04 1437 4262.5 1437 4269.96 1437 4276 1443.04 4276 1450.5 4276 1457.96 4269.96 1464 4262.5 1464 4255.04 1464 4249 1457.96 4249 1450.5Z" fill-rule="evenodd"/><path d="M1926 1287 1926 1310" stroke="#000000" stroke-width="4.0106" stroke-linejoin="round" stroke-miterlimit="10" fill="none" fill-rule="evenodd"/><path d="M0 0 0.000360892 22" stroke="#000000" stroke-width="4.0106" stroke-linejoin="round" stroke-miterlimit="10" fill="none" fill-rule="evenodd" transform="matrix(1 0 0 -1 2072 1287)"/><path d="M2146 1287 2146 1659" stroke="#000000" stroke-width="4.0106" stroke-linejoin="round" stroke-miterlimit="10" fill="none" fill-rule="evenodd"/><path d="M0 0 0.000360892 370" stroke="#000000" stroke-width="4.0106" stroke-linejoin="round" stroke-miterlimit="10" fill="none" fill-rule="evenodd" transform="matrix(1 0 0 -1 2291 1287)"/><path d="M2437 1287 2437 1636" stroke="#000000" stroke-width="4.0106" stroke-linejoin="round" stroke-miterlimit="10" fill="none" fill-rule="evenodd"/><path d="M2510 1287 2510 1636" stroke="#000000" stroke-width="4.0106" stroke-linejoin="round" stroke-miterlimit="10" fill="none" fill-rule="evenodd"/><path d="M0 0 0.000360892 22" stroke="#000000" stroke-width="4.0106" stroke-linejoin="round" stroke-miterlimit="10" fill="none" fill-rule="evenodd" transform="matrix(1 0 0 -1 2583 1287)"/><path d="M2729 1287 2729 1310" stroke="#000000" stroke-width="4.0106" stroke-linejoin="round" stroke-miterlimit="10" fill="none" fill-rule="evenodd"/><path d="M0 0 0.000360892 370" stroke="#000000" stroke-width="4.0106" stroke-linejoin="round" stroke-miterlimit="10" fill="none" fill-rule="evenodd" transform="matrix(1 0 0 -1 2802 1287)"/><path d="M2948 1287 2948 1636" stroke="#000000" stroke-width="4.0106" stroke-linejoin="round" stroke-miterlimit="10" fill="none" fill-rule="evenodd"/><path d="M3021 1287 3021 1613" stroke="#000000" stroke-width="4.0106" stroke-linejoin="round" stroke-miterlimit="10" fill="none" fill-rule="evenodd"/><path d="M3094 1287 3094 1636" stroke="#000000" stroke-width="4.0106" stroke-linejoin="round" stroke-miterlimit="10" fill="none" fill-rule="evenodd"/><path d="M0 0 0.000360892 347" stroke="#000000" stroke-width="4.0106" stroke-linejoin="round" stroke-miterlimit="10" fill="none" fill-rule="evenodd" transform="matrix(1 0 0 -1 3240 1287)"/><path d="M0 0 0.000360892 347" stroke="#000000" stroke-width="4.0106" stroke-linejoin="round" stroke-miterlimit="10" fill="none" fill-rule="evenodd" transform="matrix(1 0 0 -1 3313 1287)"/><path d="M3387 1287 3387 1310" stroke="#000000" stroke-width="4.0106" stroke-linejoin="round" stroke-miterlimit="10" fill="none" fill-rule="evenodd"/><path d="M3459 1287 3459 1310" stroke="#000000" stroke-width="4.0106" stroke-linejoin="round" stroke-miterlimit="10" fill="none" fill-rule="evenodd"/><path d="M0 0 0.000360892 370" stroke="#000000" stroke-width="4.0106" stroke-linejoin="round" stroke-miterlimit="10" fill="none" fill-rule="evenodd" transform="matrix(1 0 0 -1 3532 1287)"/><path d="M3678 1287 3678 1659" stroke="#000000" stroke-width="4.0106" stroke-linejoin="round" stroke-miterlimit="10" fill="none" fill-rule="evenodd"/><path d="M0 0 0.000360892 370" stroke="#000000" stroke-width="4.0106" stroke-linejoin="round" stroke-miterlimit="10" fill="none" fill-rule="evenodd" transform="matrix(1 0 0 -1 3824 1287)"/><path d="M3898 1287 3898 1310" stroke="#000000" stroke-width="4.0106" stroke-linejoin="round" stroke-miterlimit="10" fill="none" fill-rule="evenodd"/><path d="M3970 1287 3970 1310" stroke="#000000" stroke-width="4.0106" stroke-linejoin="round" stroke-miterlimit="10" fill="none" fill-rule="evenodd"/><path d="M0 0 0.000360892 370" stroke="#000000" stroke-width="4.0106" stroke-linejoin="round" stroke-miterlimit="10" fill="none" fill-rule="evenodd" transform="matrix(1 0 0 -1 4043 1287)"/><path d="M4189 1287 4189 1648" stroke="#000000" stroke-width="4.0106" stroke-linejoin="round" stroke-miterlimit="10" fill="none" fill-rule="evenodd"/><path d="M4263 1287 4263 1450" stroke="#000000" stroke-width="4.0106" stroke-linejoin="round" stroke-miterlimit="10" fill="none" fill-rule="evenodd"/></g></svg>